SplineFontDB: 3.0
FontName: Jost-SemiItalic
FullName: Jost* 600 Semi Italic
FamilyName: Jost* Semi
Weight: Semi
Copyright: This typeface is licensed under the SIL open font license.
UComments: "2018-6-8: Created with FontForge (http://fontforge.org)"
Version: 003.400
ItalicAngle: -10
UnderlinePosition: -100
UnderlineWidth: 50
Ascent: 800
Descent: 200
InvalidEm: 0
LayerCount: 2
Layer: 0 0 "Back" 1
Layer: 1 0 "Fore" 0
XUID: [1021 69 1495626776 760146]
FSType: 0
OS2Version: 0
OS2_WeightWidthSlopeOnly: 0
OS2_UseTypoMetrics: 0
CreationTime: 1528480336
ModificationTime: 1562964819
PfmFamily: 17
TTFWeight: 600
TTFWidth: 5
LineGap: 100
VLineGap: 0
OS2TypoAscent: 825
OS2TypoAOffset: 0
OS2TypoDescent: -225
OS2TypoDOffset: 0
OS2TypoLinegap: 100
OS2WinAscent: 900
OS2WinAOffset: 0
OS2WinDescent: 300
OS2WinDOffset: 0
HheadAscent: 1030
HheadAOffset: 0
HheadDescent: -350
HheadDOffset: 0
OS2CapHeight: 700
OS2XHeight: 460
OS2Vendor: 'PfEd'
Lookup: 1 0 0 "alt a" { "alt a"  } ['ss01' ('DFLT' <'dflt' > 'latn' <'dflt' > ) ]
Lookup: 1 0 0 "Tabular Numbers lookup" { "Tabular Numbers lookup"  } ['tnum' ('DFLT' <'dflt' > 'grek' <'dflt' > 'latn' <'dflt' > ) ]
Lookup: 258 0 0 "Lets get our kern on" { "kernin like nobodys business" [150,0,4] } ['kern' ('DFLT' <'dflt' > 'latn' <'dflt' > ) ]
MarkAttachClasses: 1
DEI: 91125
KernClass2: 16 14 "kernin like nobodys business"
 43 slash seven V W Wcircumflex uni040E uni0423
 175 quotedbl quotesingle asterisk grave dieresis ordfeminine macron degree acute ordmasculine circumflex breve dotaccent ring tilde quoteleft quoteright quotedblleft quotedblright
 25 nine question F P uni0420
 131 A L backslash Agrave Aacute Acircumflex Atilde Adieresis Aring Amacron Abreve Aogonek Lacute uni013B Lslash uni0410 uni0414 uni041C
 58 three eight B C germandbls uni0411 uni0412 uni0417 uni0421
 29 K X Z uni0416 uni041A uni0425

StartChar: H
Encoding: 72 72 0
Width: 742
VWidth: 0
Flags: HMW
LayerCount: 2
Fore
SplineSet
143 307 m 1
 166 438 l 1
 669 438 l 1
 646 307 l 1
 143 307 l 1
620 700 m 1
 765 700 l 1
 644 0 l 1
 502 0 l 1
 620 700 l 1
164 700 m 1
 308 700 l 1
 188 0 l 1
 46 0 l 1
 164 700 l 1
EndSplineSet
EndChar

StartChar: O
Encoding: 79 79 1
Width: 787
VWidth: 0
Flags: HMW
LayerCount: 2
Fore
SplineSet
217 350 m 0
 199 233 255 122 383 121 c 0
 513 120 615 225 636 350 c 0
 655 468 600 578 470 579 c 0
 340 580 238 475 217 350 c 0
66 350 m 0
 97 554 273 714 484 714 c 0
 692 714 817 547 788 350 c 0
 757 145 582 -19 368 -19 c 0
 158 -19 37 153 66 350 c 0
EndSplineSet
EndChar

StartChar: I
Encoding: 73 73 2
Width: 289
VWidth: 0
Flags: HMW
LayerCount: 2
Fore
SplineSet
164 700 m 1
 310 700 l 1
 190 0 l 1
 46 0 l 1
 164 700 l 1
EndSplineSet
EndChar

StartChar: C
Encoding: 67 67 3
Width: 675
VWidth: 0
Flags: HMW
LayerCount: 2
Fore
SplineSet
221 350 m 0
 202 228 272 127 395 125 c 0
 489 124 562 169 621 220 c 1
 597 58 l 1
 534 14 465 -14 373 -14 c 0
 163 -13 37 151 66 350 c 0
 98 557 273 713 488 714 c 0
 576 714 638 688 694 641 c 1
 669 479 l 1
 627 536 566 575 480 575 c 0
 355 575 243 479 221 350 c 0
EndSplineSet
EndChar

StartChar: E
Encoding: 69 69 4
Width: 569
VWidth: 0
Flags: HMW
LayerCount: 2
Fore
SplineSet
136 0 m 1
 157 122 l 1
 503 122 l 1
 481 0 l 1
 136 0 l 1
235 578 m 1
 256 700 l 1
 601 700 l 1
 580 578 l 1
 235 578 l 1
189 311 m 1
 210 431 l 1
 536 431 l 1
 515 311 l 1
 189 311 l 1
164 700 m 1
 304 700 l 1
 183 0 l 1
 46 0 l 1
 164 700 l 1
EndSplineSet
EndChar

StartChar: F
Encoding: 70 70 6
Width: 521
VWidth: 0
Flags: HMW
LayerCount: 2
Fore
SplineSet
234 573 m 1
 256 700 l 1
 562 700 l 1
 540 573 l 1
 234 573 l 1
187 298 m 1
 208 418 l 1
 504 418 l 1
 484 298 l 1
 187 298 l 1
164 700 m 1
 304 700 l 1
 183 0 l 1
 46 0 l 1
 164 700 l 1
EndSplineSet
EndChar

StartChar: G
Encoding: 71 71 7
Width: 779
VWidth: 0
Flags: HMW
LayerCount: 2
Fore
SplineSet
419 259 m 1
 440 375 l 1
 776 375 l 1
 749 168 608 -19 375 -19 c 0
 163 -19 37 150 66 350 c 0
 98 559 277 714 493 714 c 0
 622 714 715 653 771 552 c 1
 640 482 l 1
 612 544 560 584 480 584 c 0
 350 584 238 483 216 350 c 0
 196 224 258 111 390 111 c 0
 500 111 568 176 608 259 c 1
 419 259 l 1
EndSplineSet
EndChar

StartChar: T
Encoding: 84 84 8
Width: 517
VWidth: 0
Flags: HMW
LayerCount: 2
Fore
SplineSet
74 569 m 1
 97 700 l 1
 607 700 l 1
 584 569 l 1
 401 569 l 1
 303 0 l 1
 160 0 l 1
 258 569 l 1
 74 569 l 1
EndSplineSet
EndChar

StartChar: L
Encoding: 76 76 9
Width: 490
VWidth: 0
Flags: HMW
LayerCount: 2
Fore
SplineSet
165 700 m 1
 308 700 l 1
 210 127 l 1
 481 127 l 1
 459 0 l 1
 45 0 l 1
 165 700 l 1
EndSplineSet
EndChar

StartChar: D
Encoding: 68 68 10
Width: 695
VWidth: 0
Flags: HMW
LayerCount: 2
Fore
SplineSet
164 700 m 1
 312 700 l 1
 192 0 l 1
 46 0 l 1
 164 700 l 1
282 0 m 2
 135 0 l 1
 159 132 l 1
 292 132 l 2
 420 132 526 211 549 350 c 0
 570 483 500 568 375 568 c 2
 232 568 l 1
 256 700 l 1
 393 700 l 2
 604 700 726 550 696 350 c 0
 664 143 498 0 282 0 c 2
EndSplineSet
EndChar

StartChar: Q
Encoding: 81 81 11
Width: 817
VWidth: 0
Flags: HMW
LayerCount: 2
Fore
SplineSet
217 350 m 0
 198 226 262 113 393 112 c 0
 523 111 625 212 647 337 c 0
 667 457 609 578 472 579 c 0
 342 580 238 475 217 350 c 0
66 350 m 0
 97 554 276 714 487 714 c 0
 695 714 816 546 788 350 c 0
 757 146 584 -19 370 -19 c 0
 160 -19 37 153 66 350 c 0
379 300 m 1
 526 300 l 1
 790 -9 l 1
 639 -9 l 1
 379 300 l 1
EndSplineSet
EndChar

StartChar: A
Encoding: 65 65 12
Width: 691
VWidth: 0
Flags: HMW
LayerCount: 2
Fore
SplineSet
167 157 m 1
 203 271 l 1
 532 271 l 1
 528 157 l 1
 167 157 l 1
400 471 m 1
 260 230 l 1
 258 198 l 1
 135 0 l 1
 -30 0 l 1
 445 744 l 1
 664 0 l 1
 506 0 l 1
 454 192 l 1
 460 228 l 1
 400 471 l 1
EndSplineSet
EndChar

StartChar: R
Encoding: 82 82 13
Width: 603
VWidth: 0
Flags: HMW
LayerCount: 2
Fore
SplineSet
258 325 m 1
 405 325 l 1
 570 0 l 1
 406 0 l 1
 258 325 l 1
164 700 m 1
 308 700 l 1
 188 0 l 1
 46 0 l 1
 164 700 l 1
230 576 m 1
 251 700 l 1
 391 700 l 2
 539 700 631 610 613 476 c 0
 594 340 476 253 323 253 c 2
 174 253 l 1
 195 368 l 1
 326 368 l 2
 396 368 454 407 466 472 c 0
 477 535 436 576 369 576 c 2
 230 576 l 1
EndSplineSet
EndChar

StartChar: V
Encoding: 86 86 14
Width: 691
VWidth: 0
Flags: HMW
LayerCount: 2
Fore
SplineSet
365 249 m 1
 617 700 l 1
 785 700 l 1
 323 -44 l 1
 92 700 l 1
 254 700 l 1
 365 249 l 1
EndSplineSet
EndChar

StartChar: M
Encoding: 77 77 15
Width: 842
VWidth: 0
Flags: HMW
LayerCount: 2
Fore
SplineSet
267 389 m 1
 156 0 l 1
 5 0 l 1
 234 735 l 1
 440 287 l 1
 806 740 l 1
 781 0 l 1
 632 0 l 1
 655 384 l 1
 407 64 l 1
 267 389 l 1
EndSplineSet
EndChar

StartChar: W
Encoding: 87 87 16
Width: 1012
VWidth: 0
Flags: HMW
LayerCount: 2
Fore
SplineSet
720 256 m 1
 930 700 l 1
 1101 700 l 1
 698 -41 l 1
 555 415 l 1
 269 -42 l 1
 96 700 l 1
 262 700 l 1
 334 257 l 1
 602 737 l 1
 720 256 l 1
EndSplineSet
EndChar

StartChar: N
Encoding: 78 78 17
Width: 764
VWidth: 0
Flags: HMW
LayerCount: 2
Fore
SplineSet
647 700 m 1
 786 700 l 1
 660 -34 l 1
 258 431 l 1
 184 0 l 1
 45 0 l 1
 170 734 l 1
 572 269 l 1
 647 700 l 1
EndSplineSet
EndChar

StartChar: a
Encoding: 97 97 18
Width: 585
VWidth: 0
Flags: HMW
LayerCount: 2
Fore
SplineSet
452 460 m 1
 580 460 l 1
 500 0 l 1
 374 0 l 1
 452 460 l 1
43 230 m 0
 62 367 170 471 295 470 c 0
 419 469 467 355 451 230 c 0
 433 99 345 -10 222 -10 c 0
 97 -10 26 99 43 230 c 0
177 230 m 0
 167 161 201 100 270 99 c 0
 334 98 398 157 410 230 c 0
 420 298 384 359 322 361 c 0
 252 363 189 303 177 230 c 0
EndSplineSet
Substitution2: "alt a" a.alt
EndChar

StartChar: X
Encoding: 88 88 19
Width: 628
VWidth: 0
Flags: HMW
LayerCount: 2
Fore
SplineSet
525 700 m 1
 703 700 l 1
 438 358 l 1
 606 0 l 1
 435 0 l 1
 340 248 l 1
 163 0 l 1
 -15 0 l 1
 274 364 l 1
 121 700 l 1
 292 700 l 1
 373 483 l 1
 525 700 l 1
EndSplineSet
EndChar

StartChar: K
Encoding: 75 75 20
Width: 641
VWidth: 0
Flags: HMW
LayerCount: 2
Fore
SplineSet
164 700 m 1
 313 700 l 1
 192 0 l 1
 46 0 l 1
 164 700 l 1
548 700 m 1
 723 700 l 1
 381 369 l 1
 612 0 l 1
 444 0 l 1
 213 371 l 1
 548 700 l 1
EndSplineSet
EndChar

StartChar: Y
Encoding: 89 89 21
Width: 612
VWidth: 0
Flags: HMW
LayerCount: 2
Fore
SplineSet
541 700 m 1
 708 700 l 1
 401 286 l 1
 352 0 l 1
 207 0 l 1
 258 293 l 1
 94 700 l 1
 254 700 l 1
 349 422 l 1
 541 700 l 1
EndSplineSet
EndChar

StartChar: B
Encoding: 66 66 22
Width: 614
VWidth: 0
Flags: HMW
LayerCount: 2
Fore
SplineSet
212 355 m 1
 223 420 l 1
 330 421 l 2
 387 421 436 451 445 504 c 0
 454 555 419 585 365 585 c 2
 289 585 l 1
 207 115 l 1
 291 115 l 2
 360 116 423 148 435 218 c 0
 446 283 398 314 333 315 c 2
 205 315 l 1
 219 394 l 1
 352 394 l 2
 477 393 597 334 578 199 c 0
 558 62 437 0 293 0 c 2
 45 0 l 1
 165 700 l 1
 390 700 l 2
 511 700 613 642 595 522 c 0
 577 410 464 356 339 355 c 2
 212 355 l 1
EndSplineSet
EndChar

StartChar: Z
Encoding: 90 90 23
Width: 580
VWidth: 0
Flags: HMW
LayerCount: 2
Fore
SplineSet
118 569 m 1
 141 700 l 1
 661 700 l 1
 232 127 l 1
 532 127 l 1
 509 0 l 1
 -20 0 l 1
 406 568 l 1
 118 569 l 1
EndSplineSet
EndChar

StartChar: o
Encoding: 111 111 24
Width: 559
VWidth: 0
Flags: HMW
LayerCount: 2
Fore
SplineSet
49 230 m 0
 67 369 188 470 331 470 c 0
 471 470 566 365 548 230 c 0
 530 91 408 -10 265 -10 c 0
 125 -10 31 95 49 230 c 0
181 230 m 0
 171 163 206 102 275 101 c 0
 345 100 405 159 416 230 c 0
 426 297 390 358 321 359 c 0
 251 360 192 301 181 230 c 0
EndSplineSet
EndChar

StartChar: J
Encoding: 74 74 25
Width: 294
VWidth: 0
Flags: HMW
LayerCount: 2
Fore
SplineSet
-112 -76 m 1
 -94 -95 -69 -110 -40 -109 c 0
 -2 -108 33 -75 40 -25 c 2
 165 700 l 1
 316 700 l 1
 188 -56 l 2
 169 -173 73 -234 -43 -233 c 0
 -107 -233 -164 -206 -203 -177 c 1
 -112 -76 l 1
EndSplineSet
EndChar

StartChar: t
Encoding: 116 116 26
Width: 286
VWidth: 0
Flags: HMW
LayerCount: 2
Fore
SplineSet
56 460 m 1
 336 460 l 1
 316 349 l 1
 36 349 l 1
 56 460 l 1
159 620 m 1
 285 620 l 1
 178 0 l 1
 54 0 l 1
 159 620 l 1
EndSplineSet
EndChar

StartChar: d
Encoding: 100 100 27
Width: 585
VWidth: 0
Flags: HMW
LayerCount: 2
Fore
SplineSet
504 780 m 1
 634 780 l 1
 500 0 l 1
 371 0 l 1
 504 780 l 1
43 230 m 0
 62 367 170 471 295 470 c 0
 419 469 467 355 451 230 c 0
 433 99 345 -10 222 -10 c 0
 97 -10 26 99 43 230 c 0
177 230 m 0
 167 161 201 100 270 99 c 0
 334 98 398 157 410 230 c 0
 420 298 384 359 322 361 c 0
 252 363 189 303 177 230 c 0
EndSplineSet
EndChar

StartChar: l
Encoding: 108 108 28
Width: 251
VWidth: 0
Flags: HMW
LayerCount: 2
Fore
SplineSet
167 780 m 1
 297 780 l 1
 163 0 l 1
 34 0 l 1
 167 780 l 1
EndSplineSet
EndChar

StartChar: i
Encoding: 105 105 29
Width: 263
VWidth: 0
Flags: HMW
LayerCount: 2
Fore
SplineSet
135 637 m 0
 135 680 171 711 214 711 c 0
 257 711 292 680 292 637 c 0
 292 594 257 563 214 563 c 0
 171 563 135 594 135 637 c 0
119 460 m 1
 247 460 l 1
 168 0 l 1
 42 0 l 1
 119 460 l 1
EndSplineSet
EndChar

StartChar: r
Encoding: 114 114 30
Width: 381
VWidth: 0
Flags: HMW
LayerCount: 2
Fore
SplineSet
240 460 m 1
 161 0 l 1
 33 0 l 1
 113 460 l 1
 240 460 l 1
351 324 m 1
 335 338 321 348 298 348 c 0
 245 349 211 297 202 243 c 1
 176 281 l 1
 193 375 266 470 346 471 c 0
 379 471 406 456 426 433 c 1
 351 324 l 1
EndSplineSet
EndChar

StartChar: c
Encoding: 99 99 31
Width: 474
VWidth: 0
Flags: HMW
LayerCount: 2
Fore
SplineSet
178 230 m 0
 167 158 210 100 283 98 c 0
 344 97 400 130 435 170 c 1
 417 36 l 1
 377 8 327 -10 265 -10 c 0
 123 -10 28 94 46 230 c 0
 65 369 186 470 331 470 c 0
 390 470 438 452 474 424 c 1
 456 290 l 1
 432 334 385 362 331 362 c 0
 254 362 190 303 178 230 c 0
EndSplineSet
EndChar

StartChar: b
Encoding: 98 98 32
Width: 585
VWidth: 0
Flags: HMW
LayerCount: 2
Fore
SplineSet
294 780 m 1
 160 0 l 1
 31 0 l 1
 164 780 l 1
 294 780 l 1
567 230 m 0
 548 93 439 -11 314 -10 c 0
 190 -9 143 105 159 230 c 0
 177 361 266 470 388 470 c 0
 513 470 584 361 567 230 c 0
433 230 m 0
 443 299 408 360 339 361 c 0
 275 362 212 303 200 230 c 0
 190 162 226 101 288 99 c 0
 358 97 421 157 433 230 c 0
EndSplineSet
EndChar

StartChar: p
Encoding: 112 112 33
Width: 585
VWidth: 0
Flags: HMW
LayerCount: 2
Fore
SplineSet
123 -220 m 1
 -7 -220 l 1
 110 460 l 1
 239 460 l 1
 123 -220 l 1
567 230 m 0
 548 91 440 -15 314 -14 c 0
 187 -13 147 106 163 230 c 0
 181 361 262 474 388 474 c 0
 514 474 584 364 567 230 c 0
433 230 m 0
 443 299 407 356 339 357 c 0
 276 358 211 303 200 230 c 0
 190 161 226 105 288 103 c 0
 358 101 422 158 433 230 c 0
EndSplineSet
EndChar

StartChar: q
Encoding: 113 113 34
Width: 585
VWidth: 0
Flags: HMW
LayerCount: 2
Fore
SplineSet
333 -220 m 1
 449 460 l 1
 579 460 l 1
 462 -220 l 1
 333 -220 l 1
43 230 m 0
 62 369 170 475 296 474 c 0
 423 473 463 354 447 230 c 0
 429 99 347 -14 221 -14 c 0
 95 -14 26 96 43 230 c 0
177 230 m 0
 167 161 203 104 271 103 c 0
 334 102 399 157 410 230 c 0
 420 299 384 355 322 357 c 0
 252 359 188 302 177 230 c 0
EndSplineSet
EndChar

StartChar: h
Encoding: 104 104 35
Width: 539
VWidth: 0
Flags: HMW
LayerCount: 2
Fore
SplineSet
297 780 m 1
 163 0 l 1
 33 0 l 1
 167 780 l 1
 297 780 l 1
372 280 m 2
 378 328 370 369 317 372 c 0
 262 375 223 330 211 281 c 1
 184 281 l 1
 203 382 264 475 374 475 c 0
 482 475 515 399 502 299 c 1
 451 0 l 1
 322 0 l 1
 372 280 l 2
EndSplineSet
EndChar

StartChar: n
Encoding: 110 110 36
Width: 543
VWidth: 0
Flags: HMW
LayerCount: 2
Fore
SplineSet
242 460 m 1
 163 0 l 1
 33 0 l 1
 113 460 l 1
 242 460 l 1
372 280 m 2
 378 328 370 369 317 372 c 0
 262 375 223 330 211 281 c 1
 183 277 l 1
 201 378 263 470 373 470 c 0
 480 470 520 394 506 294 c 1
 456 0 l 1
 322 0 l 1
 372 280 l 2
EndSplineSet
EndChar

StartChar: m
Encoding: 109 109 37
Width: 784
VWidth: 0
Flags: HMW
LayerCount: 2
Fore
SplineSet
348 280 m 2
 353 326 351 369 302 372 c 0
 251 375 217 329 206 281 c 1
 179 277 l 1
 197 377 256 469 362 470 c 0
 466 471 490 397 478 299 c 2
 427 0 l 1
 298 0 l 1
 348 280 l 2
238 460 m 1
 159 0 l 1
 33 0 l 1
 113 460 l 1
 238 460 l 1
747 294 m 2
 697 0 l 1
 567 0 l 1
 617 280 l 2
 622 326 619 369 570 372 c 0
 519 375 486 329 475 281 c 1
 427 277 l 1
 447 378 523 470 631 470 c 0
 736 470 759 392 747 294 c 2
EndSplineSet
EndChar

StartChar: k
Encoding: 107 107 38
Width: 521
VWidth: 0
Flags: HMW
LayerCount: 2
Fore
SplineSet
164 780 m 1
 290 780 l 1
 156 0 l 1
 31 0 l 1
 164 780 l 1
393 460 m 1
 554 460 l 1
 323 265 l 1
 489 0 l 1
 341 0 l 1
 173 274 l 1
 393 460 l 1
EndSplineSet
EndChar

StartChar: u
Encoding: 117 117 39
Width: 543
VWidth: 0
Flags: HMW
LayerCount: 2
Fore
SplineSet
326 0 m 1
 405 460 l 1
 535 460 l 1
 456 0 l 1
 326 0 l 1
197 180 m 1
 192 131 199 91 251 88 c 0
 306 85 345 130 357 179 c 1
 385 183 l 1
 367 82 305 -10 195 -10 c 0
 88 -10 50 65 62 166 c 1
 113 460 l 1
 246 460 l 1
 197 180 l 1
EndSplineSet
EndChar

StartChar: e
Encoding: 101 101 40
Width: 539
VWidth: 0
Flags: HMW
LayerCount: 2
Fore
SplineSet
119 201 m 1
 131 280 l 1
 397 280 l 1
 398 333 375 376 316 377 c 0
 247 378 198 323 185 255 c 1
 179 230 l 1
 169 152 196 92 268 90 c 0
 323 89 366 119 397 156 c 1
 508 119 l 1
 451 43 375 -11 259 -10 c 0
 113 -9 32 97 49 230 c 0
 51 247 55 263 60 279 c 0
 95 391 194 470 326 470 c 0
 471 470 542 371 527 236 c 0
 526 226 524 214 522 201 c 1
 119 201 l 1
EndSplineSet
EndChar

StartChar: g
Encoding: 103 103 41
Width: 581
VWidth: 0
Flags: HMW
LayerCount: 2
Fore
SplineSet
7 -32 m 1
 131 -33 l 1
 131 -90 161 -127 225 -128 c 0
 298 -129 360 -71 372 10 c 2
 449 460 l 1
 575 460 l 1
 498 10 l 2
 474 -143 367 -236 223 -236 c 0
 78 -236 3 -155 7 -32 c 1
43 235 m 0
 62 372 171 471 295 470 c 0
 418 469 468 359 452 234 c 0
 434 103 346 -1 224 -1 c 0
 100 -1 26 103 43 235 c 0
178 234 m 0
 168 165 204 109 272 108 c 0
 335 107 400 162 411 235 c 0
 421 304 384 360 322 361 c 0
 250 362 189 306 178 234 c 0
EndSplineSet
EndChar

StartChar: f
Encoding: 102 102 42
Width: 317
VWidth: 0
Flags: HMW
LayerCount: 2
Fore
SplineSet
74 460 m 1
 358 460 l 1
 339 349 l 1
 54 349 l 1
 74 460 l 1
378 649 m 1
 367 664 354 675 337 675 c 0
 303 675 282 641 276 600 c 2
 173 0 l 1
 47 0 l 1
 154 630 l 2
 170 726 235 795 338 794 c 0
 390 794 423 770 447 745 c 1
 378 649 l 1
EndSplineSet
EndChar

StartChar: s
Encoding: 115 115 43
Width: 427
VWidth: 0
Flags: HMW
LayerCount: 2
Fore
SplineSet
87 171 m 1
 131 120 174 84 217 85 c 0
 245 85 273 101 277 127 c 0
 283 167 234 184 194 200 c 0
 132 226 76 262 86 342 c 0
 97 426 175 470 264 470 c 0
 336 470 395 437 439 394 c 1
 373 314 l 1
 345 346 306 374 267 374 c 0
 238 374 209 362 205 338 c 0
 198 299 262 287 302 270 c 0
 364 244 415 202 407 128 c 0
 396 31 322 -16 223 -16 c 0
 134 -16 66 30 16 90 c 1
 87 171 l 1
EndSplineSet
EndChar

StartChar: y
Encoding: 121 121 44
Width: 482
VWidth: 0
Flags: HMW
LayerCount: 2
Fore
SplineSet
544 460 m 1
 136 -220 l 1
 0 -220 l 1
 162 49 l 1
 46 460 l 1
 184 460 l 1
 267 93 l 1
 202 96 l 1
 406 460 l 1
 544 460 l 1
EndSplineSet
EndChar

StartChar: w
Encoding: 119 119 45
Width: 715
VWidth: 0
Flags: HMW
LayerCount: 2
Fore
SplineSet
49 460 m 1
 182 460 l 1
 236 210 l 1
 412 497 l 1
 492 208 l 1
 634 460 l 1
 775 460 l 1
 468 -33 l 1
 375 258 l 1
 184 -33 l 1
 49 460 l 1
EndSplineSet
EndChar

StartChar: v
Encoding: 118 118 46
Width: 486
VWidth: 0
Flags: HMW
LayerCount: 2
Fore
SplineSet
52 460 m 1
 189 460 l 1
 255 188 l 1
 405 460 l 1
 546 460 l 1
 220 -50 l 1
 52 460 l 1
EndSplineSet
EndChar

StartChar: x
Encoding: 120 120 47
Width: 484
VWidth: 0
Flags: HMW
LayerCount: 2
Fore
SplineSet
385 460 m 1
 533 460 l 1
 330 233 l 1
 467 0 l 1
 328 0 l 1
 249 147 l 1
 131 0 l 1
 -21 0 l 1
 195 243 l 1
 65 460 l 1
 207 460 l 1
 277 329 l 1
 385 460 l 1
EndSplineSet
EndChar

StartChar: z
Encoding: 122 122 48
Width: 489
VWidth: 0
Flags: HMW
LayerCount: 2
Fore
SplineSet
289 341 m 1
 82 341 l 1
 103 460 l 1
 530 460 l 1
 233 119 l 1
 442 119 l 1
 421 0 l 1
 -16 0 l 1
 289 341 l 1
EndSplineSet
EndChar

StartChar: j
Encoding: 106 106 49
Width: 257
VWidth: 0
Flags: HMW
LayerCount: 2
Fore
SplineSet
130 637 m 0
 130 680 165 711 208 711 c 0
 251 711 286 680 286 637 c 0
 286 594 251 563 208 563 c 0
 165 563 130 594 130 637 c 0
-73 -88 m 1
 -62 -104 -46 -114 -30 -114 c 0
 3 -115 24 -79 29 -39 c 2
 115 460 l 1
 241 460 l 1
 151 -69 l 2
 135 -165 74 -234 -29 -233 c 0
 -81 -233 -117 -209 -142 -184 c 1
 -73 -88 l 1
EndSplineSet
EndChar

StartChar: P
Encoding: 80 80 50
Width: 583
VWidth: 0
Flags: HMW
LayerCount: 2
Fore
SplineSet
164 700 m 1
 308 700 l 1
 188 0 l 1
 46 0 l 1
 164 700 l 1
230 578 m 1
 251 700 l 1
 382 700 l 1
 531 699 622 613 605 476 c 0
 588 336 468 254 315 253 c 1
 174 253 l 1
 196 376 l 1
 327 376 l 1
 397 377 454 412 466 477 c 0
 477 540 436 578 369 578 c 2
 230 578 l 1
EndSplineSet
EndChar

StartChar: U
Encoding: 85 85 51
Width: 658
VWidth: 0
Flags: HMW
LayerCount: 2
Fore
SplineSet
160 700 m 1
 303 700 l 1
 223 239 l 2
 214 170 238 109 317 108 c 0
 403 107 449 166 462 239 c 1
 542 700 l 1
 685 700 l 1
 605 230 l 2
 580 76 466 -23 303 -23 c 0
 152 -23 58 79 80 230 c 1
 160 700 l 1
EndSplineSet
EndChar

StartChar: S
Encoding: 83 83 52
Width: 584
VWidth: 0
Flags: HMW
LayerCount: 2
Fore
SplineSet
149 244 m 1
 179 169 215 110 293 110 c 0
 350 110 393 140 403 191 c 0
 416 258 346 285 282 312 c 0
 205 346 118 404 133 522 c 0
 151 639 263 714 394 714 c 0
 510 714 576 645 607 561 c 1
 490 497 l 1
 468 547 434 588 376 588 c 0
 327 588 287 559 279 517 c 0
 267 459 351 433 413 408 c 0
 502 371 567 303 553 194 c 0
 534 62 417 -19 280 -19 c 0
 159 -19 68 63 36 173 c 1
 149 244 l 1
EndSplineSet
EndChar

StartChar: at
Encoding: 64 64 53
Width: 747
VWidth: 0
Flags: HMW
LayerCount: 2
Fore
SplineSet
320 320 m 0
 315 283 324 249 359 246 c 0
 405 241 459 305 466 366 c 0
 470 404 460 437 425 439 c 0
 376 443 327 375 320 320 c 0
214 314 m 0
 228 430 318 532 413 530 c 0
 493 528 519 443 510 370 c 0
 497 254 419 155 321 156 c 0
 237 157 204 230 214 314 c 0
49 320 m 0
 82 535 266 720 494 719 c 0
 694 718 791 552 765 390 c 0
 748 248 651 142 543 146 c 0
 473 148 448 204 458 266 c 1
 450 288 l 1
 515 520 l 1
 618 520 l 1
 550 302 l 2
 548 294 545 284 544 275 c 0
 542 256 542 237 563 234 c 0
 604 224 660 310 667 390 c 0
 687 510 635 628 487 629 c 0
 309 630 176 488 148 320 c 0
 126 181 188 71 343 69 c 0
 413 68 475 86 537 115 c 1
 562 33 l 1
 495 -1 421 -21 328 -21 c 0
 118 -19 21 133 49 320 c 0
EndSplineSet
EndChar

StartChar: period
Encoding: 46 46 54
Width: 306
VWidth: 0
Flags: HMW
LayerCount: 2
Fore
SplineSet
56 60 m 0
 56 105 91 141 139 141 c 0
 187 141 221 105 221 60 c 0
 221 15 187 -21 139 -21 c 0
 91 -21 56 15 56 60 c 0
EndSplineSet
EndChar

StartChar: comma
Encoding: 44 44 55
Width: 309
VWidth: 0
Flags: HMW
LayerCount: 2
Fore
SplineSet
113 109 m 1
 240 76 l 1
 80 -171 l 1
 -16 -148 l 1
 113 109 l 1
EndSplineSet
EndChar

StartChar: colon
Encoding: 58 58 56
Width: 306
VWidth: 0
Flags: HMW
LayerCount: 2
Fore
SplineSet
54 60 m 0
 54 105 88 141 136 141 c 0
 184 141 219 105 219 60 c 0
 219 15 184 -21 136 -21 c 0
 88 -21 54 15 54 60 c 0
118 435 m 0
 118 480 152 517 200 517 c 0
 248 517 283 480 283 435 c 0
 283 390 248 354 200 354 c 0
 152 354 118 390 118 435 c 0
EndSplineSet
EndChar

StartChar: semicolon
Encoding: 59 59 57
Width: 363
VWidth: 0
Flags: HMW
LayerCount: 2
Fore
SplineSet
161 431 m 0
 161 476 196 512 244 512 c 0
 292 512 327 476 327 431 c 0
 327 386 292 349 244 349 c 0
 196 349 161 386 161 431 c 0
129 109 m 1
 255 76 l 1
 95 -171 l 1
 -1 -148 l 1
 129 109 l 1
EndSplineSet
EndChar

StartChar: quotedbl
Encoding: 34 34 58
Width: 487
VWidth: 0
Flags: HMW
LayerCount: 2
Fore
SplineSet
198 700 m 1
 340 700 l 1
 193 387 l 1
 105 387 l 1
 198 700 l 1
394 700 m 1
 536 700 l 1
 389 387 l 1
 302 387 l 1
 394 700 l 1
EndSplineSet
EndChar

StartChar: exclam
Encoding: 33 33 59
Width: 321
VWidth: 0
Flags: HMW
LayerCount: 2
Fore
SplineSet
173 700 m 1
 333 700 l 1
 224 223 l 1
 120 223 l 1
 173 700 l 1
61 56 m 0
 61 101 96 133 144 133 c 0
 192 133 227 101 227 56 c 0
 227 11 192 -22 144 -22 c 0
 96 -22 61 11 61 56 c 0
EndSplineSet
EndChar

StartChar: quotesingle
Encoding: 39 39 60
Width: 291
VWidth: 0
Flags: HMW
LayerCount: 2
Fore
SplineSet
198 700 m 1
 340 700 l 1
 193 387 l 1
 105 387 l 1
 198 700 l 1
EndSplineSet
EndChar

StartChar: numbersign
Encoding: 35 35 61
Width: 630
VWidth: 0
Flags: HMW
LayerCount: 2
Fore
SplineSet
118 420 m 1
 134 525 l 1
 660 525 l 1
 642 420 l 1
 499 420 l 1
 476 424 l 1
 281 424 l 1
 258 420 l 1
 118 420 l 1
37 180 m 1
 54 285 l 1
 185 285 l 1
 211 281 l 1
 426 281 l 1
 453 285 l 1
 580 285 l 1
 562 180 l 1
 37 180 l 1
544 700 m 1
 662 700 l 1
 376 0 l 1
 260 0 l 1
 352 225 l 1
 366 248 l 1
 451 458 l 1
 457 484 l 1
 544 700 l 1
319 700 m 1
 436 700 l 1
 348 486 l 1
 333 459 l 1
 247 249 l 1
 243 226 l 1
 150 0 l 1
 35 0 l 1
 319 700 l 1
EndSplineSet
EndChar

StartChar: hyphen
Encoding: 45 45 62
Width: 211
VWidth: 0
Flags: HMW
LayerCount: 2
Fore
SplineSet
8 180 m 1
 27 295 l 1
 233 295 l 1
 213 180 l 1
 8 180 l 1
EndSplineSet
EndChar

StartChar: dollar
Encoding: 36 36 63
Width: 590
VWidth: 0
Flags: HMW
LayerCount: 2
Fore
SplineSet
362 818 m 1
 470 818 l 1
 438 646 l 1
 339 646 l 1
 362 818 l 1
249 58 m 1
 348 58 l 1
 325 -112 l 1
 218 -112 l 1
 249 58 l 1
495 496 m 1
 473 549 444 596 386 597 c 0
 332 598 293 569 285 525 c 0
 273 459 355 435 420 408 c 0
 508 372 577 303 564 194 c 0
 546 66 433 -11 290 -10 c 0
 171 -9 83 71 47 173 c 1
 159 244 l 1
 190 168 228 110 306 110 c 0
 364 110 406 140 414 191 c 0
 425 257 355 286 290 313 c 0
 212 347 125 411 139 527 c 0
 155 634 268 710 392 710 c 0
 510 710 577 644 611 561 c 1
 495 496 l 1
EndSplineSet
EndChar

StartChar: bar
Encoding: 124 124 64
Width: 319
VWidth: 0
Flags: HMW
LayerCount: 2
Fore
SplineSet
200 785 m 1
 328 785 l 1
 174 -215 l 1
 46 -215 l 1
 200 785 l 1
EndSplineSet
EndChar

StartChar: zero
Encoding: 48 48 65
Width: 625
VWidth: 0
Flags: HMW
LayerCount: 2
Fore
SplineSet
209 350 m 0
 198 248 202 117 301 115 c 0
 401 113 466 235 482 350 c 0
 493 452 489 583 390 585 c 0
 290 587 225 465 209 350 c 0
70 350 m 0
 97 544 222 712 403 712 c 0
 588 712 644 532 621 350 c 0
 594 156 471 -12 288 -12 c 0
 106 -12 47 168 70 350 c 0
EndSplineSet
Substitution2: "Tabular Numbers lookup" uniFF10
EndChar

StartChar: one
Encoding: 49 49 66
Width: 476
VWidth: 0
Flags: HMW
LayerCount: 2
Fore
SplineSet
128 515 m 1
 151 647 l 1
 465 713 l 1
 342 0 l 1
 204 0 l 1
 299 558 l 1
 128 515 l 1
EndSplineSet
Substitution2: "Tabular Numbers lookup" uniFF11
EndChar

StartChar: two
Encoding: 50 50 67
Width: 612
VWidth: 0
Flags: HMW
LayerCount: 2
Fore
SplineSet
-0 0 m 1
 358 332 l 2
 409 381 459 427 468 488 c 0
 475 537 445 585 383 586 c 0
 307 588 260 520 246 447 c 1
 105 447 l 1
 129 592 232 713 398 713 c 0
 542 713 633 607 616 496 c 0
 605 419 554 354 493 303 c 2
 292 134 l 1
 573 133 l 1
 552 0 l 1
 -0 0 l 1
EndSplineSet
Substitution2: "Tabular Numbers lookup" uniFF12
EndChar

StartChar: four
Encoding: 52 52 68
Width: 645
VWidth: 0
Flags: HMW
LayerCount: 2
Fore
SplineSet
8 130 m 1
 494 699 l 1
 595 700 l 1
 475 0 l 1
 327 0 l 1
 357 176 l 1
 372 187 l 1
 420 464 l 1
 226 238 l 1
 462 237 l 1
 481 253 l 1
 626 253 l 1
 604 129 l 1
 8 130 l 1
EndSplineSet
Substitution2: "Tabular Numbers lookup" uniFF14
EndChar

StartChar: slash
Encoding: 47 47 69
Width: 563
VWidth: 0
Flags: HMW
LayerCount: 2
Fore
SplineSet
516 700 m 1
 646 700 l 1
 91 -150 l 1
 -40 -149 l 1
 516 700 l 1
EndSplineSet
EndChar

StartChar: backslash
Encoding: 92 92 70
Width: 520
VWidth: 0
Flags: HMW
LayerCount: 2
Fore
SplineSet
107 700 m 1
 232 700 l 1
 479 0 l 1
 355 0 l 1
 107 700 l 1
EndSplineSet
EndChar

StartChar: eight
Encoding: 56 56 71
Width: 585
VWidth: 0
Flags: HMW
LayerCount: 2
Fore
SplineSet
138 532 m 0
 155 644 265 714 383 714 c 0
 497 714 591 641 575 530 c 0
 558 413 443 346 329 346 c 0
 218 346 121 416 138 532 c 0
269 516 m 0
 262 470 288 429 336 428 c 0
 387 427 431 469 439 517 c 0
 446 563 421 605 372 606 c 0
 319 607 277 564 269 516 c 0
56 190 m 0
 75 323 209 394 329 394 c 0
 445 394 559 322 541 190 c 0
 522 68 397 -14 268 -14 c 0
 144 -14 38 69 56 190 c 0
199 211 m 0
 190 153 223 107 280 106 c 0
 340 105 395 151 405 212 c 0
 413 264 379 313 323 314 c 0
 264 315 209 266 199 211 c 0
EndSplineSet
Substitution2: "Tabular Numbers lookup" uniFF18
EndChar

StartChar: nine
Encoding: 57 57 72
Width: 622
VWidth: 0
Flags: HMW
LayerCount: 2
Fore
SplineSet
490 459 m 0
 500 528 461 588 389 589 c 0
 315 590 252 532 241 459 c 0
 231 390 269 328 342 327 c 0
 416 326 479 386 490 459 c 0
288 2 m 1
 103 2 l 1
 362 264 l 1
 392 273 l 1
 357 244 323 232 278 232 c 0
 163 233 87 338 101 459 c 0
 120 613 251 714 401 714 c 0
 549 714 649 610 630 459 c 0
 620 389 581 329 535 278 c 2
 288 2 l 1
EndSplineSet
Substitution2: "Tabular Numbers lookup" uniFF19
EndChar

StartChar: three
Encoding: 51 51 73
Width: 581
VWidth: 0
Flags: HMW
LayerCount: 2
Fore
SplineSet
296 341 m 1
 305 410 l 1
 376 415 442 451 451 512 c 0
 457 556 435 592 383 593 c 0
 326 594 285 552 272 504 c 1
 139 505 l 1
 161 623 258 712 393 712 c 0
 521 712 610 630 594 520 c 0
 575 394 436 344 296 341 c 1
283 -14 m 0
 136 -14 53 88 63 212 c 1
 203 211 l 1
 200 149 233 107 298 106 c 0
 360 105 414 143 423 204 c 0
 436 276 372 308 292 312 c 1
 302 388 l 1
 447 385 582 334 562 189 c 0
 545 64 426 -14 283 -14 c 0
EndSplineSet
Substitution2: "Tabular Numbers lookup" uniFF13
EndChar

StartChar: five
Encoding: 53 53 74
Width: 603
VWidth: 0
Flags: HMW
LayerCount: 2
Fore
SplineSet
583 225 m 0
 563 73 426 -12 286 -12 c 0
 172 -12 93 34 35 96 c 1
 115 208 l 1
 155 159 211 121 273 121 c 0
 354 121 421 165 432 239 c 0
 442 310 386 352 316 354 c 0
 252 356 186 338 119 306 c 1
 271 700 l 1
 646 700 l 1
 626 574 l 1
 360 574 l 1
 293 432 l 1
 329 448 368 456 408 456 c 0
 528 455 598 350 583 225 c 0
EndSplineSet
Substitution2: "Tabular Numbers lookup" uniFF15
EndChar

StartChar: six
Encoding: 54 54 75
Width: 622
VWidth: 0
Flags: HMW
LayerCount: 2
Fore
SplineSet
207 241 m 0
 197 172 236 112 308 111 c 0
 382 110 446 168 457 241 c 0
 467 310 429 372 356 373 c 0
 282 374 218 314 207 241 c 0
410 697 m 1
 595 697 l 1
 335 436 l 1
 305 427 l 1
 340 456 374 468 419 468 c 0
 534 467 610 362 596 241 c 0
 577 87 446 -14 296 -14 c 0
 148 -14 48 90 67 241 c 0
 77 311 116 371 162 422 c 2
 410 697 l 1
EndSplineSet
Substitution2: "Tabular Numbers lookup" uniFF16
EndChar

StartChar: seven
Encoding: 55 55 76
Width: 562
VWidth: 0
Flags: HMW
LayerCount: 2
Fore
SplineSet
97 564 m 1
 119 700 l 1
 654 700 l 1
 218 0 l 1
 62 0 l 1
 421 564 l 1
 97 564 l 1
EndSplineSet
Substitution2: "Tabular Numbers lookup" uniFF17
EndChar

StartChar: plus
Encoding: 43 43 77
Width: 637
VWidth: 0
Flags: HMW
LayerCount: 2
Fore
SplineSet
70 202 m 1
 91 328 l 1
 605 328 l 1
 583 202 l 1
 70 202 l 1
315 529 m 1
 450 529 l 1
 358 1 l 1
 225 1 l 1
 315 529 l 1
EndSplineSet
EndChar

StartChar: equal
Encoding: 61 61 78
Width: 604
VWidth: 0
Flags: HMW
LayerCount: 2
Fore
SplineSet
46 100 m 1
 66 215 l 1
 559 215 l 1
 539 100 l 1
 46 100 l 1
78 290 m 1
 98 405 l 1
 592 405 l 1
 572 290 l 1
 78 290 l 1
EndSplineSet
EndChar

StartChar: percent
Encoding: 37 37 79
Width: 844
VWidth: 0
Flags: HMW
LayerCount: 2
Fore
SplineSet
89 539 m 0
 103 635 189 716 291 716 c 0
 392 716 454 631 441 538 c 0
 427 442 341 362 239 362 c 0
 138 362 76 446 89 539 c 0
196 538 m 0
 191 503 210 466 252 465 c 0
 293 464 328 502 334 540 c 0
 339 575 321 612 279 613 c 0
 238 614 202 576 196 538 c 0
470 162 m 0
 484 258 570 339 672 339 c 0
 773 339 834 254 821 161 c 0
 807 65 721 -16 619 -16 c 0
 518 -16 457 69 470 162 c 0
577 161 m 0
 572 126 591 89 631 88 c 0
 672 87 708 122 715 162 c 0
 720 197 700 235 660 236 c 0
 619 237 584 201 577 161 c 0
696 700 m 1
 832 700 l 1
 214 0 l 1
 80 0 l 1
 696 700 l 1
EndSplineSet
EndChar

StartChar: ampersand
Encoding: 38 38 80
Width: 708
VWidth: 0
Flags: HMW
LayerCount: 2
Fore
SplineSet
259 375 m 2
 222 426 178 479 186 548 c 0
 199 643 294 715 406 715 c 0
 514 715 584 638 572 549 c 0
 559 458 478 407 384 351 c 0
 312 310 200 285 186 197 c 0
 177 141 218 103 281 101 c 0
 412 96 531 225 619 333 c 1
 701 266 l 1
 593 137 446 -14 255 -12 c 0
 135 -11 33 65 49 186 c 0
 68 332 224 376 316 419 c 0
 379 450 443 490 451 540 c 0
 455 574 436 607 393 608 c 0
 350 609 317 578 311 540 c 0
 303 495 340 454 376 407 c 2
 672 0 l 1
 530 0 l 1
 259 375 l 2
EndSplineSet
EndChar

StartChar: question
Encoding: 63 63 81
Width: 588
VWidth: 0
Flags: HMW
LayerCount: 2
Fore
SplineSet
465 500 m 0
 475 562 436 602 367 603 c 0
 302 604 245 566 203 518 c 1
 122 592 l 1
 193 665 275 717 388 716 c 0
 513 715 612 626 594 500 c 0
 575 380 465 306 353 286 c 1
 331 193 l 1
 226 193 l 1
 235 369 l 1
 264 369 l 1
 365 371 450 429 465 500 c 0
171 54 m 0
 171 95 207 128 253 128 c 0
 299 128 334 94 334 54 c 0
 334 13 299 -21 253 -21 c 0
 207 -21 171 13 171 54 c 0
EndSplineSet
EndChar

StartChar: parenleft
Encoding: 40 40 82
Width: 321
VWidth: 0
Flags: HMW
LayerCount: 2
Fore
SplineSet
288 779 m 1
 407 779 l 1
 320 629 257 463 229 290 c 0
 204 126 211 -42 258 -200 c 1
 142 -200 l 1
 87 -43 75 125 99 290 c 0
 126 464 190 632 288 779 c 1
EndSplineSet
EndChar

StartChar: parenright
Encoding: 41 41 83
Width: 321
VWidth: 0
Flags: HMW
LayerCount: 2
Fore
SplineSet
89 -199 m 1
 -30 -199 l 1
 57 -49 120 117 148 290 c 0
 173 454 167 622 120 780 c 1
 236 780 l 1
 291 623 303 455 279 290 c 0
 252 116 187 -52 89 -199 c 1
EndSplineSet
EndChar

StartChar: asterisk
Encoding: 42 42 84
Width: 574
VWidth: 0
Flags: HMW
LayerCount: 2
Fore
SplineSet
550 602 m 1
 568 488 l 1
 346 444 l 1
 336 510 l 1
 550 602 l 1
492 328 m 1
 386 259 l 1
 312 459 l 1
 368 496 l 1
 492 328 l 1
227 261 m 1
 141 333 l 1
 316 495 l 1
 365 454 l 1
 227 261 l 1
119 490 m 1
 172 601 l 1
 359 506 l 1
 328 445 l 1
 119 490 l 1
320 700 m 1
 439 700 l 1
 375 477 l 1
 309 476 l 1
 320 700 l 1
EndSplineSet
EndChar

StartChar: less
Encoding: 60 60 85
Width: 621
VWidth: 0
Flags: HMW
LayerCount: 2
Fore
SplineSet
267 262 m 1
 555 128 l 1
 533 5 l 1
 73 221 l 1
 87 305 l 1
 623 522 l 1
 599 388 l 1
 267 262 l 1
EndSplineSet
EndChar

StartChar: greater
Encoding: 62 62 86
Width: 621
VWidth: 0
Flags: HMW
LayerCount: 2
Fore
SplineSet
389 262 m 1
 102 396 l 1
 123 519 l 1
 583 303 l 1
 569 219 l 1
 34 2 l 1
 57 136 l 1
 389 262 l 1
EndSplineSet
EndChar

StartChar: bracketleft
Encoding: 91 91 87
Width: 334
VWidth: 0
Flags: HMW
LayerCount: 2
Fore
SplineSet
304 665 m 1
 185 -105 l 1
 283 -105 l 1
 265 -220 l 1
 38 -220 l 1
 193 780 l 1
 419 780 l 1
 401 665 l 1
 304 665 l 1
EndSplineSet
EndChar

StartChar: bracketright
Encoding: 93 93 88
Width: 334
VWidth: 0
Flags: HMW
LayerCount: 2
Fore
SplineSet
83 -105 m 1
 202 665 l 1
 103 665 l 1
 122 780 l 1
 348 780 l 1
 194 -220 l 1
 -33 -220 l 1
 -15 -105 l 1
 83 -105 l 1
EndSplineSet
EndChar

StartChar: asciicircum
Encoding: 94 94 89
Width: 494
VWidth: 0
Flags: HMW
LayerCount: 2
Fore
SplineSet
324 590 m 1
 215 452 l 1
 92 452 l 1
 302 710 l 1
 377 710 l 1
 498 451 l 1
 384 451 l 1
 324 590 l 1
EndSplineSet
EndChar

StartChar: underscore
Encoding: 95 95 90
Width: 506
VWidth: 0
Flags: HMW
LayerCount: 2
Fore
SplineSet
-53 -147 m 1
 -39 -64 l 1
 470 -64 l 1
 456 -147 l 1
 -53 -147 l 1
EndSplineSet
EndChar

StartChar: grave
Encoding: 96 96 91
Width: 363
VWidth: 0
Flags: HMW
LayerCount: 2
Fore
SplineSet
141 657 m 1
 247 705 l 1
 371 543 l 1
 296 506 l 1
 141 657 l 1
EndSplineSet
EndChar

StartChar: braceleft
Encoding: 123 123 92
Width: 361
VWidth: 0
Flags: HMW
LayerCount: 2
Fore
SplineSet
314 624 m 2
 293 490 l 2
 276 392 252 290 128 280 c 1
 130 300 l 1
 250 287 244 179 230 90 c 2
 209 -45 l 2
 205 -72 217 -94 247 -94 c 2
 283 -94 l 1
 267 -200 l 1
 189 -200 l 2
 115 -200 57 -146 68 -60 c 2
 98 132 l 2
 105 194 98 221 59 242 c 1
 73 338 l 1
 116 356 136 384 145 448 c 2
 175 640 l 2
 188 728 258 779 334 780 c 1
 418 780 l 1
 402 675 l 1
 369 675 l 2
 338 675 319 653 314 624 c 2
EndSplineSet
EndChar

StartChar: braceright
Encoding: 125 125 93
Width: 361
VWidth: 0
Flags: HMW
LayerCount: 2
Fore
SplineSet
108 -44 m 2
 129 90 l 2
 146 188 171 290 295 300 c 1
 292 280 l 1
 172 293 178 401 192 490 c 2
 213 625 l 2
 217 652 204 674 175 674 c 2
 140 674 l 1
 155 780 l 1
 233 780 l 2
 307 779 365 726 354 640 c 2
 324 448 l 2
 317 386 324 359 363 338 c 1
 349 242 l 1
 306 224 286 196 277 132 c 2
 248 -60 l 2
 235 -149 165 -199 89 -200 c 1
 4 -200 l 1
 20 -95 l 1
 53 -95 l 2
 84 -95 103 -73 108 -44 c 2
EndSplineSet
EndChar

StartChar: asciitilde
Encoding: 126 126 94
Width: 558
VWidth: 0
Flags: HMW
LayerCount: 2
Fore
SplineSet
158 167 m 1
 54 172 l 1
 53 180 53 189 54 197 c 0
 58 228 71 258 94 284 c 0
 124 318 166 340 220 340 c 0
 262 340 296 321 334 292 c 0
 356 275 377 258 397 258 c 0
 420 258 436 279 440 300 c 0
 442 310 441 322 439 332 c 1
 545 327 l 1
 546 318 547 308 546 298 c 0
 542 267 530 236 508 210 c 0
 480 178 444 159 398 159 c 0
 359 159 325 180 286 208 c 0
 261 226 237 243 212 242 c 0
 182 241 162 219 157 194 c 0
 155 184 157 175 158 167 c 1
EndSplineSet
EndChar

StartChar: exclamdown
Encoding: 161 161 95
Width: 321
VWidth: 0
Flags: HMW
LayerCount: 2
Fore
SplineSet
173 -234 m 1
 13 -234 l 1
 123 244 l 1
 227 244 l 1
 173 -234 l 1
285 410 m 0
 280 368 237 333 193 334 c 0
 148 335 117 369 122 412 c 0
 127 454 170 488 214 487 c 0
 259 486 290 453 285 410 c 0
EndSplineSet
EndChar

StartChar: cent
Encoding: 162 162 96
Width: 562
VWidth: 0
Flags: HMW
LayerCount: 2
Fore
SplineSet
220 38 m 1
 317 38 l 1
 297 -112 l 1
 187 -112 l 1
 220 38 l 1
200 230 m 0
 189 158 230 100 302 98 c 0
 365 97 419 132 455 170 c 1
 435 35 l 1
 395 7 342 -10 283 -10 c 0
 141 -10 48 94 68 230 c 0
 89 369 211 470 356 470 c 0
 413 470 463 453 499 424 c 1
 478 289 l 1
 455 332 414 362 355 362 c 0
 281 362 213 304 200 230 c 0
306 578 m 1
 416 578 l 1
 383 428 l 1
 286 428 l 1
 306 578 l 1
EndSplineSet
EndChar

StartChar: sterling
Encoding: 163 163 97
Width: 583
VWidth: 0
Flags: HMW
LayerCount: 2
Fore
SplineSet
100 370 m 1
 465 370 l 1
 448 277 l 1
 83 277 l 1
 100 370 l 1
481 471 m 1
 483 527 471 589 398 590 c 0
 345 591 295 558 285 502 c 0
 269 417 347 363 335 268 c 0
 319 160 208 77 120 51 c 1
 167 122 l 1
 512 122 l 1
 491 0 l 1
 26 0 l 1
 117 92 193 169 211 276 c 0
 224 365 139 417 151 521 c 0
 167 638 283 711 405 710 c 0
 536 709 605 610 602 514 c 1
 481 471 l 1
EndSplineSet
EndChar

StartChar: currency
Encoding: 164 164 98
Width: 560
VWidth: 0
Flags: HMW
LayerCount: 2
Fore
SplineSet
84 505 m 1
 150 562 l 1
 230 460 l 1
 167 406 l 1
 84 505 l 1
66 38 m 1
 16 101 l 1
 126 194 l 1
 175 134 l 1
 66 38 l 1
484 406 m 1
 433 467 l 1
 544 562 l 1
 594 501 l 1
 484 406 l 1
377 138 m 1
 443 194 l 1
 523 94 l 1
 460 39 l 1
 377 138 l 1
72 300 m 0
 91 432 206 540 341 540 c 0
 475 540 555 428 537 300 c 0
 518 168 404 60 268 60 c 0
 134 60 54 172 72 300 c 0
191 300 m 0
 181 238 214 181 281 180 c 0
 349 179 407 234 418 300 c 0
 428 362 395 419 328 420 c 0
 260 421 202 366 191 300 c 0
EndSplineSet
EndChar

StartChar: yen
Encoding: 165 165 99
Width: 623
VWidth: 0
Flags: HMW
LayerCount: 2
Fore
SplineSet
62 272 m 1
 78 365 l 1
 614 365 l 1
 598 272 l 1
 62 272 l 1
37 122 m 1
 53 215 l 1
 588 215 l 1
 572 122 l 1
 37 122 l 1
547 700 m 1
 713 700 l 1
 408 289 l 1
 358 0 l 1
 212 0 l 1
 264 294 l 1
 100 700 l 1
 259 700 l 1
 354 422 l 1
 547 700 l 1
EndSplineSet
EndChar

StartChar: brokenbar
Encoding: 166 166 100
Width: 319
VWidth: 0
Flags: HMW
LayerCount: 2
Fore
SplineSet
188 695 m 1
 316 695 l 1
 272 437 l 1
 143 437 l 1
 188 695 l 1
242 263 m 1
 198 5 l 1
 69 5 l 1
 114 263 l 1
 242 263 l 1
EndSplineSet
EndChar

StartChar: section
Encoding: 167 167 101
Width: 512
VWidth: 0
Flags: HMW
LayerCount: 2
Fore
SplineSet
435 558 m 1
 412 588 377 608 342 608 c 0
 314 608 281 597 278 574 c 0
 273 543 329 530 366 516 c 0
 432 493 485 444 476 375 c 0
 461 271 357 236 256 233 c 1
 263 272 l 1
 303 281 346 308 353 350 c 0
 362 402 302 421 257 441 c 0
 199 467 146 508 156 582 c 0
 169 670 261 719 346 719 c 0
 419 719 484 689 513 639 c 1
 435 558 l 1
114 169 m 1
 144 123 188 92 237 92 c 0
 271 92 303 107 308 134 c 0
 314 171 266 185 226 200 c 0
 160 223 95 267 105 342 c 0
 120 439 224 476 328 479 c 1
 323 445 l 1
 280 430 239 411 231 369 c 0
 221 310 289 295 334 275 c 0
 395 247 446 201 437 130 c 0
 424 31 326 -19 230 -19 c 0
 136 -19 68 26 34 90 c 1
 114 169 l 1
EndSplineSet
EndChar

StartChar: dieresis
Encoding: 168 168 102
Width: 484
VWidth: 0
Flags: HMW
LayerCount: 2
Fore
SplineSet
359 641 m 0
 363 681 404 715 445 714 c 0
 486 713 518 680 513 639 c 0
 509 599 468 565 427 566 c 0
 386 567 354 600 359 641 c 0
134 641 m 0
 138 681 180 715 221 714 c 0
 262 713 294 680 289 639 c 0
 285 599 243 565 202 566 c 0
 161 567 129 600 134 641 c 0
EndSplineSet
EndChar

StartChar: copyright
Encoding: 169 169 103
Width: 776
VWidth: 0
Flags: HMW
LayerCount: 2
Fore
SplineSet
304 350 m 0
 293 276 335 217 410 216 c 0
 466 215 510 242 545 272 c 1
 532 174 l 1
 494 148 455 132 400 132 c 0
 275 132 194 230 210 350 c 0
 226 474 333 567 460 568 c 0
 514 568 550 553 585 525 c 1
 572 428 l 1
 545 461 510 485 458 485 c 0
 382 485 316 427 304 350 c 0
130 350 m 0
 106 189 201 41 373 40 c 0
 548 39 694 181 720 350 c 0
 744 511 648 659 477 660 c 0
 303 661 156 519 130 350 c 0
74 350 m 0
 101 550 272 710 476 710 c 0
 677 710 800 543 775 350 c 0
 748 150 578 -10 374 -10 c 0
 173 -10 49 157 74 350 c 0
EndSplineSet
EndChar

StartChar: registered
Encoding: 174 174 104
Width: 776
VWidth: 0
Flags: HMW
LayerCount: 2
Fore
SplineSet
392 336 m 1
 472 336 l 1
 568 150 l 1
 469 150 l 1
 392 336 l 1
322 570 m 1
 408 570 l 1
 343 150 l 1
 257 150 l 1
 322 570 l 1
362 496 m 1
 373 570 l 1
 457 570 l 1
 544 568 604 518 594 440 c 0
 583 359 513 309 423 307 c 1
 332 307 l 1
 343 375 l 1
 422 375 l 1
 462 377 499 397 505 436 c 0
 510 473 484 494 446 496 c 1
 362 496 l 1
130 350 m 0
 106 189 201 41 373 40 c 0
 548 39 694 181 720 350 c 0
 744 511 648 659 477 660 c 0
 303 661 156 519 130 350 c 0
74 350 m 0
 101 550 272 710 476 710 c 0
 677 710 800 543 775 350 c 0
 748 150 578 -10 374 -10 c 0
 173 -10 49 157 74 350 c 0
EndSplineSet
EndChar

StartChar: ordfeminine
Encoding: 170 170 105
Width: 252
VWidth: 0
Flags: HMW
LayerCount: 2
Fore
SplineSet
145 530 m 0
 143 514 155 502 175 501 c 0
 206 500 231 521 240 552 c 1
 243 524 l 1
 231 484 199 455 151 456 c 0
 107 457 74 486 80 530 c 0
 87 576 137 606 187 606 c 0
 220 606 245 593 261 580 c 1
 256 548 l 1
 239 560 223 568 199 568 c 0
 175 568 148 551 145 530 c 0
143 631 m 1
 127 679 l 1
 154 691 188 705 226 705 c 0
 278 705 319 679 315 631 c 1
 286 460 l 1
 223 460 l 1
 252 618 l 1
 250 637 241 649 218 651 c 0
 189 653 160 639 143 631 c 1
EndSplineSet
EndChar

StartChar: ordmasculine
Encoding: 186 186 106
Width: 269
VWidth: 0
Flags: HMW
LayerCount: 2
Fore
SplineSet
89 581 m 0
 99 649 160 700 231 700 c 0
 301 700 349 647 340 579 c 0
 330 511 268 460 197 460 c 0
 127 460 80 513 89 581 c 0
155 580 m 0
 150 548 168 517 201 516 c 0
 235 515 268 546 273 580 c 0
 278 612 261 643 228 644 c 0
 194 645 160 614 155 580 c 0
EndSplineSet
EndChar

StartChar: guillemotleft
Encoding: 171 171 107
Width: 515
VWidth: 0
Flags: HMW
LayerCount: 2
Fore
SplineSet
341 257 m 1
 454 63 l 1
 367 6 l 1
 232 259 l 1
 448 503 l 1
 520 442 l 1
 341 257 l 1
156 257 m 1
 269 63 l 1
 182 6 l 1
 47 259 l 1
 262 503 l 1
 334 442 l 1
 156 257 l 1
EndSplineSet
EndChar

StartChar: guillemotright
Encoding: 187 187 108
Width: 515
VWidth: 0
Flags: HMW
LayerCount: 2
Fore
SplineSet
208 253 m 1
 95 447 l 1
 182 504 l 1
 317 251 l 1
 102 7 l 1
 29 68 l 1
 208 253 l 1
394 253 m 1
 281 447 l 1
 367 504 l 1
 503 251 l 1
 287 7 l 1
 215 68 l 1
 394 253 l 1
EndSplineSet
EndChar

StartChar: uni00AD
Encoding: 173 173 109
Width: 203
VWidth: 0
Flags: HMW
LayerCount: 2
Fore
SplineSet
12 200 m 1
 24 275 l 1
 221 275 l 1
 208 200 l 1
 12 200 l 1
EndSplineSet
EndChar

StartChar: logicalnot
Encoding: 172 172 110
Width: 622
VWidth: 0
Flags: HMW
LayerCount: 2
Fore
SplineSet
84 280 m 1
 103 395 l 1
 602 395 l 1
 563 175 l 1
 467 175 l 1
 487 280 l 1
 84 280 l 1
EndSplineSet
EndChar

StartChar: macron
Encoding: 175 175 111
Width: 509
VWidth: 0
Flags: HMW
LayerCount: 2
Fore
SplineSet
149 580 m 1
 167 695 l 1
 524 695 l 1
 506 580 l 1
 149 580 l 1
EndSplineSet
EndChar

StartChar: degree
Encoding: 176 176 112
Width: 281
VWidth: 0
Flags: HMW
LayerCount: 2
Fore
SplineSet
91 598 m 0
 101 666 162 720 233 720 c 0
 304 720 350 665 341 597 c 0
 331 529 269 476 198 476 c 0
 127 476 82 530 91 598 c 0
155 597 m 0
 150 564 168 534 202 533 c 0
 237 532 271 563 277 598 c 0
 282 631 264 662 230 663 c 0
 195 664 161 632 155 597 c 0
EndSplineSet
EndChar

StartChar: plusminus
Encoding: 177 177 113
Width: 608
VWidth: 0
Flags: HMW
LayerCount: 2
Fore
SplineSet
46 4 m 1
 64 120 l 1
 550 120 l 1
 532 4 l 1
 46 4 l 1
97 336 m 1
 116 456 l 1
 602 456 l 1
 583 336 l 1
 97 336 l 1
317 620 m 1
 450 620 l 1
 380 172 l 1
 249 173 l 1
 317 620 l 1
EndSplineSet
EndChar

StartChar: uni00B2
Encoding: 178 178 114
Width: 378
VWidth: 0
Flags: HMW
LayerCount: 2
Fore
SplineSet
43 283 m 1
 261 481 l 2
 292 510 324 538 330 575 c 0
 334 603 319 632 283 634 c 0
 237 637 207 594 197 551 c 1
 111 551 l 1
 129 636 191 711 291 710 c 0
 379 710 429 645 418 577 c 0
 411 531 380 494 344 464 c 2
 222 363 l 1
 389 362 l 1
 375 282 l 1
 43 283 l 1
EndSplineSet
EndChar

StartChar: uni00B3
Encoding: 179 179 115
Width: 338
VWidth: 0
Flags: HMW
LayerCount: 2
Fore
SplineSet
201 485 m 1
 208 526 l 1
 251 530 290 551 297 588 c 0
 301 614 287 635 257 636 c 0
 223 637 199 610 190 583 c 1
 108 584 l 1
 124 653 182 707 263 707 c 0
 340 707 393 657 382 591 c 0
 370 516 285 488 201 485 c 1
192 272 m 0
 102 272 56 333 60 407 c 1
 144 407 l 1
 144 371 160 345 199 344 c 0
 235 343 270 368 275 403 c 0
 283 447 244 464 197 467 c 1
 205 512 l 1
 292 509 373 480 360 393 c 0
 349 319 277 272 192 272 c 0
EndSplineSet
EndChar

StartChar: acute
Encoding: 180 180 116
Width: 363
VWidth: 0
Flags: HMW
LayerCount: 2
Fore
SplineSet
389 653 m 1
 193 506 l 1
 123 547 l 1
 291 704 l 1
 389 653 l 1
EndSplineSet
EndChar

StartChar: mu
Encoding: 181 181 117
Width: 543
VWidth: 0
Flags: HMW
LayerCount: 2
Fore
SplineSet
326 0 m 1
 405 460 l 1
 535 460 l 1
 456 0 l 1
 326 0 l 1
197 180 m 1
 192 131 199 91 251 88 c 0
 306 85 345 130 357 179 c 1
 390 183 l 1
 371 82 305 -10 195 -10 c 0
 88 -10 50 65 62 166 c 1
 113 460 l 1
 246 460 l 1
 197 180 l 1
112 460 m 1
 238 460 l 1
 104 -320 l 1
 -20 -320 l 1
 112 460 l 1
EndSplineSet
EndChar

StartChar: paragraph
Encoding: 182 182 118
Width: 624
VWidth: 0
Flags: HMW
LayerCount: 2
Fore
SplineSet
356 615 m 1
 371 700 l 1
 588 700 l 1
 574 615 l 1
 356 615 l 1
548 700 m 1
 661 700 l 1
 504 -220 l 1
 391 -220 l 1
 548 700 l 1
371 700 m 1
 484 700 l 1
 327 -220 l 1
 214 -220 l 1
 371 700 l 1
301 270 m 1
 179 276 94 356 113 486 c 0
 134 621 243 700 371 700 c 1
 301 270 l 1
EndSplineSet
EndChar

StartChar: periodcentered
Encoding: 183 183 119
Width: 306
VWidth: 0
Flags: HMW
LayerCount: 2
Fore
SplineSet
89 261 m 0
 94 303 137 342 182 341 c 0
 228 340 257 302 252 259 c 0
 247 217 204 178 159 179 c 0
 113 180 84 218 89 261 c 0
EndSplineSet
EndChar

StartChar: uni00B9
Encoding: 185 185 120
Width: 464
VWidth: 0
Flags: HMW
LayerCount: 2
Fore
SplineSet
206 583 m 1
 219 662 l 1
 409 702 l 1
 335 274 l 1
 251 274 l 1
 308 608 l 1
 206 583 l 1
EndSplineSet
EndChar

StartChar: cedilla
Encoding: 184 184 121
Width: 369
VWidth: 0
Flags: HMW
LayerCount: 2
Fore
SplineSet
163 67 m 1
 261 65 l 1
 160 -54 l 1
 168 -52 177 -51 186 -51 c 0
 229 -54 264 -90 258 -143 c 0
 250 -208 183 -245 123 -246 c 0
 75 -247 39 -233 1 -206 c 1
 49 -148 l 1
 70 -163 93 -172 115 -172 c 0
 142 -172 173 -158 175 -135 c 0
 177 -112 152 -102 128 -102 c 0
 110 -101 78 -108 50 -118 c 1
 163 67 l 1
EndSplineSet
EndChar

StartChar: questiondown
Encoding: 191 191 122
Width: 588
VWidth: 0
Flags: HMW
LayerCount: 2
Fore
SplineSet
189 200 m 0
 179 138 218 98 287 97 c 0
 352 96 409 134 451 182 c 1
 532 108 l 1
 461 35 379 -17 266 -16 c 0
 141 -15 42 74 60 200 c 0
 79 320 189 394 301 414 c 1
 323 507 l 1
 428 508 l 1
 419 331 l 1
 390 331 l 1
 289 329 204 271 189 200 c 0
481 646 m 0
 476 607 432 571 389 572 c 0
 345 573 313 608 318 648 c 0
 323 687 366 722 409 721 c 0
 453 720 486 686 481 646 c 0
EndSplineSet
EndChar

StartChar: multiply
Encoding: 215 215 123
Width: 578
VWidth: 0
Flags: HMW
LayerCount: 2
Fore
SplineSet
107 8 m 1
 39 95 l 1
 230 258 l 1
 94 422 l 1
 186 502 l 1
 316 334 l 1
 504 502 l 1
 573 415 l 1
 381 252 l 1
 517 88 l 1
 425 8 l 1
 295 176 l 1
 107 8 l 1
EndSplineSet
EndChar

StartChar: Oslash
Encoding: 216 216 124
Width: 766
VWidth: 0
Flags: HMW
LayerCount: 2
Fore
SplineSet
217 350 m 0
 198 231 254 122 383 121 c 0
 513 120 615 224 636 350 c 0
 655 469 599 578 470 579 c 0
 340 580 238 476 217 350 c 0
66 350 m 0
 97 554 273 714 485 714 c 0
 693 714 817 547 788 350 c 0
 757 146 581 -19 368 -19 c 0
 159 -19 37 153 66 350 c 0
772 754 m 1
 834 702 l 1
 76 -54 l 1
 16 -5 l 1
 772 754 l 1
EndSplineSet
EndChar

StartChar: Thorn
Encoding: 222 222 125
Width: 576
VWidth: 0
Flags: HMW
LayerCount: 2
Fore
SplineSet
168 700 m 1
 297 700 l 1
 177 0 l 1
 50 0 l 1
 168 700 l 1
204 456 m 1
 225 573 l 1
 356 573 l 1
 504 571 600 489 579 352 c 0
 558 213 443 133 290 131 c 1
 149 131 l 1
 170 249 l 1
 301 249 l 1
 376 251 437 281 450 352 c 0
 462 421 415 453 344 455 c 1
 204 456 l 1
EndSplineSet
EndChar

StartChar: divide
Encoding: 247 247 126
Width: 615
VWidth: 0
Flags: HMW
LayerCount: 2
Fore
SplineSet
288 524 m 0
 293 566 336 606 381 605 c 0
 427 604 456 565 451 522 c 0
 446 480 404 441 359 442 c 0
 313 443 283 481 288 524 c 0
214 91 m 0
 219 133 262 172 307 171 c 0
 353 170 382 132 377 89 c 0
 372 47 329 8 284 9 c 0
 238 10 209 48 214 91 c 0
49 250 m 1
 70 370 l 1
 618 370 l 1
 597 249 l 1
 49 250 l 1
EndSplineSet
EndChar

StartChar: oslash
Encoding: 248 248 127
Width: 529
VWidth: 0
Flags: HMW
LayerCount: 2
Fore
SplineSet
43 230 m 0
 64 371 186 470 329 470 c 0
 469 470 562 368 542 230 c 0
 521 89 398 -10 255 -10 c 0
 115 -10 23 92 43 230 c 0
166 230 m 0
 155 159 193 98 266 97 c 0
 340 96 406 155 418 230 c 0
 429 298 391 362 319 363 c 0
 245 364 179 303 166 230 c 0
493 504 m 1
 545 473 l 1
 79 -48 l 1
 28 -18 l 1
 493 504 l 1
EndSplineSet
EndChar

StartChar: circumflex
Encoding: 710 710 128
Width: 465
VWidth: 0
Flags: HMW
LayerCount: 2
Fore
SplineSet
317 633 m 1
 208 546 l 1
 128 610 l 1
 330 748 l 1
 491 606 l 1
 396 545 l 1
 317 633 l 1
EndSplineSet
EndChar

StartChar: ogonek
Encoding: 731 731 129
Width: 252
VWidth: 0
Flags: HMW
LayerCount: 2
Fore
SplineSet
152 -116 m 1
 176 -181 l 1
 154 -201 123 -220 78 -220 c 0
 13 -220 -33 -181 -25 -119 c 0
 -16 -50 62 -8 128 25 c 1
 167 0 l 1
 123 -25 76 -56 70 -96 c 0
 68 -119 77 -134 100 -136 c 0
 120 -138 138 -126 152 -116 c 1
EndSplineSet
EndChar

StartChar: tilde
Encoding: 732 732 130
Width: 514
VWidth: 0
Flags: HMW
LayerCount: 2
Fore
SplineSet
159 635 m 1
 179 681 224 726 282 724 c 0
 336 723 355 673 404 675 c 0
 431 676 452 700 473 726 c 1
 529 659 l 1
 504 622 454 577 397 579 c 0
 349 581 319 631 274 629 c 0
 240 627 227 597 219 579 c 1
 159 635 l 1
EndSplineSet
EndChar

StartChar: ring
Encoding: 730 730 131
Width: 303
VWidth: 0
Flags: HMW
LayerCount: 2
Fore
SplineSet
141 775 m 0
 149 837 209 884 272 884 c 0
 335 884 382 836 373 773 c 0
 365 710 304 663 241 663 c 0
 178 663 132 713 141 775 c 0
210 773 m 0
 207 749 223 726 246 725 c 0
 270 723 300 749 303 775 c 0
 306 799 290 822 267 823 c 0
 243 825 213 799 210 773 c 0
EndSplineSet
EndChar

StartChar: dotaccent
Encoding: 729 729 132
Width: 291
VWidth: 0
Flags: HMW
LayerCount: 2
Fore
SplineSet
179 808 m 0
 184 848 225 881 266 880 c 0
 307 879 338 846 333 805 c 0
 328 765 287 732 246 733 c 0
 205 734 174 767 179 808 c 0
EndSplineSet
EndChar

StartChar: uni2010
Encoding: 8208 8208 133
Width: 211
VWidth: 0
Flags: HMW
LayerCount: 2
Fore
SplineSet
8 180 m 1
 27 295 l 1
 233 295 l 1
 213 180 l 1
 8 180 l 1
EndSplineSet
EndChar

StartChar: endash
Encoding: 8211 8211 134
Width: 748
VWidth: 0
Flags: HMW
LayerCount: 2
Fore
SplineSet
71 180 m 1
 90 295 l 1
 701 295 l 1
 681 180 l 1
 71 180 l 1
EndSplineSet
EndChar

StartChar: figuredash
Encoding: 8210 8210 135
Width: 597
VWidth: 0
Flags: HMW
LayerCount: 2
Fore
SplineSet
71 180 m 1
 90 295 l 1
 549 295 l 1
 529 180 l 1
 71 180 l 1
EndSplineSet
EndChar

StartChar: emdash
Encoding: 8212 8212 136
Width: 897
VWidth: 0
Flags: HMW
LayerCount: 2
Fore
SplineSet
71 180 m 1
 90 295 l 1
 853 295 l 1
 833 180 l 1
 71 180 l 1
EndSplineSet
EndChar

StartChar: minus
Encoding: 8722 8722 137
Width: 574
VWidth: 0
Flags: HMW
LayerCount: 2
Fore
SplineSet
62 180 m 1
 82 295 l 1
 540 295 l 1
 521 180 l 1
 62 180 l 1
EndSplineSet
EndChar

StartChar: quoteright
Encoding: 8217 8217 138
Width: 305
VWidth: 0
Flags: HMW
LayerCount: 2
Fore
SplineSet
193 700 m 1
 334 700 l 1
 191 453 l 1
 97 453 l 1
 193 700 l 1
EndSplineSet
EndChar

StartChar: quoteleft
Encoding: 8216 8216 139
Width: 305
VWidth: 0
Flags: HMW
LayerCount: 2
Fore
SplineSet
255 452 m 1
 114 453 l 1
 257 699 l 1
 352 699 l 1
 255 452 l 1
EndSplineSet
EndChar

StartChar: quotesinglbase
Encoding: 8218 8218 140
Width: 305
VWidth: 0
Flags: HMW
LayerCount: 2
Fore
SplineSet
97 80 m 1
 237 80 l 1
 94 -167 l 1
 1 -167 l 1
 97 80 l 1
EndSplineSet
EndChar

StartChar: quotedblleft
Encoding: 8220 8220 141
Width: 520
VWidth: 0
Flags: HMW
LayerCount: 2
Fore
SplineSet
255 452 m 1
 114 453 l 1
 257 699 l 1
 352 699 l 1
 255 452 l 1
471 452 m 1
 330 453 l 1
 473 699 l 1
 567 699 l 1
 471 452 l 1
EndSplineSet
EndChar

StartChar: quotedblright
Encoding: 8221 8221 142
Width: 520
VWidth: 0
Flags: HMW
LayerCount: 2
Fore
SplineSet
193 700 m 1
 334 700 l 1
 191 453 l 1
 97 453 l 1
 193 700 l 1
409 700 m 1
 549 700 l 1
 407 453 l 1
 312 453 l 1
 409 700 l 1
EndSplineSet
EndChar

StartChar: perthousand
Encoding: 8240 8240 143
Width: 1265
VWidth: 0
Flags: HMW
LayerCount: 2
Fore
SplineSet
890 162 m 0
 904 258 991 339 1093 339 c 0
 1194 339 1255 254 1242 161 c 0
 1228 65 1142 -16 1040 -16 c 0
 939 -16 877 69 890 162 c 0
997 161 m 0
 992 126 1011 90 1051 88 c 0
 1092 86 1129 124 1135 162 c 0
 1140 197 1122 234 1082 236 c 0
 1041 238 1003 199 997 161 c 0
89 539 m 0
 103 635 189 716 291 716 c 0
 392 716 454 631 441 538 c 0
 427 442 341 362 239 362 c 0
 138 362 76 446 89 539 c 0
196 538 m 0
 191 503 210 467 250 465 c 0
 291 463 328 502 334 540 c 0
 339 575 321 611 281 613 c 0
 240 615 202 576 196 538 c 0
470 162 m 0
 484 258 570 339 672 339 c 0
 773 339 834 254 821 161 c 0
 807 65 721 -16 619 -16 c 0
 518 -16 457 69 470 162 c 0
577 161 m 0
 572 126 590 90 630 88 c 0
 671 86 709 124 715 162 c 0
 720 197 701 234 661 236 c 0
 620 238 583 199 577 161 c 0
696 700 m 1
 832 700 l 1
 214 0 l 1
 80 0 l 1
 696 700 l 1
EndSplineSet
EndChar

StartChar: guilsinglleft
Encoding: 8249 8249 144
Width: 339
VWidth: 0
Flags: HMW
LayerCount: 2
Fore
SplineSet
156 257 m 1
 269 63 l 1
 182 6 l 1
 47 259 l 1
 262 503 l 1
 334 442 l 1
 156 257 l 1
EndSplineSet
EndChar

StartChar: guilsinglright
Encoding: 8250 8250 145
Width: 339
VWidth: 0
Flags: HMW
LayerCount: 2
Fore
SplineSet
217 253 m 1
 104 447 l 1
 190 504 l 1
 326 251 l 1
 111 7 l 1
 38 68 l 1
 217 253 l 1
EndSplineSet
EndChar

StartChar: uni2031
Encoding: 8241 8241 146
Width: 1686
VWidth: 0
Flags: HMW
LayerCount: 2
Fore
SplineSet
1311 162 m 0
 1325 258 1411 339 1513 339 c 0
 1614 339 1676 254 1663 161 c 0
 1649 65 1563 -16 1461 -16 c 0
 1360 -16 1298 69 1311 162 c 0
1418 161 m 0
 1413 126 1431 90 1471 88 c 0
 1512 86 1550 124 1556 162 c 0
 1561 197 1542 234 1502 236 c 0
 1461 238 1424 199 1418 161 c 0
890 162 m 0
 904 258 991 339 1093 339 c 0
 1194 339 1255 254 1242 161 c 0
 1228 65 1142 -16 1040 -16 c 0
 939 -16 877 69 890 162 c 0
997 161 m 0
 992 126 1011 90 1051 88 c 0
 1092 86 1129 124 1135 162 c 0
 1140 197 1122 234 1082 236 c 0
 1041 238 1003 199 997 161 c 0
89 539 m 0
 103 635 189 716 291 716 c 0
 392 716 454 631 441 538 c 0
 427 442 341 362 239 362 c 0
 138 362 76 446 89 539 c 0
196 538 m 0
 191 503 210 467 250 465 c 0
 291 463 328 502 334 540 c 0
 339 575 321 611 281 613 c 0
 240 615 202 576 196 538 c 0
470 162 m 0
 484 258 570 339 672 339 c 0
 773 339 834 254 821 161 c 0
 807 65 721 -16 619 -16 c 0
 518 -16 457 69 470 162 c 0
577 161 m 0
 572 126 590 90 630 88 c 0
 671 86 709 124 715 162 c 0
 720 197 701 234 661 236 c 0
 620 238 583 199 577 161 c 0
696 700 m 1
 832 700 l 1
 214 0 l 1
 80 0 l 1
 696 700 l 1
EndSplineSet
EndChar

StartChar: uni203D
Encoding: 8253 8253 147
Width: 588
VWidth: 0
Flags: HMW
LayerCount: 2
Fore
SplineSet
472 487 m 0
 485 559 439 603 363 603 c 0
 298 604 242 571 203 519 c 1
 122 592 l 1
 182 662 272 717 387 716 c 0
 512 715 612 626 594 500 c 0
 573 360 427 287 302 281 c 1
 284 348 l 1
 373 354 456 406 472 487 c 0
263 506 m 1
 395 505 l 1
 315 193 l 1
 234 193 l 1
 263 506 l 1
173 57 m 0
 178 98 222 133 266 132 c 0
 311 131 342 97 337 55 c 0
 332 14 289 -22 245 -21 c 0
 200 -20 168 15 173 57 c 0
EndSplineSet
EndChar

StartChar: Euro
Encoding: 8364 8364 148
Width: 614
VWidth: 0
Flags: HMW
LayerCount: 2
Fore
SplineSet
79 389 m 1
 92 462 l 1
 574 462 l 1
 561 389 l 1
 79 389 l 1
48 261 m 1
 61 334 l 1
 531 334 l 1
 518 261 l 1
 48 261 l 1
249 350 m 0
 234 231 259 108 376 106 c 0
 435 105 489 132 535 167 c 1
 514 24 l 1
 468 0 417 -16 363 -16 c 0
 169 -16 97 170 121 350 c 0
 149 542 287 717 481 717 c 0
 533 717 579 701 623 676 c 1
 601 532 l 1
 565 570 522 594 468 594 c 0
 350 594 269 481 249 350 c 0
EndSplineSet
EndChar

StartChar: fraction
Encoding: 8260 8260 149
Width: 700
VWidth: 0
Flags: HMW
LayerCount: 2
Fore
SplineSet
652 699 m 1
 759 699 l 1
 136 0 l 1
 28 0 l 1
 652 699 l 1
EndSplineSet
EndChar

StartChar: onequarter
Encoding: 188 188 150
Width: 778
VWidth: 0
Flags: HMW
LayerCount: 2
Fore
SplineSet
698 699 m 1
 788 699 l 1
 164 0 l 1
 74 0 l 1
 698 699 l 1
96 583 m 1
 110 662 l 1
 299 702 l 1
 226 274 l 1
 141 274 l 1
 198 608 l 1
 96 583 l 1
376 78 m 1
 455 142 l 1
 634 142 l 1
 646 152 l 1
 748 151 l 1
 735 78 l 1
 376 78 l 1
471 99 m 1
 373 76 l 1
 668 419 l 1
 730 420 l 1
 658 0 l 1
 568 0 l 1
 585 99 l 1
 594 105 l 1
 623 276 l 1
 471 99 l 1
EndSplineSet
EndChar

StartChar: onehalf
Encoding: 189 189 151
Width: 846
VWidth: 0
Flags: HMW
LayerCount: 2
Fore
SplineSet
698 699 m 1
 788 699 l 1
 164 0 l 1
 74 0 l 1
 698 699 l 1
96 583 m 1
 110 662 l 1
 299 702 l 1
 226 274 l 1
 141 274 l 1
 198 608 l 1
 96 583 l 1
458 3 m 1
 676 201 l 2
 707 230 739 258 745 295 c 0
 749 323 734 352 698 354 c 0
 652 357 622 314 612 271 c 1
 526 271 l 1
 544 356 606 431 706 430 c 0
 794 430 844 365 833 297 c 0
 826 251 795 214 759 184 c 2
 637 83 l 1
 804 82 l 1
 790 2 l 1
 458 3 l 1
EndSplineSet
EndChar

StartChar: threequarters
Encoding: 190 190 152
Width: 835
VWidth: 0
Flags: HMW
LayerCount: 2
Fore
SplineSet
760 699 m 1
 851 699 l 1
 227 0 l 1
 137 0 l 1
 760 699 l 1
209 485 m 1
 215 526 l 1
 258 530 297 551 304 588 c 0
 308 614 294 635 264 636 c 0
 230 637 206 610 197 583 c 1
 115 584 l 1
 131 653 189 707 270 707 c 0
 347 707 400 657 389 591 c 0
 377 516 293 488 209 485 c 1
199 272 m 0
 109 272 63 333 67 407 c 1
 151 407 l 1
 151 371 167 345 206 344 c 0
 242 343 277 368 282 403 c 0
 290 447 251 464 204 467 c 1
 212 512 l 1
 299 509 380 480 367 393 c 0
 356 319 284 272 199 272 c 0
434 78 m 1
 514 142 l 1
 692 142 l 1
 704 152 l 1
 807 151 l 1
 794 78 l 1
 434 78 l 1
529 99 m 1
 432 76 l 1
 727 419 l 1
 788 420 l 1
 716 0 l 1
 627 0 l 1
 644 99 l 1
 653 105 l 1
 682 276 l 1
 529 99 l 1
EndSplineSet
EndChar

StartChar: uni2150
Encoding: 8528 8528 153
Width: 885
VWidth: 0
Flags: HMW
LayerCount: 2
Fore
SplineSet
666 699 m 1
 774 699 l 1
 150 0 l 1
 43 0 l 1
 666 699 l 1
96 583 m 1
 110 662 l 1
 299 702 l 1
 226 274 l 1
 141 274 l 1
 198 608 l 1
 96 583 l 1
573 339 m 1
 587 420 l 1
 910 420 l 1
 642 0 l 1
 547 0 l 1
 766 338 l 1
 573 339 l 1
EndSplineSet
EndChar

StartChar: uni2151
Encoding: 8529 8529 154
Width: 829
VWidth: 0
Flags: HMW
LayerCount: 2
Fore
SplineSet
662 699 m 1
 770 699 l 1
 146 0 l 1
 39 0 l 1
 662 699 l 1
96 583 m 1
 110 662 l 1
 299 702 l 1
 226 274 l 1
 141 274 l 1
 198 608 l 1
 96 583 l 1
746 278 m 0
 752 319 731 354 688 355 c 0
 644 357 602 320 596 277 c 0
 590 236 612 200 655 198 c 0
 699 196 740 235 746 278 c 0
622 4 m 1
 508 4 l 1
 666 160 l 1
 685 164 l 1
 664 148 644 141 617 141 c 0
 548 142 503 206 512 278 c 0
 524 370 605 430 694 430 c 0
 783 430 844 367 831 277 c 0
 825 235 799 199 772 169 c 1
 622 4 l 1
EndSplineSet
EndChar

StartChar: uni2152
Encoding: 8530 8530 155
Width: 1138
VWidth: 0
Flags: HMW
LayerCount: 2
Fore
SplineSet
662 699 m 1
 770 699 l 1
 146 0 l 1
 39 0 l 1
 662 699 l 1
96 583 m 1
 110 662 l 1
 299 702 l 1
 226 274 l 1
 141 274 l 1
 198 608 l 1
 96 583 l 1
542 310 m 1
 555 389 l 1
 745 429 l 1
 671 1 l 1
 587 1 l 1
 643 335 l 1
 542 310 l 1
870 210 m 0
 863 149 865 71 924 69 c 0
 983 67 1024 142 1034 210 c 0
 1041 271 1039 349 980 351 c 0
 921 353 880 278 870 210 c 0
786 210 m 0
 801 326 878 427 985 427 c 0
 1096 427 1131 320 1117 210 c 0
 1102 94 1028 -7 919 -7 c 0
 810 -7 772 100 786 210 c 0
EndSplineSet
EndChar

StartChar: onethird
Encoding: 8531 8531 156
Width: 814
VWidth: 0
Flags: HMW
LayerCount: 2
Fore
SplineSet
662 699 m 1
 769 699 l 1
 146 0 l 1
 38 0 l 1
 662 699 l 1
96 583 m 1
 110 662 l 1
 299 702 l 1
 226 274 l 1
 141 274 l 1
 198 608 l 1
 96 583 l 1
625 205 m 1
 631 246 l 1
 674 250 714 271 721 308 c 0
 725 334 711 355 681 356 c 0
 647 357 622 330 613 303 c 1
 532 304 l 1
 548 373 605 427 686 427 c 0
 763 427 817 377 806 311 c 0
 794 236 709 208 625 205 c 1
615 -8 m 0
 525 -8 480 53 484 127 c 1
 568 127 l 1
 568 91 584 65 623 64 c 0
 659 63 694 88 699 123 c 0
 707 167 668 184 621 187 c 1
 628 232 l 1
 715 229 797 200 784 113 c 0
 773 39 700 -8 615 -8 c 0
EndSplineSet
EndChar

StartChar: twothirds
Encoding: 8532 8532 157
Width: 941
VWidth: 0
Flags: HMW
LayerCount: 2
Fore
SplineSet
798 699 m 1
 906 699 l 1
 282 0 l 1
 174 0 l 1
 798 699 l 1
48 283 m 1
 266 481 l 2
 297 510 329 538 335 575 c 0
 339 603 324 632 288 634 c 0
 242 637 212 594 202 551 c 1
 116 551 l 1
 134 636 196 711 296 710 c 0
 384 710 434 645 423 577 c 0
 416 531 384 494 348 464 c 2
 227 363 l 1
 394 362 l 1
 380 282 l 1
 48 283 l 1
752 205 m 1
 759 246 l 1
 802 250 841 271 848 308 c 0
 852 334 838 355 808 356 c 0
 774 357 750 330 741 303 c 1
 659 304 l 1
 675 373 733 427 814 427 c 0
 891 427 944 377 933 311 c 0
 921 236 836 208 752 205 c 1
743 -8 m 0
 653 -8 607 53 611 127 c 1
 695 127 l 1
 695 91 711 65 750 64 c 0
 786 63 821 88 826 123 c 0
 834 167 795 184 748 187 c 1
 756 232 l 1
 843 229 924 200 911 113 c 0
 900 39 828 -8 743 -8 c 0
EndSplineSet
EndChar

StartChar: uni2155
Encoding: 8533 8533 158
Width: 803
VWidth: 0
Flags: HMW
LayerCount: 2
Fore
SplineSet
662 699 m 1
 770 699 l 1
 146 0 l 1
 39 0 l 1
 662 699 l 1
96 583 m 1
 110 662 l 1
 299 702 l 1
 226 274 l 1
 141 274 l 1
 198 608 l 1
 96 583 l 1
777 133 m 0
 765 42 680 -9 597 -9 c 0
 528 -9 482 19 446 56 c 1
 494 123 l 1
 519 94 551 71 588 71 c 0
 635 71 680 98 686 142 c 0
 691 183 658 208 618 210 c 0
 580 212 540 200 499 182 c 1
 560 228 l 1
 592 256 631 273 672 272 c 0
 744 271 787 208 777 133 c 0
648 342 m 1
 594 231 l 1
 493 177 l 1
 593 418 l 1
 819 418 l 1
 806 343 l 1
 648 342 l 1
EndSplineSet
EndChar

StartChar: uni2156
Encoding: 8534 8534 159
Width: 937
VWidth: 0
Flags: HMW
LayerCount: 2
Fore
SplineSet
798 699 m 1
 906 699 l 1
 282 0 l 1
 174 0 l 1
 798 699 l 1
48 283 m 1
 266 481 l 2
 297 510 329 538 335 575 c 0
 339 603 324 632 288 634 c 0
 242 637 212 594 202 551 c 1
 116 551 l 1
 134 636 196 711 296 710 c 0
 384 710 434 645 423 577 c 0
 416 531 384 494 348 464 c 2
 227 363 l 1
 394 362 l 1
 380 282 l 1
 48 283 l 1
904 133 m 0
 892 42 807 -9 724 -9 c 0
 655 -9 609 19 573 56 c 1
 622 123 l 1
 647 94 678 71 715 71 c 0
 762 71 807 98 813 142 c 0
 818 183 786 208 746 210 c 0
 708 212 667 200 626 182 c 1
 688 228 l 1
 720 256 759 273 800 272 c 0
 872 271 914 208 904 133 c 0
775 342 m 1
 721 231 l 1
 620 177 l 1
 721 418 l 1
 947 418 l 1
 933 343 l 1
 775 342 l 1
EndSplineSet
EndChar

StartChar: uni2157
Encoding: 8535 8535 160
Width: 874
VWidth: 0
Flags: HMW
LayerCount: 2
Fore
SplineSet
738 699 m 1
 845 699 l 1
 222 0 l 1
 114 0 l 1
 738 699 l 1
206 485 m 1
 213 526 l 1
 256 530 295 551 302 588 c 0
 306 614 292 635 262 636 c 0
 228 637 203 610 194 583 c 1
 113 584 l 1
 129 653 186 707 267 707 c 0
 344 707 398 657 387 591 c 0
 375 516 290 488 206 485 c 1
197 272 m 0
 107 272 61 333 65 407 c 1
 149 407 l 1
 149 371 165 345 204 344 c 0
 240 343 275 368 280 403 c 0
 288 447 249 464 202 467 c 1
 210 512 l 1
 297 509 378 480 365 393 c 0
 354 319 282 272 197 272 c 0
839 133 m 0
 827 42 743 -9 660 -9 c 0
 591 -9 544 19 508 56 c 1
 557 123 l 1
 582 94 613 71 650 71 c 0
 697 71 742 98 748 142 c 0
 753 183 721 208 681 210 c 0
 643 212 602 200 561 182 c 1
 623 228 l 1
 655 256 694 273 735 272 c 0
 807 271 849 208 839 133 c 0
710 342 m 1
 657 231 l 1
 556 177 l 1
 656 418 l 1
 882 418 l 1
 869 343 l 1
 710 342 l 1
EndSplineSet
EndChar

StartChar: uni2158
Encoding: 8536 8536 161
Width: 943
VWidth: 0
Flags: HMW
LayerCount: 2
Fore
SplineSet
789 699 m 1
 896 698 l 1
 273 -0 l 1
 166 -0 l 1
 789 699 l 1
55 358 m 1
 134 422 l 1
 313 422 l 1
 325 432 l 1
 427 431 l 1
 414 358 l 1
 55 358 l 1
150 379 m 1
 52 356 l 1
 347 699 l 1
 409 700 l 1
 337 280 l 1
 248 280 l 1
 264 379 l 1
 273 385 l 1
 302 556 l 1
 150 379 l 1
912 132 m 0
 900 41 815 -9 732 -9 c 0
 663 -9 617 18 581 55 c 1
 630 122 l 1
 655 93 686 71 723 71 c 0
 770 71 815 98 821 142 c 0
 826 183 794 208 754 210 c 0
 716 212 675 200 634 182 c 1
 696 228 l 1
 728 256 767 272 808 271 c 0
 880 270 922 207 912 132 c 0
783 342 m 1
 729 230 l 1
 628 176 l 1
 728 417 l 1
 955 417 l 1
 941 342 l 1
 783 342 l 1
EndSplineSet
EndChar

StartChar: uni2159
Encoding: 8537 8537 162
Width: 806
VWidth: 0
Flags: HMW
LayerCount: 2
Fore
SplineSet
675 699 m 1
 782 699 l 1
 159 0 l 1
 51 0 l 1
 675 699 l 1
96 583 m 1
 110 662 l 1
 299 702 l 1
 226 274 l 1
 141 274 l 1
 198 608 l 1
 96 583 l 1
545 142 m 0
 539 101 561 66 604 65 c 0
 648 63 689 100 695 143 c 0
 701 184 680 220 637 222 c 0
 593 224 551 185 545 142 c 0
670 416 m 1
 784 416 l 1
 626 260 l 1
 607 256 l 1
 628 272 647 279 674 279 c 0
 743 279 789 214 780 142 c 0
 768 50 687 -10 598 -10 c 0
 509 -10 448 53 461 143 c 0
 467 185 492 221 519 251 c 1
 670 416 l 1
EndSplineSet
EndChar

StartChar: uni215A
Encoding: 8538 8538 163
Width: 882
VWidth: 0
Flags: HMW
LayerCount: 2
Fore
SplineSet
763 699 m 1
 871 699 l 1
 247 0 l 1
 140 0 l 1
 763 699 l 1
389 413 m 0
 377 322 293 271 210 271 c 0
 141 271 95 299 59 336 c 1
 107 403 l 1
 132 374 164 351 201 351 c 0
 248 351 292 378 298 422 c 0
 303 463 271 488 231 490 c 0
 193 492 153 480 112 462 c 1
 173 508 l 1
 205 536 244 553 285 552 c 0
 357 551 399 488 389 413 c 0
260 622 m 1
 207 511 l 1
 106 457 l 1
 206 698 l 1
 432 698 l 1
 419 623 l 1
 260 622 l 1
620 142 m 0
 614 101 636 66 679 65 c 0
 723 63 764 100 770 143 c 0
 776 184 755 220 712 222 c 0
 668 224 626 185 620 142 c 0
745 416 m 1
 858 416 l 1
 701 260 l 1
 682 256 l 1
 703 272 722 279 749 279 c 0
 818 279 864 214 855 142 c 0
 843 50 763 -10 674 -10 c 0
 585 -10 523 53 536 143 c 0
 542 185 567 221 594 251 c 1
 745 416 l 1
EndSplineSet
EndChar

StartChar: oneeighth
Encoding: 8539 8539 164
Width: 827
VWidth: 0
Flags: HMW
LayerCount: 2
Fore
SplineSet
675 699 m 1
 782 699 l 1
 159 0 l 1
 51 0 l 1
 675 699 l 1
96 583 m 1
 110 662 l 1
 299 702 l 1
 226 274 l 1
 141 274 l 1
 198 608 l 1
 96 583 l 1
549 320 m 0
 558 386 627 428 696 428 c 0
 764 428 822 385 813 318 c 0
 804 249 732 208 665 208 c 0
 599 208 540 250 549 320 c 0
629 310 m 0
 625 284 640 258 668 257 c 0
 696 256 726 283 730 311 c 0
 734 338 720 362 691 363 c 0
 662 364 633 338 629 310 c 0
499 115 m 0
 509 194 592 236 663 236 c 0
 733 236 803 192 792 113 c 0
 782 40 704 -8 628 -8 c 0
 553 -8 489 42 499 115 c 0
586 126 m 0
 581 92 601 64 634 63 c 0
 668 62 704 91 709 127 c 0
 713 158 693 188 661 189 c 0
 627 190 591 158 586 126 c 0
EndSplineSet
EndChar

StartChar: threeeighths
Encoding: 8540 8540 165
Width: 894
VWidth: 0
Flags: HMW
LayerCount: 2
Fore
SplineSet
742 699 m 1
 850 699 l 1
 226 0 l 1
 119 0 l 1
 742 699 l 1
206 485 m 1
 213 526 l 1
 256 530 295 551 302 588 c 0
 306 614 292 635 262 636 c 0
 228 637 203 610 194 583 c 1
 113 584 l 1
 129 653 186 707 267 707 c 0
 344 707 398 657 387 591 c 0
 375 516 290 488 206 485 c 1
197 272 m 0
 107 272 61 333 65 407 c 1
 149 407 l 1
 149 371 165 345 204 344 c 0
 240 343 275 368 280 403 c 0
 288 447 249 464 202 467 c 1
 210 512 l 1
 297 509 378 480 365 393 c 0
 354 319 282 272 197 272 c 0
616 320 m 0
 625 386 694 428 763 428 c 0
 831 428 889 385 880 318 c 0
 871 249 799 208 732 208 c 0
 666 208 607 250 616 320 c 0
696 310 m 0
 692 284 707 258 735 257 c 0
 763 256 793 283 797 311 c 0
 801 338 787 362 758 363 c 0
 729 364 700 338 696 310 c 0
566 115 m 0
 576 194 659 236 730 236 c 0
 800 236 870 192 859 113 c 0
 849 40 772 -8 696 -8 c 0
 621 -8 556 42 566 115 c 0
654 126 m 0
 649 92 669 64 702 63 c 0
 736 62 772 91 777 127 c 0
 781 158 760 188 728 189 c 0
 694 190 659 158 654 126 c 0
EndSplineSet
EndChar

StartChar: fiveeighths
Encoding: 8541 8541 166
Width: 915
VWidth: 0
Flags: HMW
LayerCount: 2
Fore
SplineSet
763 699 m 1
 871 699 l 1
 247 0 l 1
 140 0 l 1
 763 699 l 1
385 413 m 0
 373 322 288 271 205 271 c 0
 136 271 90 299 54 336 c 1
 103 403 l 1
 128 374 159 351 196 351 c 0
 243 351 288 378 294 422 c 0
 299 463 267 488 227 490 c 0
 189 492 149 480 108 462 c 1
 169 508 l 1
 201 536 240 553 281 552 c 0
 353 551 395 488 385 413 c 0
256 622 m 1
 203 511 l 1
 101 457 l 1
 202 698 l 1
 428 698 l 1
 415 623 l 1
 256 622 l 1
637 320 m 0
 646 386 715 428 784 428 c 0
 852 428 910 385 901 318 c 0
 892 249 820 208 753 208 c 0
 687 208 628 250 637 320 c 0
717 310 m 0
 713 284 728 258 756 257 c 0
 784 256 814 283 818 311 c 0
 822 338 808 362 779 363 c 0
 750 364 721 338 717 310 c 0
588 115 m 0
 598 194 680 236 751 236 c 0
 821 236 891 192 880 113 c 0
 870 40 793 -8 717 -8 c 0
 642 -8 578 42 588 115 c 0
675 126 m 0
 670 92 690 64 723 63 c 0
 757 62 792 91 797 127 c 0
 801 158 781 188 749 189 c 0
 715 190 680 158 675 126 c 0
EndSplineSet
EndChar

StartChar: seveneighths
Encoding: 8542 8542 167
Width: 809
VWidth: 0
Flags: HMW
LayerCount: 2
Fore
SplineSet
652 699 m 1
 759 699 l 1
 136 0 l 1
 28 0 l 1
 652 699 l 1
102 619 m 1
 116 700 l 1
 439 700 l 1
 170 281 l 1
 75 281 l 1
 295 618 l 1
 102 619 l 1
531 320 m 0
 540 386 608 428 677 428 c 0
 745 428 803 385 794 318 c 0
 785 249 714 208 647 208 c 0
 581 208 522 250 531 320 c 0
610 310 m 0
 606 284 621 258 649 257 c 0
 677 256 708 283 712 311 c 0
 716 338 701 362 672 363 c 0
 643 364 614 338 610 310 c 0
481 115 m 0
 491 194 573 236 644 236 c 0
 714 236 784 192 773 113 c 0
 763 40 686 -8 610 -8 c 0
 535 -8 471 42 481 115 c 0
568 126 m 0
 563 92 583 64 616 63 c 0
 650 62 686 91 691 127 c 0
 695 158 675 188 643 189 c 0
 609 190 573 158 568 126 c 0
EndSplineSet
EndChar

StartChar: uni2074
Encoding: 8308 8308 168
Width: 402
VWidth: 0
Flags: HMW
LayerCount: 2
Fore
SplineSet
50 358 m 1
 130 422 l 1
 309 422 l 1
 320 432 l 1
 423 431 l 1
 410 358 l 1
 50 358 l 1
146 379 m 1
 48 356 l 1
 343 699 l 1
 404 700 l 1
 333 280 l 1
 243 280 l 1
 260 379 l 1
 269 385 l 1
 298 556 l 1
 146 379 l 1
EndSplineSet
EndChar

StartChar: uni2075
Encoding: 8309 8309 169
Width: 366
VWidth: 0
Flags: HMW
LayerCount: 2
Fore
SplineSet
385 413 m 0
 373 322 288 271 205 271 c 0
 136 271 90 299 54 336 c 1
 103 403 l 1
 128 374 159 351 196 351 c 0
 243 351 288 378 294 422 c 0
 299 463 267 488 227 490 c 0
 189 492 149 480 108 462 c 1
 169 508 l 1
 201 536 240 553 281 552 c 0
 353 551 395 488 385 413 c 0
256 622 m 1
 203 511 l 1
 101 457 l 1
 202 698 l 1
 428 698 l 1
 415 623 l 1
 256 622 l 1
EndSplineSet
EndChar

StartChar: uni2076
Encoding: 8310 8310 170
Width: 361
VWidth: 0
Flags: HMW
LayerCount: 2
Fore
SplineSet
153 422 m 0
 147 381 170 346 213 345 c 0
 257 343 297 380 303 423 c 0
 309 464 288 500 245 502 c 0
 201 504 159 465 153 422 c 0
278 696 m 1
 392 696 l 1
 234 540 l 1
 215 536 l 1
 236 552 255 559 282 559 c 0
 351 559 397 494 388 422 c 0
 376 330 295 270 206 270 c 0
 117 270 56 333 69 423 c 0
 75 465 100 501 127 531 c 1
 278 696 l 1
EndSplineSet
EndChar

StartChar: uni2077
Encoding: 8311 8311 171
Width: 360
VWidth: 0
Flags: HMW
LayerCount: 2
Fore
SplineSet
102 619 m 1
 116 700 l 1
 439 700 l 1
 170 281 l 1
 75 281 l 1
 295 618 l 1
 102 619 l 1
EndSplineSet
EndChar

StartChar: uni2078
Encoding: 8312 8312 172
Width: 339
VWidth: 0
Flags: HMW
LayerCount: 2
Fore
SplineSet
113 600 m 0
 122 666 191 708 260 708 c 0
 328 708 385 665 376 598 c 0
 367 529 296 488 229 488 c 0
 163 488 104 530 113 600 c 0
192 590 m 0
 188 564 203 538 231 537 c 0
 259 536 290 563 294 591 c 0
 298 618 283 642 254 643 c 0
 225 644 196 618 192 590 c 0
63 395 m 0
 73 474 156 516 227 516 c 0
 297 516 367 472 356 393 c 0
 346 320 268 272 192 272 c 0
 117 272 53 322 63 395 c 0
150 406 m 0
 145 372 165 344 198 343 c 0
 232 342 268 371 273 407 c 0
 277 438 257 468 225 469 c 0
 191 470 155 438 150 406 c 0
EndSplineSet
EndChar

StartChar: uni2079
Encoding: 8313 8313 173
Width: 359
VWidth: 0
Flags: HMW
LayerCount: 2
Fore
SplineSet
329 558 m 0
 335 599 313 634 270 635 c 0
 226 637 185 600 179 557 c 0
 173 516 195 480 238 478 c 0
 282 476 323 515 329 558 c 0
204 284 m 1
 91 284 l 1
 249 440 l 1
 267 444 l 1
 246 428 227 421 200 421 c 0
 131 422 86 486 95 558 c 0
 107 650 187 710 276 710 c 0
 365 710 426 647 413 557 c 0
 407 515 382 479 355 449 c 1
 204 284 l 1
EndSplineSet
EndChar

StartChar: uni2070
Encoding: 8304 8304 174
Width: 373
VWidth: 0
Flags: HMW
LayerCount: 2
Fore
SplineSet
162 490 m 0
 155 429 157 351 216 349 c 0
 275 347 316 422 326 490 c 0
 333 551 330 629 271 631 c 0
 212 633 172 558 162 490 c 0
78 490 m 0
 93 606 169 707 276 707 c 0
 387 707 423 600 409 490 c 0
 394 374 320 273 211 273 c 0
 102 273 64 380 78 490 c 0
EndSplineSet
EndChar

StartChar: uni2080
Encoding: 8320 8320 175
Width: 373
VWidth: 0
Flags: HMW
LayerCount: 2
Fore
SplineSet
114 210 m 0
 107 149 109 71 168 69 c 0
 227 67 268 142 278 210 c 0
 285 271 282 349 223 351 c 0
 164 353 124 278 114 210 c 0
30 210 m 0
 45 326 122 427 229 427 c 0
 340 427 375 320 361 210 c 0
 346 94 272 -7 163 -7 c 0
 54 -7 16 100 30 210 c 0
EndSplineSet
EndChar

StartChar: uni2084
Encoding: 8324 8324 176
Width: 405
VWidth: 0
Flags: HMW
LayerCount: 2
Fore
SplineSet
2 78 m 1
 81 142 l 1
 260 142 l 1
 272 152 l 1
 374 151 l 1
 361 78 l 1
 2 78 l 1
97 99 m 1
 -1 76 l 1
 294 419 l 1
 356 420 l 1
 284 0 l 1
 194 0 l 1
 211 99 l 1
 220 105 l 1
 250 276 l 1
 97 99 l 1
EndSplineSet
EndChar

StartChar: uni2085
Encoding: 8325 8325 177
Width: 372
VWidth: 0
Flags: HMW
LayerCount: 2
Fore
SplineSet
340 133 m 0
 328 42 243 -9 160 -9 c 0
 91 -9 45 19 9 56 c 1
 57 123 l 1
 82 94 113 71 150 71 c 0
 197 71 243 98 249 142 c 0
 254 183 221 208 181 210 c 0
 143 212 103 200 62 182 c 1
 123 228 l 1
 155 256 194 273 235 272 c 0
 307 271 350 208 340 133 c 0
211 342 m 1
 157 231 l 1
 56 177 l 1
 156 418 l 1
 382 418 l 1
 369 343 l 1
 211 342 l 1
EndSplineSet
EndChar

StartChar: uni2086
Encoding: 8326 8326 178
Width: 368
VWidth: 0
Flags: HMW
LayerCount: 2
Fore
SplineSet
108 142 m 0
 102 101 124 66 167 65 c 0
 211 63 252 100 258 143 c 0
 264 184 242 220 199 222 c 0
 155 224 114 185 108 142 c 0
233 416 m 1
 346 416 l 1
 188 260 l 1
 170 256 l 1
 191 272 209 279 236 279 c 0
 305 279 351 214 342 142 c 0
 330 50 250 -10 161 -10 c 0
 72 -10 10 53 23 143 c 0
 29 185 55 221 82 251 c 1
 233 416 l 1
EndSplineSet
EndChar

StartChar: uni2087
Encoding: 8327 8327 179
Width: 363
VWidth: 0
Flags: HMW
LayerCount: 2
Fore
SplineSet
57 339 m 1
 71 420 l 1
 394 420 l 1
 125 0 l 1
 30 0 l 1
 249 338 l 1
 57 339 l 1
EndSplineSet
EndChar

StartChar: uni2088
Encoding: 8328 8328 180
Width: 344
VWidth: 0
Flags: HMW
LayerCount: 2
Fore
SplineSet
68 320 m 0
 77 386 146 428 215 428 c 0
 283 428 340 385 331 318 c 0
 322 249 251 208 184 208 c 0
 118 208 59 250 68 320 c 0
147 310 m 0
 143 284 158 258 186 257 c 0
 214 256 245 283 249 311 c 0
 253 338 239 362 210 363 c 0
 181 364 151 338 147 310 c 0
18 115 m 0
 28 194 111 236 182 236 c 0
 252 236 322 192 311 113 c 0
 301 40 223 -8 147 -8 c 0
 72 -8 8 42 18 115 c 0
105 126 m 0
 100 92 120 64 153 63 c 0
 187 62 223 91 228 127 c 0
 232 158 212 188 180 189 c 0
 146 190 110 158 105 126 c 0
EndSplineSet
EndChar

StartChar: uni2089
Encoding: 8329 8329 181
Width: 371
VWidth: 0
Flags: HMW
LayerCount: 2
Fore
SplineSet
278 278 m 0
 284 319 262 354 219 355 c 0
 175 357 133 320 127 277 c 0
 121 236 143 200 186 198 c 0
 230 196 272 235 278 278 c 0
153 4 m 1
 39 4 l 1
 197 160 l 1
 216 164 l 1
 195 148 176 141 149 141 c 0
 80 142 34 206 43 278 c 0
 55 370 136 430 225 430 c 0
 314 430 375 367 362 277 c 0
 356 235 331 199 304 169 c 1
 153 4 l 1
EndSplineSet
EndChar

StartChar: uni2081
Encoding: 8321 8321 182
Width: 336
VWidth: 0
Flags: HMW
LayerCount: 2
Fore
SplineSet
112 310 m 1
 126 389 l 1
 315 429 l 1
 241 1 l 1
 157 1 l 1
 214 335 l 1
 112 310 l 1
EndSplineSet
EndChar

StartChar: uni2082
Encoding: 8322 8322 183
Width: 379
VWidth: 0
Flags: HMW
LayerCount: 2
Fore
SplineSet
-3 3 m 1
 215 201 l 2
 246 230 278 258 284 295 c 0
 288 323 274 352 238 354 c 0
 192 357 161 314 151 271 c 1
 66 271 l 1
 84 356 145 431 245 430 c 0
 333 430 383 365 372 297 c 0
 365 251 334 214 298 184 c 2
 177 83 l 1
 343 82 l 1
 329 2 l 1
 -3 3 l 1
EndSplineSet
EndChar

StartChar: uni2083
Encoding: 8323 8323 184
Width: 343
VWidth: 0
Flags: HMW
LayerCount: 2
Fore
SplineSet
157 205 m 1
 163 246 l 1
 206 250 245 271 252 308 c 0
 256 334 243 355 213 356 c 0
 179 357 154 330 145 303 c 1
 64 304 l 1
 80 373 137 427 218 427 c 0
 295 427 348 377 337 311 c 0
 325 236 241 208 157 205 c 1
147 -8 m 0
 57 -8 11 53 15 127 c 1
 99 127 l 1
 99 91 115 65 154 64 c 0
 190 63 226 88 231 123 c 0
 239 167 199 184 152 187 c 1
 160 232 l 1
 247 229 328 200 315 113 c 0
 304 39 232 -8 147 -8 c 0
EndSplineSet
EndChar

StartChar: Agrave
Encoding: 192 192 185
Width: 691
VWidth: 0
Flags: HMW
LayerCount: 2
Fore
SplineSet
167 157 m 1
 203 271 l 1
 532 271 l 1
 528 157 l 1
 167 157 l 1
402 471 m 1
 260 230 l 1
 258 198 l 1
 135 0 l 1
 -30 0 l 1
 445 744 l 1
 664 0 l 1
 506 0 l 1
 451 192 l 1
 460 228 l 1
 402 471 l 1
334 954 m 1
 441 1001 l 1
 561 838 l 1
 486 802 l 1
 334 954 l 1
EndSplineSet
EndChar

StartChar: Aacute
Encoding: 193 193 186
Width: 691
VWidth: 0
Flags: HMW
LayerCount: 2
Fore
SplineSet
167 157 m 1
 203 271 l 1
 532 271 l 1
 528 157 l 1
 167 157 l 1
402 471 m 1
 260 230 l 1
 258 198 l 1
 135 0 l 1
 -30 0 l 1
 445 744 l 1
 664 0 l 1
 506 0 l 1
 451 192 l 1
 460 228 l 1
 402 471 l 1
628 949 m 1
 430 802 l 1
 361 843 l 1
 531 1000 l 1
 628 949 l 1
EndSplineSet
EndChar

StartChar: Acircumflex
Encoding: 194 194 187
Width: 691
VWidth: 0
Flags: HMW
LayerCount: 2
Fore
SplineSet
167 157 m 1
 203 271 l 1
 532 271 l 1
 528 157 l 1
 167 157 l 1
402 471 m 1
 260 230 l 1
 258 198 l 1
 135 0 l 1
 -30 0 l 1
 445 744 l 1
 664 0 l 1
 506 0 l 1
 451 192 l 1
 460 228 l 1
 402 471 l 1
471 867 m 1
 361 780 l 1
 281 844 l 1
 483 982 l 1
 644 840 l 1
 549 779 l 1
 471 867 l 1
EndSplineSet
EndChar

StartChar: Atilde
Encoding: 195 195 188
Width: 691
VWidth: 0
Flags: HMW
LayerCount: 2
Fore
SplineSet
167 157 m 1
 203 271 l 1
 532 271 l 1
 528 157 l 1
 167 157 l 1
402 471 m 1
 260 230 l 1
 258 198 l 1
 135 0 l 1
 -30 0 l 1
 445 744 l 1
 664 0 l 1
 506 0 l 1
 451 192 l 1
 460 228 l 1
 402 471 l 1
281 850 m 1
 301 895 347 940 405 938 c 0
 459 937 477 887 526 889 c 0
 553 890 575 914 596 940 c 1
 651 873 l 1
 626 836 575 791 518 793 c 0
 470 795 441 846 396 844 c 0
 362 842 348 812 340 794 c 1
 281 850 l 1
EndSplineSet
EndChar

StartChar: Adieresis
Encoding: 196 196 189
Width: 691
VWidth: 0
Flags: HMW
LayerCount: 2
Fore
SplineSet
167 157 m 1
 203 271 l 1
 532 271 l 1
 528 157 l 1
 167 157 l 1
402 471 m 1
 260 230 l 1
 258 198 l 1
 135 0 l 1
 -30 0 l 1
 445 744 l 1
 664 0 l 1
 506 0 l 1
 451 192 l 1
 460 228 l 1
 402 471 l 1
510 837 m 0
 515 877 556 910 597 909 c 0
 638 908 669 876 664 835 c 0
 659 795 618 761 577 762 c 0
 536 763 505 796 510 837 c 0
256 841 m 0
 261 881 302 915 343 914 c 0
 384 913 415 880 410 839 c 0
 405 799 364 766 323 767 c 0
 282 768 251 800 256 841 c 0
EndSplineSet
EndChar

StartChar: Aring
Encoding: 197 197 190
Width: 691
VWidth: 0
Flags: HMW
LayerCount: 2
Fore
SplineSet
167 157 m 1
 203 271 l 1
 532 271 l 1
 528 157 l 1
 167 157 l 1
402 471 m 1
 260 230 l 1
 258 198 l 1
 135 0 l 1
 -30 0 l 1
 445 744 l 1
 664 0 l 1
 506 0 l 1
 451 192 l 1
 460 228 l 1
 402 471 l 1
340 801 m 0
 348 863 408 910 471 910 c 0
 534 910 580 862 571 799 c 0
 563 736 502 689 439 689 c 0
 376 689 331 739 340 801 c 0
409 799 m 0
 406 775 421 752 444 751 c 0
 468 749 499 775 502 801 c 0
 505 825 489 848 466 849 c 0
 442 851 412 825 409 799 c 0
EndSplineSet
EndChar

StartChar: AE
Encoding: 198 198 191
Width: 1017
VWidth: 0
Flags: HMW
LayerCount: 2
Fore
SplineSet
248 168 m 1
 275 301 l 1
 569 301 l 1
 546 168 l 1
 248 168 l 1
520 700 m 1
 643 658 l 1
 161 0 l 1
 -18 0 l 1
 520 700 l 1
558 0 m 1
 579 122 l 1
 946 122 l 1
 924 0 l 1
 558 0 l 1
669 578 m 1
 520 700 l 1
 1044 700 l 1
 1023 578 l 1
 669 578 l 1
611 311 m 1
 632 431 l 1
 979 431 l 1
 958 311 l 1
 611 311 l 1
607 700 m 1
 760 700 l 1
 640 0 l 1
 489 0 l 1
 607 700 l 1
EndSplineSet
EndChar

StartChar: Ccedilla
Encoding: 199 199 192
Width: 675
VWidth: 0
Flags: HMW
LayerCount: 2
Fore
SplineSet
221 350 m 0
 202 228 272 127 395 125 c 0
 489 124 562 169 621 220 c 1
 597 58 l 1
 534 14 465 -14 373 -14 c 0
 163 -13 37 151 66 350 c 0
 98 557 273 714 488 714 c 0
 576 714 638 688 694 641 c 1
 669 479 l 1
 627 536 566 575 480 575 c 0
 355 575 243 479 221 350 c 0
332 50 m 1
 430 48 l 1
 329 -70 l 1
 337 -68 346 -68 355 -68 c 0
 398 -71 433 -107 427 -160 c 0
 418 -225 352 -262 292 -263 c 0
 244 -264 208 -250 169 -223 c 1
 218 -165 l 1
 239 -180 262 -189 284 -189 c 0
 311 -189 343 -174 345 -151 c 0
 347 -128 321 -119 297 -119 c 0
 279 -118 247 -124 219 -134 c 1
 332 50 l 1
EndSplineSet
EndChar

StartChar: Egrave
Encoding: 200 200 193
Width: 569
VWidth: 0
Flags: HMW
LayerCount: 2
Fore
SplineSet
136 0 m 1
 157 122 l 1
 503 122 l 1
 481 0 l 1
 136 0 l 1
235 578 m 1
 256 700 l 1
 601 700 l 1
 580 578 l 1
 235 578 l 1
189 311 m 1
 210 431 l 1
 536 431 l 1
 515 311 l 1
 189 311 l 1
164 700 m 1
 304 700 l 1
 183 0 l 1
 46 0 l 1
 164 700 l 1
273 931 m 1
 380 978 l 1
 501 816 l 1
 426 779 l 1
 273 931 l 1
EndSplineSet
EndChar

StartChar: Eacute
Encoding: 201 201 194
Width: 569
VWidth: 0
Flags: HMW
LayerCount: 2
Fore
SplineSet
136 0 m 1
 157 122 l 1
 503 122 l 1
 481 0 l 1
 136 0 l 1
235 578 m 1
 256 700 l 1
 601 700 l 1
 580 578 l 1
 235 578 l 1
189 311 m 1
 210 431 l 1
 536 431 l 1
 515 311 l 1
 189 311 l 1
164 700 m 1
 304 700 l 1
 183 0 l 1
 46 0 l 1
 164 700 l 1
568 926 m 1
 370 780 l 1
 301 820 l 1
 472 977 l 1
 568 926 l 1
EndSplineSet
EndChar

StartChar: Ecircumflex
Encoding: 202 202 195
Width: 569
VWidth: 0
Flags: HMW
LayerCount: 2
Fore
SplineSet
136 0 m 1
 157 122 l 1
 503 122 l 1
 481 0 l 1
 136 0 l 1
235 578 m 1
 256 700 l 1
 601 700 l 1
 580 578 l 1
 235 578 l 1
189 311 m 1
 210 431 l 1
 536 431 l 1
 515 311 l 1
 189 311 l 1
164 700 m 1
 304 700 l 1
 183 0 l 1
 46 0 l 1
 164 700 l 1
422 878 m 1
 298 784 l 1
 253 826 l 1
 430 964 l 1
 565 822 l 1
 512 784 l 1
 422 878 l 1
EndSplineSet
EndChar

StartChar: Edieresis
Encoding: 203 203 196
Width: 569
VWidth: 0
Flags: HMW
LayerCount: 2
Fore
SplineSet
136 0 m 1
 157 122 l 1
 503 122 l 1
 481 0 l 1
 136 0 l 1
235 578 m 1
 256 700 l 1
 601 700 l 1
 580 578 l 1
 235 578 l 1
189 311 m 1
 210 431 l 1
 536 431 l 1
 515 311 l 1
 189 311 l 1
164 700 m 1
 304 700 l 1
 183 0 l 1
 46 0 l 1
 164 700 l 1
450 861 m 0
 455 901 497 934 538 933 c 0
 579 932 609 899 604 858 c 0
 599 818 558 785 517 786 c 0
 476 787 445 820 450 861 c 0
226 861 m 0
 231 901 272 934 313 933 c 0
 354 932 385 899 380 858 c 0
 375 818 334 785 293 786 c 0
 252 787 221 820 226 861 c 0
EndSplineSet
EndChar

StartChar: Igrave
Encoding: 204 204 197
Width: 289
VWidth: 0
Flags: HMW
LayerCount: 2
Fore
SplineSet
164 700 m 1
 310 700 l 1
 190 0 l 1
 46 0 l 1
 164 700 l 1
124 931 m 1
 231 978 l 1
 352 816 l 1
 276 779 l 1
 124 931 l 1
EndSplineSet
EndChar

StartChar: Iacute
Encoding: 205 205 198
Width: 289
VWidth: 0
Flags: HMW
LayerCount: 2
Fore
SplineSet
164 700 m 1
 310 700 l 1
 190 0 l 1
 46 0 l 1
 164 700 l 1
418 926 m 1
 220 779 l 1
 151 820 l 1
 322 977 l 1
 418 926 l 1
EndSplineSet
EndChar

StartChar: Icircumflex
Encoding: 206 206 199
Width: 289
VWidth: 0
Flags: HMW
LayerCount: 2
Fore
SplineSet
164 700 m 1
 310 700 l 1
 190 0 l 1
 46 0 l 1
 164 700 l 1
266 878 m 1
 142 784 l 1
 97 826 l 1
 274 964 l 1
 410 822 l 1
 357 784 l 1
 266 878 l 1
EndSplineSet
EndChar

StartChar: Idieresis
Encoding: 207 207 200
Width: 289
VWidth: 0
Flags: HMW
LayerCount: 2
Fore
SplineSet
164 700 m 1
 310 700 l 1
 190 0 l 1
 46 0 l 1
 164 700 l 1
298 850 m 0
 303 890 344 923 385 922 c 0
 426 921 457 888 452 847 c 0
 447 807 406 774 365 775 c 0
 323 776 293 809 298 850 c 0
74 850 m 0
 79 890 119 923 160 922 c 0
 201 921 233 888 228 847 c 0
 223 807 181 774 140 775 c 0
 98 776 69 809 74 850 c 0
EndSplineSet
EndChar

StartChar: Ntilde
Encoding: 209 209 201
Width: 764
VWidth: 0
Flags: HMW
LayerCount: 2
Fore
SplineSet
647 700 m 1
 786 700 l 1
 660 -34 l 1
 258 431 l 1
 184 0 l 1
 45 0 l 1
 170 734 l 1
 572 269 l 1
 647 700 l 1
291 823 m 1
 311 868 357 914 415 912 c 0
 469 911 486 860 535 862 c 0
 562 863 585 887 606 913 c 1
 660 846 l 1
 635 809 584 765 527 767 c 0
 479 769 451 819 406 817 c 0
 372 815 357 785 349 767 c 1
 291 823 l 1
EndSplineSet
EndChar

StartChar: Eth
Encoding: 208 208 202
Width: 695
VWidth: 0
Flags: HMW
LayerCount: 2
Fore
SplineSet
29 305 m 1
 46 397 l 1
 373 397 l 1
 357 305 l 1
 29 305 l 1
164 700 m 1
 312 700 l 1
 192 0 l 1
 46 0 l 1
 164 700 l 1
282 0 m 1
 135 0 l 1
 159 132 l 1
 292 132 l 1
 420 135 526 211 549 350 c 0
 570 483 500 565 375 568 c 1
 232 568 l 1
 256 700 l 1
 393 700 l 1
 604 697 726 550 696 350 c 0
 664 143 498 3 282 0 c 1
EndSplineSet
EndChar

StartChar: Ograve
Encoding: 210 210 203
Width: 787
VWidth: 0
Flags: HMW
LayerCount: 2
Fore
SplineSet
217 350 m 0
 199 233 255 122 383 121 c 0
 513 120 615 225 636 350 c 0
 655 468 600 578 470 579 c 0
 340 580 238 475 217 350 c 0
66 350 m 0
 97 554 273 714 484 714 c 0
 692 714 817 547 788 350 c 0
 757 145 582 -19 368 -19 c 0
 158 -19 37 153 66 350 c 0
390 931 m 1
 496 978 l 1
 617 816 l 1
 542 779 l 1
 390 931 l 1
EndSplineSet
EndChar

StartChar: Oacute
Encoding: 211 211 204
Width: 787
VWidth: 0
Flags: HMW
LayerCount: 2
Fore
SplineSet
217 350 m 0
 199 233 255 122 383 121 c 0
 513 120 615 225 636 350 c 0
 655 468 600 578 470 579 c 0
 340 580 238 475 217 350 c 0
66 350 m 0
 97 554 273 714 484 714 c 0
 692 714 817 547 788 350 c 0
 757 145 582 -19 368 -19 c 0
 158 -19 37 153 66 350 c 0
673 926 m 1
 475 780 l 1
 406 820 l 1
 576 977 l 1
 673 926 l 1
EndSplineSet
EndChar

StartChar: Ocircumflex
Encoding: 212 212 205
Width: 787
VWidth: 0
Flags: HMW
LayerCount: 2
Fore
SplineSet
217 350 m 0
 199 233 255 122 383 121 c 0
 513 120 615 225 636 350 c 0
 655 468 600 578 470 579 c 0
 340 580 238 475 217 350 c 0
66 350 m 0
 97 554 274 714 485 714 c 0
 693 714 817 547 788 350 c 0
 757 145 582 -19 368 -19 c 0
 158 -19 37 153 66 350 c 0
527 878 m 1
 403 784 l 1
 358 826 l 1
 535 964 l 1
 670 822 l 1
 617 784 l 1
 527 878 l 1
EndSplineSet
EndChar

StartChar: Otilde
Encoding: 213 213 206
Width: 787
VWidth: 0
Flags: HMW
LayerCount: 2
Fore
SplineSet
217 350 m 0
 199 233 255 122 383 121 c 0
 513 120 615 225 636 350 c 0
 655 468 600 578 470 579 c 0
 340 580 238 475 217 350 c 0
66 350 m 0
 97 554 274 714 485 714 c 0
 693 714 817 547 788 350 c 0
 757 145 582 -19 368 -19 c 0
 158 -19 37 153 66 350 c 0
350 834 m 1
 350 878 426 913 462 913 c 0
 514 912 528 866 575 868 c 0
 599 869 618 891 638 915 c 1
 679 870 l 1
 656 836 616 797 567 799 c 0
 521 801 499 846 457 845 c 0
 421 844 407 813 399 795 c 1
 350 834 l 1
EndSplineSet
EndChar

StartChar: Odieresis
Encoding: 214 214 207
Width: 787
VWidth: 0
Flags: HMW
LayerCount: 2
Fore
SplineSet
217 350 m 0
 199 233 255 122 383 121 c 0
 513 120 615 225 636 350 c 0
 655 468 600 578 470 579 c 0
 340 580 238 475 217 350 c 0
66 350 m 0
 97 554 273 714 484 714 c 0
 692 714 817 547 788 350 c 0
 757 145 582 -19 368 -19 c 0
 158 -19 37 153 66 350 c 0
547 850 m 0
 552 890 593 923 634 922 c 0
 675 921 706 888 701 847 c 0
 696 807 655 774 614 775 c 0
 573 776 542 809 547 850 c 0
323 850 m 0
 328 890 369 923 410 922 c 0
 451 921 482 888 477 847 c 0
 472 807 431 774 390 775 c 0
 349 776 318 809 323 850 c 0
EndSplineSet
EndChar

StartChar: Ugrave
Encoding: 217 217 208
Width: 658
VWidth: 0
Flags: HMW
LayerCount: 2
Fore
SplineSet
160 700 m 1
 303 700 l 1
 223 239 l 2
 214 170 238 109 317 108 c 0
 397 107 448 166 462 239 c 1
 542 700 l 1
 685 700 l 1
 605 230 l 2
 579 76 458 -23 303 -23 c 0
 152 -23 60 78 80 230 c 1
 160 700 l 1
313 926 m 1
 419 974 l 1
 540 811 l 1
 465 774 l 1
 313 926 l 1
EndSplineSet
EndChar

StartChar: Uacute
Encoding: 218 218 209
Width: 658
VWidth: 0
Flags: HMW
LayerCount: 2
Fore
SplineSet
160 700 m 1
 303 700 l 1
 223 239 l 2
 214 170 238 109 317 108 c 0
 397 107 448 166 462 239 c 1
 542 700 l 1
 685 700 l 1
 605 230 l 2
 579 76 458 -23 303 -23 c 0
 152 -23 60 78 80 230 c 1
 160 700 l 1
609 922 m 1
 411 775 l 1
 341 816 l 1
 512 973 l 1
 609 922 l 1
EndSplineSet
EndChar

StartChar: Ucircumflex
Encoding: 219 219 210
Width: 658
VWidth: 0
Flags: HMW
LayerCount: 2
Fore
SplineSet
160 700 m 1
 303 700 l 1
 223 239 l 2
 214 170 238 109 317 108 c 0
 397 107 448 166 462 239 c 1
 542 700 l 1
 685 700 l 1
 605 230 l 2
 579 76 458 -23 303 -23 c 0
 152 -23 60 78 80 230 c 1
 160 700 l 1
453 862 m 1
 344 775 l 1
 264 839 l 1
 466 977 l 1
 627 835 l 1
 531 774 l 1
 453 862 l 1
EndSplineSet
EndChar

StartChar: Udieresis
Encoding: 220 220 211
Width: 658
VWidth: 0
Flags: HMW
LayerCount: 2
Fore
SplineSet
160 700 m 1
 303 700 l 1
 223 239 l 2
 214 170 238 109 317 108 c 0
 397 107 448 166 462 239 c 1
 542 700 l 1
 685 700 l 1
 605 230 l 2
 579 76 458 -23 303 -23 c 0
 152 -23 60 78 80 230 c 1
 160 700 l 1
495 850 m 0
 500 890 542 923 583 922 c 0
 624 921 655 888 650 847 c 0
 645 807 604 774 563 775 c 0
 522 776 490 809 495 850 c 0
245 850 m 0
 250 890 291 923 332 922 c 0
 373 921 404 888 399 847 c 0
 394 807 353 774 312 775 c 0
 271 776 240 809 245 850 c 0
EndSplineSet
EndChar

StartChar: Yacute
Encoding: 221 221 212
Width: 612
VWidth: 0
Flags: HMW
LayerCount: 2
Fore
SplineSet
586 922 m 1
 388 775 l 1
 319 816 l 1
 489 973 l 1
 586 922 l 1
541 700 m 1
 708 700 l 1
 401 286 l 1
 352 0 l 1
 207 0 l 1
 258 293 l 1
 94 700 l 1
 254 700 l 1
 349 422 l 1
 541 700 l 1
EndSplineSet
EndChar

StartChar: agrave
Encoding: 224 224 213
Width: 585
VWidth: 0
Flags: HMW
LayerCount: 2
Fore
SplineSet
452 460 m 1
 580 460 l 1
 500 0 l 1
 374 0 l 1
 452 460 l 1
43 230 m 0
 62 367 170 471 295 470 c 0
 419 469 467 355 451 230 c 0
 433 99 345 -10 222 -10 c 0
 97 -10 26 99 43 230 c 0
177 230 m 0
 167 161 201 100 270 99 c 0
 334 98 398 157 410 230 c 0
 420 298 384 359 322 361 c 0
 252 363 189 303 177 230 c 0
212 682 m 1
 318 730 l 1
 439 567 l 1
 364 530 l 1
 212 682 l 1
EndSplineSet
Substitution2: "alt a" agrave.alt
EndChar

StartChar: aacute
Encoding: 225 225 214
Width: 585
VWidth: 0
Flags: HMW
LayerCount: 2
Fore
SplineSet
452 460 m 1
 580 460 l 1
 500 0 l 1
 374 0 l 1
 452 460 l 1
43 230 m 0
 62 367 170 471 295 470 c 0
 419 469 467 355 451 230 c 0
 433 99 345 -10 222 -10 c 0
 97 -10 26 99 43 230 c 0
177 230 m 0
 167 161 201 100 270 99 c 0
 334 98 398 157 410 230 c 0
 420 298 384 359 322 361 c 0
 252 363 189 303 177 230 c 0
510 678 m 1
 312 531 l 1
 243 572 l 1
 414 729 l 1
 510 678 l 1
EndSplineSet
Substitution2: "alt a" aacute.alt
EndChar

StartChar: acircumflex
Encoding: 226 226 215
Width: 585
VWidth: 0
Flags: HMW
LayerCount: 2
Fore
SplineSet
452 460 m 1
 580 460 l 1
 500 0 l 1
 374 0 l 1
 452 460 l 1
43 230 m 0
 62 367 170 471 295 470 c 0
 419 469 467 355 451 230 c 0
 433 99 345 -10 222 -10 c 0
 97 -10 26 99 43 230 c 0
177 230 m 0
 167 161 201 100 270 99 c 0
 334 98 398 157 410 230 c 0
 420 298 384 359 322 361 c 0
 252 363 189 303 177 230 c 0
378 618 m 1
 269 531 l 1
 188 595 l 1
 391 733 l 1
 552 591 l 1
 457 530 l 1
 378 618 l 1
EndSplineSet
Substitution2: "alt a" acircumflex.alt
EndChar

StartChar: atilde
Encoding: 227 227 216
Width: 585
VWidth: 0
Flags: HMW
LayerCount: 2
Fore
SplineSet
452 460 m 1
 580 460 l 1
 500 0 l 1
 374 0 l 1
 452 460 l 1
43 230 m 0
 62 367 170 471 295 470 c 0
 419 469 467 355 451 230 c 0
 433 99 345 -10 222 -10 c 0
 97 -10 26 99 43 230 c 0
177 230 m 0
 167 161 201 100 270 99 c 0
 334 98 398 157 410 230 c 0
 420 298 384 359 322 361 c 0
 252 363 189 303 177 230 c 0
191 589 m 1
 211 636 257 678 315 678 c 0
 369 678 387 627 436 629 c 0
 463 630 486 654 507 680 c 1
 561 613 l 1
 536 576 485 531 428 533 c 0
 380 535 351 585 306 583 c 0
 272 581 259 551 250 533 c 1
 191 589 l 1
EndSplineSet
Substitution2: "alt a" atilde.alt
EndChar

StartChar: adieresis
Encoding: 228 228 217
Width: 585
VWidth: 0
Flags: HMW
LayerCount: 2
Fore
SplineSet
452 460 m 1
 580 460 l 1
 500 0 l 1
 374 0 l 1
 452 460 l 1
43 230 m 0
 62 367 170 471 295 470 c 0
 419 469 467 355 451 230 c 0
 433 99 345 -10 222 -10 c 0
 97 -10 26 99 43 230 c 0
177 230 m 0
 167 161 201 100 270 99 c 0
 334 98 398 157 410 230 c 0
 420 298 384 359 322 361 c 0
 252 363 189 303 177 230 c 0
403 606 m 0
 408 646 449 679 490 678 c 0
 531 677 562 644 557 603 c 0
 552 563 511 530 470 531 c 0
 429 532 398 565 403 606 c 0
179 606 m 0
 184 646 225 679 266 678 c 0
 307 677 338 644 333 603 c 0
 328 563 287 530 246 531 c 0
 205 532 174 565 179 606 c 0
EndSplineSet
Substitution2: "alt a" adieresis.alt
EndChar

StartChar: aring
Encoding: 229 229 218
Width: 585
VWidth: 0
Flags: HMW
LayerCount: 2
Fore
SplineSet
452 460 m 1
 580 460 l 1
 500 0 l 1
 374 0 l 1
 452 460 l 1
43 230 m 0
 62 367 170 471 295 470 c 0
 419 469 467 355 451 230 c 0
 433 99 345 -10 222 -10 c 0
 97 -10 26 99 43 230 c 0
177 230 m 0
 167 161 201 100 270 99 c 0
 334 98 398 157 410 230 c 0
 420 298 384 359 322 361 c 0
 252 363 189 303 177 230 c 0
244 642 m 0
 252 704 312 752 375 752 c 0
 438 752 485 703 476 640 c 0
 468 577 407 531 344 531 c 0
 281 531 235 580 244 642 c 0
313 641 m 0
 310 617 325 593 348 593 c 0
 372 593 403 616 406 642 c 0
 409 666 393 690 370 690 c 0
 346 690 316 667 313 641 c 0
EndSplineSet
Substitution2: "alt a" aring.alt
EndChar

StartChar: germandbls
Encoding: 223 223 219
Width: 568
VWidth: 0
Flags: HMW
LayerCount: 2
Fore
SplineSet
260 109 m 1
 340 116 411 167 426 249 c 0
 441 325 385 373 293 378 c 1
 307 468 l 1
 457 463 574 371 552 224 c 0
 529 74 397 -5 242 -10 c 1
 260 109 l 1
299 417 m 1
 311 498 l 1
 386 502 436 533 446 588 c 0
 454 638 425 675 366 675 c 0
 311 675 267 644 259 592 c 2
 157 0 l 1
 31 0 l 1
 135 606 l 2
 154 720 258 794 379 794 c 0
 509 794 591 718 574 606 c 0
 554 479 445 421 299 417 c 1
EndSplineSet
EndChar

StartChar: ae
Encoding: 230 230 220
Width: 849
VWidth: 0
Flags: HMW
LayerCount: 2
Fore
SplineSet
149 136 m 0
 143 100 170 83 209 82 c 0
 274 80 322 119 337 184 c 1
 393 128 l 1
 371 39 292 -10 184 -10 c 0
 83 -10 4 37 18 128 c 0
 32 226 128 281 234 281 c 0
 298 281 351 256 379 228 c 1
 370 165 l 1
 336 191 300 206 253 205 c 0
 202 204 156 180 149 136 c 0
143 328 m 1
 109 419 l 1
 164 445 232 472 309 472 c 0
 415 471 458 418 446 326 c 1
 413 130 l 1
 329 130 l 1
 359 299 l 1
 363 339 336 367 291 369 c 0
 232 372 177 345 143 328 c 1
410 202 m 1
 423 280 l 1
 820 281 l 1
 824 201 l 1
 410 202 l 1
697 246 m 2
 705 312 695 375 623 377 c 0
 553 379 503 324 489 256 c 1
 482 230 l 1
 471 153 496 93 568 90 c 0
 623 88 668 118 699 155 c 1
 809 119 l 1
 751 43 675 -11 559 -10 c 0
 413 -9 357 102 379 230 c 0
 382 247 390 263 396 279 c 0
 434 387 523 471 651 470 c 0
 781 469 847 365 831 236 c 0
 830 226 828 215 825 202 c 1
 693 222 l 1
 697 246 l 2
EndSplineSet
EndChar

StartChar: ccedilla
Encoding: 231 231 221
Width: 474
VWidth: 0
Flags: HMW
LayerCount: 2
Fore
SplineSet
172 230 m 0
 161 159 200 100 274 98 c 0
 335 97 391 129 427 169 c 1
 408 36 l 1
 368 8 317 -10 255 -10 c 0
 113 -10 20 94 40 230 c 0
 61 369 184 470 329 470 c 0
 388 470 435 452 471 424 c 1
 451 290 l 1
 428 335 381 362 327 362 c 0
 252 362 185 303 172 230 c 0
217 59 m 1
 314 57 l 1
 214 -62 l 1
 222 -60 230 -59 239 -59 c 0
 282 -62 317 -98 311 -151 c 0
 302 -216 236 -253 176 -254 c 0
 128 -255 92 -241 53 -214 c 1
 102 -156 l 1
 123 -171 146 -180 168 -180 c 0
 195 -180 227 -165 229 -142 c 0
 231 -119 205 -110 181 -110 c 0
 163 -109 131 -116 103 -126 c 1
 217 59 l 1
EndSplineSet
EndChar

StartChar: egrave
Encoding: 232 232 222
Width: 539
VWidth: 0
Flags: HMW
LayerCount: 2
Fore
SplineSet
113 202 m 1
 125 280 l 1
 390 281 l 1
 390 334 372 376 313 377 c 0
 243 379 193 322 179 255 c 1
 172 230 l 1
 161 153 187 93 259 90 c 0
 314 88 359 118 390 155 c 1
 500 119 l 1
 442 43 365 -11 249 -10 c 0
 102 -9 24 98 43 230 c 0
 45 247 49 263 54 279 c 0
 90 391 191 470 324 470 c 0
 469 470 538 371 521 236 c 0
 520 226 518 215 515 202 c 1
 113 202 l 1
211 688 m 1
 318 735 l 1
 439 573 l 1
 364 536 l 1
 211 688 l 1
EndSplineSet
EndChar

StartChar: eacute
Encoding: 233 233 223
Width: 539
VWidth: 0
Flags: HMW
LayerCount: 2
Fore
SplineSet
113 202 m 1
 125 280 l 1
 390 281 l 1
 390 334 372 376 313 377 c 0
 243 379 193 322 179 255 c 1
 172 230 l 1
 161 153 187 93 259 90 c 0
 314 88 359 118 390 155 c 1
 500 119 l 1
 442 43 365 -11 249 -10 c 0
 102 -9 24 98 43 230 c 0
 45 247 49 263 54 279 c 0
 90 391 191 470 324 470 c 0
 469 470 538 371 521 236 c 0
 520 226 518 215 515 202 c 1
 113 202 l 1
530 683 m 1
 332 537 l 1
 262 577 l 1
 433 734 l 1
 530 683 l 1
EndSplineSet
EndChar

StartChar: ecircumflex
Encoding: 234 234 224
Width: 539
VWidth: 0
Flags: HMW
LayerCount: 2
Fore
SplineSet
113 202 m 1
 125 280 l 1
 390 281 l 1
 390 334 372 376 313 377 c 0
 243 379 193 322 179 255 c 1
 172 230 l 1
 161 153 187 93 259 90 c 0
 314 88 359 118 390 155 c 1
 500 119 l 1
 442 43 365 -11 249 -10 c 0
 102 -9 24 98 43 230 c 0
 45 247 49 263 54 279 c 0
 90 391 191 470 324 470 c 0
 469 470 538 371 521 236 c 0
 520 226 518 215 515 202 c 1
 113 202 l 1
356 618 m 1
 247 531 l 1
 167 595 l 1
 369 733 l 1
 530 591 l 1
 435 530 l 1
 356 618 l 1
EndSplineSet
EndChar

StartChar: edieresis
Encoding: 235 235 225
Width: 539
VWidth: 0
Flags: HMW
LayerCount: 2
Fore
SplineSet
113 202 m 1
 125 280 l 1
 390 281 l 1
 390 334 372 376 313 377 c 0
 243 379 193 322 179 255 c 1
 172 230 l 1
 161 153 187 93 259 90 c 0
 314 88 359 118 390 155 c 1
 500 119 l 1
 442 43 365 -11 249 -10 c 0
 102 -9 24 98 43 230 c 0
 45 247 49 263 54 279 c 0
 90 391 191 470 324 470 c 0
 469 470 538 371 521 236 c 0
 520 226 518 215 515 202 c 1
 113 202 l 1
386 606 m 0
 391 646 432 679 473 678 c 0
 514 677 545 644 540 603 c 0
 535 563 494 530 453 531 c 0
 412 532 381 565 386 606 c 0
161 606 m 0
 166 646 208 679 249 678 c 0
 290 677 321 644 316 603 c 0
 311 563 269 530 228 531 c 0
 187 532 156 565 161 606 c 0
EndSplineSet
EndChar

StartChar: igrave
Encoding: 236 236 226
Width: 263
VWidth: 0
Flags: HMW
LayerCount: 2
Fore
SplineSet
119 460 m 1
 247 460 l 1
 167 0 l 1
 42 0 l 1
 119 460 l 1
53 693 m 1
 160 741 l 1
 281 578 l 1
 205 542 l 1
 53 693 l 1
EndSplineSet
EndChar

StartChar: dotlessi
Encoding: 305 305 227
Width: 263
VWidth: 0
Flags: HMW
LayerCount: 2
Fore
SplineSet
119 460 m 1
 247 460 l 1
 167 0 l 1
 42 0 l 1
 119 460 l 1
EndSplineSet
EndChar

StartChar: kgreenlandic
Encoding: 312 312 228
Width: 521
VWidth: 0
Flags: HMW
LayerCount: 2
Fore
SplineSet
109 460 m 1
 235 460 l 1
 156 0 l 1
 31 0 l 1
 109 460 l 1
393 460 m 1
 554 460 l 1
 325 267 l 1
 489 0 l 1
 341 0 l 1
 173 274 l 1
 393 460 l 1
EndSplineSet
EndChar

StartChar: iacute
Encoding: 237 237 229
Width: 263
VWidth: 0
Flags: HMW
LayerCount: 2
Fore
SplineSet
119 460 m 1
 247 460 l 1
 167 0 l 1
 42 0 l 1
 119 460 l 1
387 689 m 1
 189 542 l 1
 120 583 l 1
 290 740 l 1
 387 689 l 1
EndSplineSet
EndChar

StartChar: icircumflex
Encoding: 238 238 230
Width: 263
VWidth: 0
Flags: HMW
LayerCount: 2
Fore
SplineSet
119 460 m 1
 247 460 l 1
 167 0 l 1
 42 0 l 1
 119 460 l 1
214 623 m 1
 105 536 l 1
 25 601 l 1
 227 738 l 1
 388 596 l 1
 293 536 l 1
 214 623 l 1
EndSplineSet
EndChar

StartChar: idieresis
Encoding: 239 239 231
Width: 263
VWidth: 0
Flags: HMW
LayerCount: 2
Fore
SplineSet
119 460 m 1
 247 460 l 1
 167 0 l 1
 42 0 l 1
 119 460 l 1
246 622 m 0
 251 662 292 696 333 695 c 0
 374 694 405 661 400 620 c 0
 395 580 354 547 313 548 c 0
 272 549 241 581 246 622 c 0
21 622 m 0
 26 662 68 696 109 695 c 0
 150 694 181 661 176 620 c 0
 171 580 130 547 89 548 c 0
 48 549 16 581 21 622 c 0
EndSplineSet
EndChar

StartChar: ntilde
Encoding: 241 241 232
Width: 543
VWidth: 0
Flags: HMW
LayerCount: 2
Fore
SplineSet
242 460 m 1
 163 0 l 1
 33 0 l 1
 113 460 l 1
 242 460 l 1
372 280 m 1
 377 329 370 369 317 372 c 0
 262 375 223 330 211 281 c 1
 178 277 l 1
 197 378 263 470 373 470 c 0
 480 470 518 395 506 294 c 1
 456 0 l 1
 322 0 l 1
 372 280 l 1
163 590 m 1
 183 635 229 680 287 678 c 0
 341 677 358 627 407 629 c 0
 434 630 457 654 478 680 c 1
 533 613 l 1
 508 576 456 531 399 533 c 0
 351 535 323 585 278 583 c 0
 244 581 229 551 221 533 c 1
 163 590 l 1
EndSplineSet
EndChar

StartChar: ograve
Encoding: 242 242 233
Width: 559
VWidth: 0
Flags: HMW
LayerCount: 2
Fore
SplineSet
43 230 m 0
 63 368 185 470 329 470 c 0
 470 470 561 365 542 230 c 0
 522 92 398 -10 255 -10 c 0
 114 -10 24 95 43 230 c 0
175 230 m 0
 165 163 197 102 266 101 c 0
 336 100 398 159 410 230 c 0
 420 297 387 358 318 359 c 0
 248 360 187 301 175 230 c 0
216 693 m 1
 322 741 l 1
 443 578 l 1
 368 542 l 1
 216 693 l 1
EndSplineSet
EndChar

StartChar: oacute
Encoding: 243 243 234
Width: 559
VWidth: 0
Flags: HMW
LayerCount: 2
Fore
SplineSet
43 230 m 0
 63 368 185 470 329 470 c 0
 470 470 561 365 542 230 c 0
 522 92 398 -10 255 -10 c 0
 114 -10 24 95 43 230 c 0
175 230 m 0
 165 163 197 102 266 101 c 0
 336 100 398 159 410 230 c 0
 420 297 387 358 318 359 c 0
 248 360 187 301 175 230 c 0
527 689 m 1
 329 542 l 1
 260 583 l 1
 430 740 l 1
 527 689 l 1
EndSplineSet
EndChar

StartChar: ocircumflex
Encoding: 244 244 235
Width: 559
VWidth: 0
Flags: HMW
LayerCount: 2
Fore
SplineSet
43 230 m 0
 63 368 185 470 329 470 c 0
 470 470 561 365 542 230 c 0
 522 92 398 -10 255 -10 c 0
 114 -10 24 95 43 230 c 0
175 230 m 0
 165 163 197 102 266 101 c 0
 336 100 398 159 410 230 c 0
 420 297 387 358 318 359 c 0
 248 360 187 301 175 230 c 0
364 629 m 1
 255 542 l 1
 174 606 l 1
 377 744 l 1
 537 602 l 1
 442 541 l 1
 364 629 l 1
EndSplineSet
EndChar

StartChar: otilde
Encoding: 245 245 236
Width: 559
VWidth: 0
Flags: HMW
LayerCount: 2
Fore
SplineSet
43 230 m 0
 63 368 185 470 329 470 c 0
 470 470 561 365 542 230 c 0
 522 92 398 -10 255 -10 c 0
 114 -10 24 95 43 230 c 0
175 230 m 0
 165 163 197 102 266 101 c 0
 336 100 398 159 410 230 c 0
 420 297 387 358 318 359 c 0
 248 360 187 301 175 230 c 0
171 589 m 1
 171 636 249 678 295 678 c 0
 349 677 366 627 415 629 c 0
 442 630 465 654 486 680 c 1
 541 613 l 1
 516 576 464 531 407 533 c 0
 359 535 331 585 286 583 c 0
 252 581 237 551 229 533 c 1
 171 589 l 1
EndSplineSet
EndChar

StartChar: odieresis
Encoding: 246 246 237
Width: 559
VWidth: 0
Flags: HMW
LayerCount: 2
Fore
SplineSet
43 230 m 0
 63 368 185 470 329 470 c 0
 470 470 561 365 542 230 c 0
 522 92 398 -10 255 -10 c 0
 114 -10 24 95 43 230 c 0
175 230 m 0
 165 163 197 102 266 101 c 0
 336 100 398 159 410 230 c 0
 420 297 387 358 318 359 c 0
 248 360 187 301 175 230 c 0
394 622 m 0
 399 662 440 696 481 695 c 0
 522 694 553 661 548 620 c 0
 543 580 502 547 461 548 c 0
 420 549 389 581 394 622 c 0
170 622 m 0
 175 662 216 696 257 695 c 0
 298 694 329 661 324 620 c 0
 319 580 278 547 237 548 c 0
 196 549 165 581 170 622 c 0
EndSplineSet
EndChar

StartChar: ugrave
Encoding: 249 249 238
Width: 543
VWidth: 0
Flags: HMW
LayerCount: 2
Fore
SplineSet
326 0 m 1
 405 460 l 1
 535 460 l 1
 456 0 l 1
 326 0 l 1
197 180 m 1
 192 131 199 91 251 88 c 0
 306 85 345 130 357 179 c 1
 390 183 l 1
 371 82 305 -10 195 -10 c 0
 88 -10 50 65 62 166 c 1
 113 460 l 1
 246 460 l 1
 197 180 l 1
229 693 m 1
 336 741 l 1
 456 578 l 1
 381 542 l 1
 229 693 l 1
EndSplineSet
EndChar

StartChar: uacute
Encoding: 250 250 239
Width: 543
VWidth: 0
Flags: HMW
LayerCount: 2
Fore
SplineSet
326 0 m 1
 405 460 l 1
 535 460 l 1
 456 0 l 1
 326 0 l 1
197 180 m 1
 192 131 199 91 251 88 c 0
 306 85 345 130 357 179 c 1
 390 183 l 1
 371 82 305 -10 195 -10 c 0
 88 -10 50 65 62 166 c 1
 113 460 l 1
 246 460 l 1
 197 180 l 1
497 689 m 1
 299 542 l 1
 230 583 l 1
 401 740 l 1
 497 689 l 1
EndSplineSet
EndChar

StartChar: ucircumflex
Encoding: 251 251 240
Width: 543
VWidth: 0
Flags: HMW
LayerCount: 2
Fore
SplineSet
326 0 m 1
 405 460 l 1
 535 460 l 1
 456 0 l 1
 326 0 l 1
197 180 m 1
 192 131 199 91 251 88 c 0
 306 85 345 130 357 179 c 1
 390 183 l 1
 371 82 305 -10 195 -10 c 0
 88 -10 50 65 62 166 c 1
 113 460 l 1
 246 460 l 1
 197 180 l 1
355 629 m 1
 246 542 l 1
 166 606 l 1
 368 744 l 1
 529 602 l 1
 434 541 l 1
 355 629 l 1
EndSplineSet
EndChar

StartChar: udieresis
Encoding: 252 252 241
Width: 543
VWidth: 0
Flags: HMW
LayerCount: 2
Fore
SplineSet
326 0 m 1
 405 460 l 1
 535 460 l 1
 456 0 l 1
 326 0 l 1
197 180 m 1
 192 131 199 91 251 88 c 0
 306 85 345 130 357 179 c 1
 390 183 l 1
 371 82 305 -10 195 -10 c 0
 88 -10 50 65 62 166 c 1
 113 460 l 1
 246 460 l 1
 197 180 l 1
386 617 m 0
 391 657 431 690 472 689 c 0
 513 688 545 655 540 614 c 0
 535 574 493 541 452 542 c 0
 410 543 381 576 386 617 c 0
161 617 m 0
 166 657 207 690 248 689 c 0
 289 688 320 655 315 614 c 0
 310 574 269 541 228 542 c 0
 186 543 156 576 161 617 c 0
EndSplineSet
EndChar

StartChar: yacute
Encoding: 253 253 242
Width: 482
VWidth: 0
Flags: HMW
LayerCount: 2
Fore
SplineSet
544 460 m 1
 136 -220 l 1
 0 -220 l 1
 162 49 l 1
 46 460 l 1
 186 460 l 1
 267 93 l 1
 202 96 l 1
 406 460 l 1
 544 460 l 1
481 689 m 1
 283 542 l 1
 214 583 l 1
 384 740 l 1
 481 689 l 1
EndSplineSet
EndChar

StartChar: thorn
Encoding: 254 254 243
Width: 585
VWidth: 0
Flags: HMW
LayerCount: 2
Fore
SplineSet
123 -220 m 1
 -7 -220 l 1
 165 780 l 1
 294 780 l 1
 123 -220 l 1
567 230 m 0
 548 93 439 -11 314 -10 c 0
 190 -9 142 105 158 230 c 0
 176 361 266 470 388 470 c 0
 513 470 584 361 567 230 c 0
433 230 m 0
 443 299 408 360 339 361 c 0
 275 362 211 303 199 230 c 0
 189 162 226 101 288 99 c 0
 358 97 421 157 433 230 c 0
EndSplineSet
EndChar

StartChar: ydieresis
Encoding: 255 255 244
Width: 482
VWidth: 0
Flags: HMW
LayerCount: 2
Fore
SplineSet
544 460 m 1
 136 -220 l 1
 0 -220 l 1
 162 49 l 1
 46 460 l 1
 186 460 l 1
 267 93 l 1
 202 96 l 1
 406 460 l 1
 544 460 l 1
353 606 m 0
 358 646 399 679 440 678 c 0
 481 677 512 644 507 603 c 0
 502 563 461 530 420 531 c 0
 379 532 348 565 353 606 c 0
129 606 m 0
 134 646 175 679 216 678 c 0
 257 677 288 644 283 603 c 0
 278 563 236 530 195 531 c 0
 154 532 124 565 129 606 c 0
EndSplineSet
EndChar

StartChar: Amacron
Encoding: 256 256 245
Width: 691
VWidth: 0
Flags: HMW
LayerCount: 2
Fore
SplineSet
167 157 m 1
 203 271 l 1
 532 271 l 1
 528 157 l 1
 167 157 l 1
402 471 m 1
 260 230 l 1
 258 198 l 1
 135 0 l 1
 -30 0 l 1
 445 744 l 1
 664 0 l 1
 506 0 l 1
 451 192 l 1
 460 228 l 1
 402 471 l 1
278 802 m 1
 298 917 l 1
 654 917 l 1
 635 802 l 1
 278 802 l 1
EndSplineSet
EndChar

StartChar: amacron
Encoding: 257 257 246
Width: 585
VWidth: 0
Flags: HMW
LayerCount: 2
Fore
SplineSet
452 460 m 1
 580 460 l 1
 500 0 l 1
 374 0 l 1
 452 460 l 1
43 230 m 0
 62 367 170 471 295 470 c 0
 419 469 467 355 451 230 c 0
 433 99 345 -10 222 -10 c 0
 97 -10 26 99 43 230 c 0
177 230 m 0
 167 161 201 100 270 99 c 0
 334 98 398 157 410 230 c 0
 420 298 384 359 322 361 c 0
 252 363 189 303 177 230 c 0
176 536 m 1
 196 651 l 1
 553 651 l 1
 533 536 l 1
 176 536 l 1
EndSplineSet
Substitution2: "alt a" amacron.alt
EndChar

StartChar: breve
Encoding: 728 728 247
Width: 529
VWidth: 0
Flags: HMW
LayerCount: 2
Fore
SplineSet
220 850 m 1
 308 850 l 1
 308 818 322 788 365 787 c 0
 409 786 436 819 446 850 c 1
 537 849 l 1
 520 770 458 706 360 706 c 0
 263 706 216 770 220 850 c 1
EndSplineSet
EndChar

StartChar: Abreve
Encoding: 258 258 248
Width: 691
VWidth: 0
Flags: HMW
LayerCount: 2
Fore
SplineSet
167 157 m 1
 203 271 l 1
 532 271 l 1
 528 157 l 1
 167 157 l 1
402 471 m 1
 260 230 l 1
 258 198 l 1
 135 0 l 1
 -30 0 l 1
 445 744 l 1
 664 0 l 1
 506 0 l 1
 451 192 l 1
 460 228 l 1
 402 471 l 1
321 946 m 1
 409 946 l 1
 409 914 422 884 465 883 c 0
 509 882 536 915 547 946 c 1
 638 945 l 1
 620 866 558 802 460 802 c 0
 362 802 315 866 321 946 c 1
EndSplineSet
EndChar

StartChar: abreve
Encoding: 259 259 249
Width: 585
VWidth: 0
Flags: HMW
LayerCount: 2
Fore
SplineSet
452 460 m 1
 580 460 l 1
 500 0 l 1
 374 0 l 1
 452 460 l 1
43 230 m 0
 62 367 170 471 295 470 c 0
 419 469 467 355 451 230 c 0
 433 99 345 -10 222 -10 c 0
 97 -10 26 99 43 230 c 0
177 230 m 0
 167 161 201 100 270 99 c 0
 334 98 398 157 410 230 c 0
 420 298 384 359 322 361 c 0
 252 363 189 303 177 230 c 0
199 675 m 1
 287 674 l 1
 287 642 301 612 344 611 c 0
 388 610 415 643 425 674 c 1
 516 673 l 1
 498 594 436 531 338 531 c 0
 240 531 194 595 199 675 c 1
EndSplineSet
Substitution2: "alt a" abreve.alt
EndChar

StartChar: Aogonek
Encoding: 260 260 250
Width: 691
VWidth: 0
Flags: HMW
LayerCount: 2
Fore
SplineSet
167 157 m 1
 203 271 l 1
 532 271 l 1
 528 157 l 1
 167 157 l 1
402 471 m 1
 260 230 l 1
 258 198 l 1
 135 0 l 1
 -30 0 l 1
 445 744 l 1
 664 0 l 1
 506 0 l 1
 451 192 l 1
 460 228 l 1
 402 471 l 1
614 -116 m 1
 637 -182 l 1
 614 -202 584 -220 539 -220 c 0
 474 -220 429 -181 437 -119 c 0
 448 -50 524 -8 591 25 c 1
 631 0 l 1
 586 -25 539 -56 532 -96 c 0
 530 -119 538 -134 561 -136 c 0
 581 -138 600 -126 614 -116 c 1
EndSplineSet
EndChar

StartChar: aogonek
Encoding: 261 261 251
Width: 585
VWidth: 0
Flags: HMW
LayerCount: 2
Fore
SplineSet
452 460 m 1
 580 460 l 1
 500 0 l 1
 374 0 l 1
 452 460 l 1
43 230 m 0
 62 367 170 471 295 470 c 0
 419 469 467 355 451 230 c 0
 433 99 345 -10 222 -10 c 0
 97 -10 26 99 43 230 c 0
177 230 m 0
 167 161 201 100 270 99 c 0
 334 98 398 157 410 230 c 0
 420 298 384 359 322 361 c 0
 252 363 189 303 177 230 c 0
461 -116 m 1
 484 -182 l 1
 461 -202 431 -220 386 -220 c 0
 321 -220 276 -181 284 -119 c 0
 295 -50 372 -8 439 25 c 1
 478 0 l 1
 433 -25 387 -56 380 -96 c 0
 378 -119 386 -134 409 -136 c 0
 429 -138 447 -126 461 -116 c 1
EndSplineSet
Substitution2: "alt a" aogonek.alt
EndChar

StartChar: Cacute
Encoding: 262 262 252
Width: 675
VWidth: 0
Flags: HMW
LayerCount: 2
Fore
SplineSet
221 350 m 0
 202 228 272 127 395 125 c 0
 489 124 562 169 621 220 c 1
 597 58 l 1
 534 14 465 -14 373 -14 c 0
 163 -13 37 151 66 350 c 0
 98 557 273 714 488 714 c 0
 576 714 638 688 694 641 c 1
 669 479 l 1
 627 536 566 575 480 575 c 0
 355 575 243 479 221 350 c 0
655 922 m 1
 458 775 l 1
 388 816 l 1
 559 973 l 1
 655 922 l 1
EndSplineSet
EndChar

StartChar: cacute
Encoding: 263 263 253
Width: 474
VWidth: 0
Flags: HMW
LayerCount: 2
Fore
SplineSet
172 230 m 0
 161 159 200 100 274 98 c 0
 335 97 391 129 427 169 c 1
 408 36 l 1
 368 8 317 -10 255 -10 c 0
 113 -10 20 94 40 230 c 0
 61 369 184 470 329 470 c 0
 388 470 435 452 471 424 c 1
 451 290 l 1
 428 335 381 362 327 362 c 0
 252 362 185 303 172 230 c 0
496 678 m 1
 298 531 l 1
 228 572 l 1
 399 729 l 1
 496 678 l 1
EndSplineSet
EndChar

StartChar: Ccircumflex
Encoding: 264 264 254
Width: 675
VWidth: 0
Flags: HMW
LayerCount: 2
Fore
SplineSet
221 350 m 0
 202 228 272 127 395 125 c 0
 489 124 562 169 621 220 c 1
 597 58 l 1
 534 14 465 -14 373 -14 c 0
 163 -13 37 151 66 350 c 0
 98 557 273 714 488 714 c 0
 576 714 638 688 694 641 c 1
 669 479 l 1
 627 536 566 575 480 575 c 0
 355 575 243 479 221 350 c 0
521 862 m 1
 412 775 l 1
 332 839 l 1
 534 977 l 1
 695 835 l 1
 600 774 l 1
 521 862 l 1
EndSplineSet
EndChar

StartChar: ccircumflex
Encoding: 265 265 255
Width: 474
VWidth: 0
Flags: HMW
LayerCount: 2
Fore
SplineSet
172 230 m 0
 161 159 200 100 274 98 c 0
 335 97 391 129 427 169 c 1
 408 36 l 1
 368 8 317 -10 255 -10 c 0
 113 -10 20 94 40 230 c 0
 61 369 184 470 329 470 c 0
 388 470 435 452 471 424 c 1
 451 290 l 1
 428 335 381 362 327 362 c 0
 252 362 185 303 172 230 c 0
340 618 m 1
 231 531 l 1
 150 595 l 1
 352 733 l 1
 514 591 l 1
 418 530 l 1
 340 618 l 1
EndSplineSet
EndChar

StartChar: Cdotaccent
Encoding: 266 266 256
Width: 675
VWidth: 0
Flags: HMW
LayerCount: 2
Fore
SplineSet
221 350 m 0
 202 228 272 127 395 125 c 0
 489 124 562 169 621 220 c 1
 597 58 l 1
 534 14 465 -14 373 -14 c 0
 163 -13 37 151 66 350 c 0
 98 557 273 714 488 714 c 0
 576 714 638 688 694 641 c 1
 669 479 l 1
 627 536 566 575 480 575 c 0
 355 575 243 479 221 350 c 0
421 850 m 0
 426 890 468 923 509 922 c 0
 550 921 580 888 575 847 c 0
 570 807 529 774 488 775 c 0
 447 776 416 809 421 850 c 0
EndSplineSet
EndChar

StartChar: cdotaccent
Encoding: 267 267 257
Width: 474
VWidth: 0
Flags: HMW
LayerCount: 2
Fore
SplineSet
172 230 m 0
 161 159 200 100 274 98 c 0
 335 97 391 129 427 169 c 1
 408 36 l 1
 368 8 317 -10 255 -10 c 0
 113 -10 20 94 40 230 c 0
 61 369 184 470 329 470 c 0
 388 470 435 452 471 424 c 1
 451 290 l 1
 428 335 381 362 327 362 c 0
 252 362 185 303 172 230 c 0
262 610 m 0
 267 650 308 684 349 683 c 0
 390 682 421 649 416 608 c 0
 411 568 370 534 329 535 c 0
 288 536 257 569 262 610 c 0
EndSplineSet
EndChar

StartChar: Ccaron
Encoding: 268 268 258
Width: 675
VWidth: 0
Flags: HMW
LayerCount: 2
Fore
SplineSet
221 350 m 0
 202 228 272 127 395 125 c 0
 489 124 562 169 621 220 c 1
 597 58 l 1
 534 14 465 -14 373 -14 c 0
 163 -13 37 151 66 350 c 0
 98 557 273 714 488 714 c 0
 576 714 638 688 694 641 c 1
 669 479 l 1
 627 536 566 575 480 575 c 0
 355 575 243 479 221 350 c 0
519 889 m 1
 628 976 l 1
 708 912 l 1
 506 774 l 1
 345 917 l 1
 441 977 l 1
 519 889 l 1
EndSplineSet
EndChar

StartChar: ccaron
Encoding: 269 269 259
Width: 474
VWidth: 0
Flags: HMW
LayerCount: 2
Fore
SplineSet
172 230 m 0
 161 159 200 100 274 98 c 0
 335 97 391 129 427 169 c 1
 408 36 l 1
 368 8 317 -10 255 -10 c 0
 113 -10 20 94 40 230 c 0
 61 369 184 470 329 470 c 0
 388 470 435 452 471 424 c 1
 451 290 l 1
 428 335 381 362 327 362 c 0
 252 362 185 303 172 230 c 0
338 645 m 1
 447 732 l 1
 527 668 l 1
 325 530 l 1
 163 673 l 1
 259 733 l 1
 338 645 l 1
EndSplineSet
EndChar

StartChar: Dcaron
Encoding: 270 270 260
Width: 695
VWidth: 0
Flags: HMW
LayerCount: 2
Fore
SplineSet
164 700 m 1
 312 700 l 1
 192 0 l 1
 46 0 l 1
 164 700 l 1
282 0 m 1
 135 0 l 1
 159 132 l 1
 292 132 l 1
 420 135 526 211 549 350 c 0
 570 483 500 565 375 568 c 1
 232 568 l 1
 256 700 l 1
 393 700 l 1
 604 697 726 550 696 350 c 0
 664 143 498 3 282 0 c 1
473 889 m 1
 582 976 l 1
 662 912 l 1
 460 774 l 1
 299 917 l 1
 394 977 l 1
 473 889 l 1
EndSplineSet
EndChar

StartChar: dcaron
Encoding: 271 271 261
Width: 585
VWidth: 0
Flags: HMW
LayerCount: 2
Fore
SplineSet
504 780 m 1
 634 780 l 1
 500 0 l 1
 371 0 l 1
 504 780 l 1
43 230 m 0
 62 367 170 471 295 470 c 0
 419 469 467 355 451 230 c 0
 433 99 345 -10 222 -10 c 0
 97 -10 26 99 43 230 c 0
177 230 m 0
 167 161 201 100 270 99 c 0
 334 98 399 157 411 230 c 0
 421 298 384 359 322 361 c 0
 252 363 189 303 177 230 c 0
744 779 m 1
 871 746 l 1
 711 499 l 1
 615 522 l 1
 744 779 l 1
EndSplineSet
EndChar

StartChar: Dcroat
Encoding: 272 272 262
Width: 695
VWidth: 0
Flags: HMW
LayerCount: 2
Fore
SplineSet
28 301 m 1
 44 394 l 1
 368 394 l 1
 352 301 l 1
 28 301 l 1
164 700 m 1
 312 700 l 1
 192 0 l 1
 46 0 l 1
 164 700 l 1
282 0 m 1
 135 0 l 1
 159 132 l 1
 292 132 l 1
 420 135 526 211 549 350 c 0
 570 483 500 565 375 568 c 1
 232 568 l 1
 256 700 l 1
 393 700 l 1
 604 697 726 550 696 350 c 0
 664 143 498 3 282 0 c 1
EndSplineSet
EndChar

StartChar: dcroat
Encoding: 273 273 263
Width: 585
VWidth: 0
Flags: HMW
LayerCount: 2
Fore
SplineSet
356 572 m 1
 372 665 l 1
 705 665 l 1
 688 572 l 1
 356 572 l 1
504 780 m 1
 634 780 l 1
 500 0 l 1
 371 0 l 1
 504 780 l 1
43 230 m 0
 62 367 170 471 295 470 c 0
 419 469 467 355 451 230 c 0
 433 99 345 -10 222 -10 c 0
 97 -10 26 99 43 230 c 0
177 230 m 0
 167 161 201 100 270 99 c 0
 334 98 399 157 411 230 c 0
 421 298 384 359 322 361 c 0
 252 363 189 303 177 230 c 0
EndSplineSet
EndChar

StartChar: Emacron
Encoding: 274 274 264
Width: 569
VWidth: 0
Flags: HMW
LayerCount: 2
Fore
SplineSet
136 0 m 1
 157 122 l 1
 503 122 l 1
 481 0 l 1
 136 0 l 1
235 578 m 1
 256 700 l 1
 601 700 l 1
 580 578 l 1
 235 578 l 1
189 311 m 1
 210 431 l 1
 536 431 l 1
 515 311 l 1
 189 311 l 1
164 700 m 1
 304 700 l 1
 183 0 l 1
 46 0 l 1
 164 700 l 1
217 775 m 1
 237 890 l 1
 594 890 l 1
 574 774 l 1
 217 775 l 1
EndSplineSet
EndChar

StartChar: emacron
Encoding: 275 275 265
Width: 539
VWidth: 0
Flags: HMW
LayerCount: 2
Fore
SplineSet
113 202 m 1
 125 280 l 1
 390 281 l 1
 390 334 372 376 313 377 c 0
 243 379 193 322 179 255 c 1
 172 230 l 1
 161 153 187 93 259 90 c 0
 314 88 359 118 390 155 c 1
 500 119 l 1
 442 43 365 -11 249 -10 c 0
 102 -9 24 98 43 230 c 0
 45 247 49 263 54 279 c 0
 90 391 191 470 324 470 c 0
 469 470 538 371 521 236 c 0
 520 226 518 215 515 202 c 1
 113 202 l 1
160 531 m 1
 180 645 l 1
 537 645 l 1
 517 530 l 1
 160 531 l 1
EndSplineSet
EndChar

StartChar: Ebreve
Encoding: 276 276 266
Width: 569
VWidth: 0
Flags: HMW
LayerCount: 2
Fore
SplineSet
136 0 m 1
 157 122 l 1
 503 122 l 1
 481 0 l 1
 136 0 l 1
235 578 m 1
 256 700 l 1
 601 700 l 1
 580 578 l 1
 235 578 l 1
189 311 m 1
 210 431 l 1
 536 431 l 1
 515 311 l 1
 189 311 l 1
164 700 m 1
 304 700 l 1
 183 0 l 1
 46 0 l 1
 164 700 l 1
260 919 m 1
 348 919 l 1
 348 887 361 857 404 856 c 0
 448 855 475 887 486 918 c 1
 578 918 l 1
 560 839 497 775 399 775 c 0
 301 775 254 839 260 919 c 1
EndSplineSet
EndChar

StartChar: ebreve
Encoding: 277 277 267
Width: 539
VWidth: 0
Flags: HMW
LayerCount: 2
Fore
SplineSet
113 202 m 1
 125 280 l 1
 390 281 l 1
 390 334 372 376 313 377 c 0
 243 379 193 322 179 255 c 1
 172 230 l 1
 161 153 187 93 259 90 c 0
 314 88 359 118 390 155 c 1
 500 119 l 1
 442 43 365 -11 249 -10 c 0
 102 -9 24 98 43 230 c 0
 45 247 49 263 54 279 c 0
 90 391 191 470 324 470 c 0
 469 470 538 371 521 236 c 0
 520 226 518 215 515 202 c 1
 113 202 l 1
204 675 m 1
 292 675 l 1
 292 643 305 613 348 612 c 0
 392 611 418 643 429 674 c 1
 521 674 l 1
 503 596 440 531 342 531 c 0
 244 531 198 595 204 675 c 1
EndSplineSet
EndChar

StartChar: Edotaccent
Encoding: 278 278 268
Width: 569
VWidth: 0
Flags: HMW
LayerCount: 2
Fore
SplineSet
136 0 m 1
 157 122 l 1
 503 122 l 1
 481 0 l 1
 136 0 l 1
235 578 m 1
 256 700 l 1
 601 700 l 1
 580 578 l 1
 235 578 l 1
189 311 m 1
 210 431 l 1
 536 431 l 1
 515 311 l 1
 189 311 l 1
164 700 m 1
 304 700 l 1
 183 0 l 1
 46 0 l 1
 164 700 l 1
330 850 m 0
 335 890 377 923 418 922 c 0
 459 921 490 888 485 847 c 0
 480 807 438 774 397 775 c 0
 356 776 325 809 330 850 c 0
EndSplineSet
EndChar

StartChar: edotaccent
Encoding: 279 279 269
Width: 539
VWidth: 0
Flags: HMW
LayerCount: 2
Fore
SplineSet
113 202 m 1
 125 280 l 1
 390 281 l 1
 390 334 372 376 313 377 c 0
 243 379 193 322 179 255 c 1
 172 230 l 1
 161 153 187 93 259 90 c 0
 314 88 359 118 390 155 c 1
 500 119 l 1
 442 43 365 -11 249 -10 c 0
 102 -9 24 98 43 230 c 0
 45 247 49 263 54 279 c 0
 90 391 191 470 324 470 c 0
 469 470 538 371 521 236 c 0
 520 226 518 215 515 202 c 1
 113 202 l 1
274 606 m 0
 279 646 320 679 361 678 c 0
 402 677 433 644 428 603 c 0
 423 563 381 530 340 531 c 0
 299 532 269 565 274 606 c 0
EndSplineSet
EndChar

StartChar: Eogonek
Encoding: 280 280 270
Width: 569
VWidth: 0
Flags: HMW
LayerCount: 2
Fore
SplineSet
136 0 m 1
 157 122 l 1
 503 122 l 1
 481 0 l 1
 136 0 l 1
235 578 m 1
 256 700 l 1
 601 700 l 1
 580 578 l 1
 235 578 l 1
189 311 m 1
 210 431 l 1
 536 431 l 1
 515 311 l 1
 189 311 l 1
164 700 m 1
 304 700 l 1
 183 0 l 1
 46 0 l 1
 164 700 l 1
330 -116 m 1
 353 -182 l 1
 330 -202 299 -220 254 -220 c 0
 189 -220 144 -181 152 -119 c 0
 163 -50 240 -8 307 25 c 1
 347 0 l 1
 302 -25 255 -56 248 -96 c 0
 246 -119 254 -134 277 -136 c 0
 297 -138 316 -126 330 -116 c 1
EndSplineSet
EndChar

StartChar: eogonek
Encoding: 281 281 271
Width: 539
VWidth: 0
Flags: HMW
LayerCount: 2
Fore
SplineSet
113 202 m 1
 125 280 l 1
 390 281 l 1
 390 334 372 376 313 377 c 0
 243 379 193 322 179 255 c 1
 172 230 l 1
 161 153 187 93 259 90 c 0
 314 88 359 118 390 155 c 1
 500 119 l 1
 442 43 365 -11 249 -10 c 0
 102 -9 24 98 43 230 c 0
 45 247 49 263 54 279 c 0
 90 391 191 470 324 470 c 0
 469 470 538 371 521 236 c 0
 520 226 518 215 515 202 c 1
 113 202 l 1
262 -111 m 1
 285 -176 l 1
 262 -196 232 -214 187 -214 c 0
 122 -214 77 -176 85 -114 c 0
 96 -45 173 -3 240 30 c 1
 279 3 l 1
 234 -20 188 -51 181 -90 c 0
 178 -113 186 -129 209 -131 c 0
 229 -133 248 -121 262 -111 c 1
EndSplineSet
EndChar

StartChar: Ecaron
Encoding: 282 282 272
Width: 569
VWidth: 0
Flags: HMW
LayerCount: 2
Fore
SplineSet
136 0 m 1
 157 122 l 1
 503 122 l 1
 481 0 l 1
 136 0 l 1
235 578 m 1
 256 700 l 1
 601 700 l 1
 580 578 l 1
 235 578 l 1
189 311 m 1
 210 431 l 1
 536 431 l 1
 515 311 l 1
 189 311 l 1
164 700 m 1
 304 700 l 1
 183 0 l 1
 46 0 l 1
 164 700 l 1
411 889 m 1
 520 976 l 1
 600 912 l 1
 398 774 l 1
 237 917 l 1
 332 977 l 1
 411 889 l 1
EndSplineSet
EndChar

StartChar: ecaron
Encoding: 283 283 273
Width: 539
VWidth: 0
Flags: HMW
LayerCount: 2
Fore
SplineSet
113 202 m 1
 125 280 l 1
 390 281 l 1
 390 334 372 376 313 377 c 0
 243 379 193 322 179 255 c 1
 172 230 l 1
 161 153 187 93 259 90 c 0
 314 88 359 118 390 155 c 1
 500 119 l 1
 442 43 365 -11 249 -10 c 0
 102 -9 24 98 43 230 c 0
 45 247 49 263 54 279 c 0
 90 391 191 470 324 470 c 0
 469 470 538 371 521 236 c 0
 520 226 518 215 515 202 c 1
 113 202 l 1
354 645 m 1
 463 732 l 1
 543 668 l 1
 341 530 l 1
 180 673 l 1
 276 733 l 1
 354 645 l 1
EndSplineSet
EndChar

StartChar: Gcircumflex
Encoding: 284 284 274
Width: 779
VWidth: 0
Flags: HMW
LayerCount: 2
Fore
SplineSet
419 259 m 1
 440 375 l 1
 776 375 l 1
 749 168 601 -19 373 -19 c 0
 161 -19 37 150 66 350 c 0
 98 559 277 714 493 714 c 0
 622 714 715 653 771 552 c 1
 640 482 l 1
 612 544 560 584 480 584 c 0
 350 585 238 483 216 350 c 0
 196 224 258 112 390 111 c 0
 500 110 573 179 615 260 c 1
 419 259 l 1
526 862 m 1
 417 775 l 1
 337 839 l 1
 539 977 l 1
 700 835 l 1
 605 774 l 1
 526 862 l 1
EndSplineSet
EndChar

StartChar: gcircumflex
Encoding: 285 285 275
Width: 581
VWidth: 0
Flags: HMW
LayerCount: 2
Fore
SplineSet
7 -32 m 1
 131 -33 l 1
 131 -90 161 -128 225 -128 c 0
 298 -129 358 -71 372 10 c 1
 449 460 l 1
 575 460 l 1
 498 10 l 2
 474 -143 361 -236 220 -236 c 0
 75 -236 3 -155 7 -32 c 1
43 235 m 0
 62 372 171 471 295 470 c 0
 418 469 468 359 452 234 c 0
 434 103 346 -1 224 -1 c 0
 100 -1 26 103 43 235 c 0
178 234 m 0
 168 165 204 109 272 108 c 0
 335 107 401 162 412 235 c 0
 422 304 384 359 322 361 c 0
 252 363 189 306 178 234 c 0
376 618 m 1
 267 531 l 1
 187 595 l 1
 389 733 l 1
 550 591 l 1
 454 530 l 1
 376 618 l 1
EndSplineSet
EndChar

StartChar: Gbreve
Encoding: 286 286 276
Width: 779
VWidth: 0
Flags: HMW
LayerCount: 2
Fore
SplineSet
419 259 m 1
 440 375 l 1
 776 375 l 1
 749 168 601 -19 373 -19 c 0
 161 -19 37 150 66 350 c 0
 98 559 277 714 493 714 c 0
 622 714 715 653 771 552 c 1
 640 482 l 1
 612 544 560 584 480 584 c 0
 350 585 238 483 216 350 c 0
 196 224 258 112 390 111 c 0
 500 110 573 179 615 260 c 1
 419 259 l 1
373 919 m 1
 461 919 l 1
 461 887 474 857 517 856 c 0
 561 855 588 887 599 918 c 1
 690 918 l 1
 672 839 610 775 512 775 c 0
 414 775 367 839 373 919 c 1
EndSplineSet
EndChar

StartChar: gbreve
Encoding: 287 287 277
Width: 581
VWidth: 0
Flags: HMW
LayerCount: 2
Fore
SplineSet
7 -32 m 1
 131 -33 l 1
 131 -90 161 -128 225 -128 c 0
 298 -129 358 -71 372 10 c 1
 449 460 l 1
 575 460 l 1
 498 10 l 2
 474 -143 361 -236 220 -236 c 0
 75 -236 3 -155 7 -32 c 1
43 235 m 0
 62 372 171 471 295 470 c 0
 418 469 468 359 452 234 c 0
 434 103 346 -1 224 -1 c 0
 100 -1 26 103 43 235 c 0
178 234 m 0
 168 165 204 109 272 108 c 0
 335 107 401 162 412 235 c 0
 422 304 384 359 322 361 c 0
 252 363 189 306 178 234 c 0
223 675 m 1
 311 675 l 1
 311 643 324 613 367 612 c 0
 411 611 438 643 449 674 c 1
 540 674 l 1
 522 596 459 531 361 531 c 0
 263 531 217 595 223 675 c 1
EndSplineSet
EndChar

StartChar: Gdotaccent
Encoding: 288 288 278
Width: 779
VWidth: 0
Flags: HMW
LayerCount: 2
Fore
SplineSet
419 259 m 1
 440 375 l 1
 776 375 l 1
 749 168 601 -19 373 -19 c 0
 161 -19 37 150 66 350 c 0
 98 559 277 714 493 714 c 0
 622 714 715 653 771 552 c 1
 640 482 l 1
 612 544 560 584 480 584 c 0
 350 585 238 483 216 350 c 0
 196 224 258 112 390 111 c 0
 500 110 573 179 615 260 c 1
 419 259 l 1
443 850 m 0
 448 890 489 923 530 922 c 0
 571 921 603 888 598 847 c 0
 593 807 552 774 511 775 c 0
 470 776 438 809 443 850 c 0
EndSplineSet
EndChar

StartChar: gdotaccent
Encoding: 289 289 279
Width: 581
VWidth: 0
Flags: HMW
LayerCount: 2
Fore
SplineSet
7 -32 m 1
 131 -33 l 1
 131 -90 161 -128 225 -128 c 0
 298 -129 358 -71 372 10 c 1
 449 460 l 1
 575 460 l 1
 498 10 l 2
 474 -143 361 -236 220 -236 c 0
 75 -236 3 -155 7 -32 c 1
43 235 m 0
 62 372 171 471 295 470 c 0
 418 469 468 359 452 234 c 0
 434 103 346 -1 224 -1 c 0
 100 -1 26 103 43 235 c 0
178 234 m 0
 168 165 204 109 272 108 c 0
 335 107 401 162 412 235 c 0
 422 304 384 359 322 361 c 0
 252 363 189 306 178 234 c 0
295 628 m 0
 300 668 341 701 382 700 c 0
 423 699 454 667 449 626 c 0
 444 586 403 552 362 553 c 0
 321 554 290 587 295 628 c 0
EndSplineSet
EndChar

StartChar: uni0122
Encoding: 290 290 280
Width: 779
VWidth: 0
Flags: HMW
LayerCount: 2
Fore
SplineSet
419 259 m 1
 440 375 l 1
 776 375 l 1
 749 168 601 -19 373 -19 c 0
 161 -19 37 150 66 350 c 0
 98 559 277 714 493 714 c 0
 622 714 715 653 771 552 c 1
 640 482 l 1
 612 544 560 584 480 584 c 0
 350 585 238 483 216 350 c 0
 196 224 258 112 390 111 c 0
 500 110 573 179 615 260 c 1
 419 259 l 1
313 -80 m 1
 440 -113 l 1
 280 -360 l 1
 184 -336 l 1
 313 -80 l 1
EndSplineSet
EndChar

StartChar: Hcircumflex
Encoding: 292 292 281
Width: 742
VWidth: 0
Flags: HMW
LayerCount: 2
Fore
SplineSet
143 307 m 1
 166 438 l 1
 669 438 l 1
 646 307 l 1
 143 307 l 1
620 700 m 1
 765 700 l 1
 644 0 l 1
 502 0 l 1
 620 700 l 1
164 700 m 1
 308 700 l 1
 188 0 l 1
 46 0 l 1
 164 700 l 1
495 862 m 1
 386 775 l 1
 306 839 l 1
 508 977 l 1
 669 835 l 1
 574 774 l 1
 495 862 l 1
EndSplineSet
EndChar

StartChar: hcircumflex
Encoding: 293 293 282
Width: 539
VWidth: 0
Flags: HMW
LayerCount: 2
Fore
SplineSet
297 780 m 1
 163 0 l 1
 33 0 l 1
 167 780 l 1
 297 780 l 1
372 280 m 1
 377 329 369 369 317 372 c 0
 262 375 223 330 211 281 c 1
 179 281 l 1
 198 382 264 475 374 475 c 0
 482 475 514 399 502 299 c 1
 451 0 l 1
 322 0 l 1
 372 280 l 1
329 927 m 1
 220 840 l 1
 140 905 l 1
 342 1042 l 1
 503 900 l 1
 408 840 l 1
 329 927 l 1
EndSplineSet
EndChar

StartChar: Itilde
Encoding: 296 296 283
Width: 289
VWidth: 0
Flags: HMW
LayerCount: 2
Fore
SplineSet
164 700 m 1
 310 700 l 1
 190 0 l 1
 46 0 l 1
 164 700 l 1
77 834 m 1
 97 879 143 924 201 922 c 0
 255 921 273 871 322 873 c 0
 349 874 372 898 393 924 c 1
 447 857 l 1
 422 820 371 775 314 777 c 0
 266 779 238 829 193 827 c 0
 159 825 144 795 136 777 c 1
 77 834 l 1
EndSplineSet
EndChar

StartChar: itilde
Encoding: 297 297 284
Width: 263
VWidth: 0
Flags: HMW
LayerCount: 2
Fore
SplineSet
119 460 m 1
 247 460 l 1
 167 0 l 1
 42 0 l 1
 119 460 l 1
22 590 m 1
 42 635 88 680 146 678 c 0
 200 677 218 627 267 629 c 0
 294 630 317 654 338 680 c 1
 392 613 l 1
 367 576 315 531 258 533 c 0
 210 535 183 585 138 583 c 0
 104 581 89 551 81 533 c 1
 22 590 l 1
EndSplineSet
EndChar

StartChar: Imacron
Encoding: 298 298 285
Width: 289
VWidth: 0
Flags: HMW
LayerCount: 2
Fore
SplineSet
164 700 m 1
 310 700 l 1
 190 0 l 1
 46 0 l 1
 164 700 l 1
72 775 m 1
 92 890 l 1
 449 890 l 1
 429 774 l 1
 72 775 l 1
EndSplineSet
EndChar

StartChar: imacron
Encoding: 299 299 286
Width: 263
VWidth: 0
Flags: HMW
LayerCount: 2
Fore
SplineSet
119 460 m 1
 247 460 l 1
 167 0 l 1
 42 0 l 1
 119 460 l 1
17 531 m 1
 37 645 l 1
 394 645 l 1
 374 530 l 1
 17 531 l 1
EndSplineSet
EndChar

StartChar: Ibreve
Encoding: 300 300 287
Width: 289
VWidth: 0
Flags: HMW
LayerCount: 2
Fore
SplineSet
164 700 m 1
 310 700 l 1
 190 0 l 1
 46 0 l 1
 164 700 l 1
116 919 m 1
 203 919 l 1
 203 887 217 857 260 856 c 0
 304 855 330 887 341 918 c 1
 432 918 l 1
 414 840 352 775 254 775 c 0
 156 775 110 839 116 919 c 1
EndSplineSet
EndChar

StartChar: ibreve
Encoding: 301 301 288
Width: 263
VWidth: 0
Flags: HMW
LayerCount: 2
Fore
SplineSet
119 460 m 1
 247 460 l 1
 167 0 l 1
 42 0 l 1
 119 460 l 1
60 675 m 1
 148 675 l 1
 148 643 161 613 204 612 c 0
 248 611 275 643 286 674 c 1
 377 674 l 1
 359 596 297 531 199 531 c 0
 101 531 54 595 60 675 c 1
EndSplineSet
EndChar

StartChar: Iogonek
Encoding: 302 302 289
Width: 289
VWidth: 0
Flags: HMW
LayerCount: 2
Fore
SplineSet
164 700 m 1
 310 700 l 1
 190 0 l 1
 46 0 l 1
 164 700 l 1
155 -115 m 1
 178 -180 l 1
 155 -200 125 -218 80 -218 c 0
 15 -218 -30 -180 -22 -118 c 0
 -12 -49 65 -7 132 26 c 1
 172 0 l 1
 127 -24 80 -54 73 -94 c 0
 70 -117 79 -133 102 -135 c 0
 122 -137 141 -125 155 -115 c 1
EndSplineSet
EndChar

StartChar: iogonek
Encoding: 303 303 290
Width: 263
VWidth: 0
Flags: HMW
LayerCount: 2
Fore
SplineSet
136 639 m 0
 141 679 182 712 223 711 c 0
 264 710 296 677 291 636 c 0
 286 596 245 563 204 564 c 0
 163 565 131 598 136 639 c 0
119 460 m 1
 247 460 l 1
 167 0 l 1
 42 0 l 1
 119 460 l 1
133 -116 m 1
 156 -182 l 1
 133 -202 103 -220 58 -220 c 0
 -7 -220 -53 -181 -45 -119 c 0
 -34 -50 44 -8 111 25 c 1
 150 0 l 1
 105 -25 58 -56 51 -96 c 0
 49 -119 57 -134 80 -136 c 0
 100 -138 119 -126 133 -116 c 1
EndSplineSet
EndChar

StartChar: Idotaccent
Encoding: 304 304 291
Width: 289
VWidth: 0
Flags: HMW
LayerCount: 2
Fore
SplineSet
164 700 m 1
 310 700 l 1
 190 0 l 1
 46 0 l 1
 164 700 l 1
185 850 m 0
 190 890 231 923 272 922 c 0
 313 921 344 888 339 847 c 0
 334 807 293 774 252 775 c 0
 211 776 180 809 185 850 c 0
EndSplineSet
EndChar

StartChar: uni0136
Encoding: 310 310 292
Width: 641
VWidth: 0
Flags: HMW
LayerCount: 2
Fore
SplineSet
164 700 m 1
 313 700 l 1
 192 0 l 1
 46 0 l 1
 164 700 l 1
548 700 m 1
 723 700 l 1
 381 369 l 1
 612 0 l 1
 444 0 l 1
 213 371 l 1
 548 700 l 1
279 -61 m 1
 406 -94 l 1
 246 -341 l 1
 150 -318 l 1
 279 -61 l 1
EndSplineSet
EndChar

StartChar: uni0137
Encoding: 311 311 293
Width: 521
VWidth: 0
Flags: HMW
LayerCount: 2
Fore
SplineSet
164 780 m 1
 290 780 l 1
 156 0 l 1
 31 0 l 1
 164 780 l 1
393 460 m 1
 554 460 l 1
 325 267 l 1
 489 0 l 1
 341 0 l 1
 173 274 l 1
 393 460 l 1
210 -61 m 1
 337 -94 l 1
 177 -341 l 1
 81 -318 l 1
 210 -61 l 1
EndSplineSet
EndChar

StartChar: Lacute
Encoding: 313 313 294
Width: 490
VWidth: 0
Flags: HMW
LayerCount: 2
Fore
SplineSet
165 700 m 1
 308 700 l 1
 210 127 l 1
 481 127 l 1
 459 0 l 1
 45 0 l 1
 165 700 l 1
559 922 m 1
 361 775 l 1
 291 816 l 1
 462 973 l 1
 559 922 l 1
EndSplineSet
EndChar

StartChar: lacute
Encoding: 314 314 295
Width: 251
VWidth: 0
Flags: HMW
LayerCount: 2
Fore
SplineSet
167 780 m 1
 297 780 l 1
 163 0 l 1
 34 0 l 1
 167 780 l 1
417 987 m 1
 219 841 l 1
 149 881 l 1
 320 1038 l 1
 417 987 l 1
EndSplineSet
EndChar

StartChar: uni013B
Encoding: 315 315 296
Width: 490
VWidth: 0
Flags: HMW
LayerCount: 2
Fore
SplineSet
165 700 m 1
 308 700 l 1
 210 127 l 1
 481 127 l 1
 459 0 l 1
 45 0 l 1
 165 700 l 1
219 -61 m 1
 345 -94 l 1
 185 -341 l 1
 89 -318 l 1
 219 -61 l 1
EndSplineSet
EndChar

StartChar: uni013C
Encoding: 316 316 297
Width: 251
VWidth: 0
Flags: HMW
LayerCount: 2
Fore
SplineSet
167 780 m 1
 297 780 l 1
 163 0 l 1
 34 0 l 1
 167 780 l 1
65 -61 m 1
 192 -94 l 1
 31 -341 l 1
 -64 -318 l 1
 65 -61 l 1
EndSplineSet
EndChar

StartChar: Lcaron
Encoding: 317 317 298
Width: 490
VWidth: 0
Flags: HMW
LayerCount: 2
Fore
SplineSet
165 700 m 1
 308 700 l 1
 210 127 l 1
 481 127 l 1
 459 0 l 1
 45 0 l 1
 165 700 l 1
469 713 m 1
 596 681 l 1
 436 434 l 1
 340 457 l 1
 469 713 l 1
EndSplineSet
EndChar

StartChar: lcaron
Encoding: 318 318 299
Width: 251
VWidth: 0
Flags: HMW
LayerCount: 2
Fore
SplineSet
167 780 m 1
 297 780 l 1
 163 0 l 1
 34 0 l 1
 167 780 l 1
427 779 m 1
 554 746 l 1
 394 499 l 1
 298 522 l 1
 427 779 l 1
EndSplineSet
EndChar

StartChar: Ldot
Encoding: 319 319 300
Width: 490
VWidth: 0
Flags: HMW
LayerCount: 2
Fore
SplineSet
165 700 m 1
 308 700 l 1
 210 127 l 1
 481 127 l 1
 459 0 l 1
 45 0 l 1
 165 700 l 1
339 427 m 0
 344 469 387 508 432 507 c 0
 478 506 508 468 503 425 c 0
 498 383 455 344 410 345 c 0
 364 346 334 384 339 427 c 0
EndSplineSet
EndChar

StartChar: ldot
Encoding: 320 320 301
Width: 432
VWidth: 0
Flags: HMW
LayerCount: 2
Fore
SplineSet
167 780 m 1
 297 780 l 1
 163 0 l 1
 34 0 l 1
 167 780 l 1
277 412 m 0
 282 454 324 493 369 492 c 0
 415 491 444 453 439 410 c 0
 434 368 392 328 347 329 c 0
 301 330 272 369 277 412 c 0
EndSplineSet
EndChar

StartChar: eth
Encoding: 240 240 302
Width: 622
VWidth: 0
Flags: HMW
LayerCount: 2
Fore
SplineSet
451 241 m 0
 462 309 425 372 352 373 c 0
 278 374 213 314 201 241 c 0
 190 172 227 112 300 111 c 0
 374 110 439 168 451 241 c 0
391 698 m 1
 550 422 l 2
 581 367 599 307 590 241 c 0
 568 88 438 -14 287 -14 c 0
 139 -14 40 92 61 242 c 0
 79 368 189 468 305 469 c 0
 351 469 381 457 413 424 c 1
 390 434 l 1
 217 698 l 1
 391 698 l 1
200 520 m 1
 211 594 l 1
 599 594 l 1
 587 520 l 1
 200 520 l 1
EndSplineSet
EndChar

StartChar: racute
Encoding: 341 341 303
Width: 379
VWidth: 0
Flags: HMW
LayerCount: 2
Fore
SplineSet
240 460 m 1
 161 0 l 1
 33 0 l 1
 113 460 l 1
 240 460 l 1
349 324 m 1
 333 338 319 348 296 348 c 0
 243 349 213 297 202 243 c 1
 172 281 l 1
 189 375 257 472 344 471 c 0
 377 471 403 456 423 433 c 1
 349 324 l 1
456 678 m 1
 258 531 l 1
 189 572 l 1
 360 729 l 1
 456 678 l 1
EndSplineSet
EndChar

StartChar: rcaron
Encoding: 345 345 304
Width: 379
VWidth: 0
Flags: HMW
LayerCount: 2
Fore
SplineSet
240 460 m 1
 161 0 l 1
 33 0 l 1
 113 460 l 1
 240 460 l 1
349 324 m 1
 333 338 319 348 296 348 c 0
 243 349 213 297 202 243 c 1
 172 281 l 1
 189 375 257 472 344 471 c 0
 377 471 403 456 423 433 c 1
 349 324 l 1
298 646 m 1
 407 733 l 1
 487 668 l 1
 285 531 l 1
 124 673 l 1
 220 733 l 1
 298 646 l 1
EndSplineSet
EndChar

StartChar: Rcaron
Encoding: 344 344 305
Width: 603
VWidth: 0
Flags: HMW
LayerCount: 2
Fore
SplineSet
258 325 m 1
 405 325 l 1
 570 0 l 1
 406 0 l 1
 258 325 l 1
164 700 m 1
 308 700 l 1
 188 0 l 1
 46 0 l 1
 164 700 l 1
230 576 m 1
 251 700 l 1
 391 700 l 1
 539 698 634 610 613 476 c 0
 592 340 476 255 323 253 c 1
 174 253 l 1
 195 368 l 1
 326 368 l 1
 396 370 454 407 466 472 c 0
 477 535 436 574 369 576 c 1
 230 576 l 1
409 889 m 1
 518 976 l 1
 598 912 l 1
 396 774 l 1
 235 917 l 1
 330 977 l 1
 409 889 l 1
EndSplineSet
EndChar

StartChar: uni0213
Encoding: 531 531 306
Width: 379
VWidth: 0
Flags: HMW
LayerCount: 2
Fore
SplineSet
240 460 m 1
 161 0 l 1
 33 0 l 1
 113 460 l 1
 240 460 l 1
349 324 m 1
 333 338 319 348 296 348 c 0
 243 349 213 297 202 243 c 1
 172 281 l 1
 189 375 257 472 344 471 c 0
 377 471 403 456 423 433 c 1
 349 324 l 1
124 530 m 1
 212 531 l 1
 223 562 249 595 293 594 c 0
 337 593 353 564 353 530 c 1
 438 531 l 1
 448 609 409 674 311 675 c 0
 210 676 147 608 124 530 c 1
EndSplineSet
EndChar

StartChar: uni0212
Encoding: 530 530 307
Width: 603
VWidth: 0
Flags: HMW
LayerCount: 2
Fore
SplineSet
258 325 m 1
 405 325 l 1
 570 0 l 1
 406 0 l 1
 258 325 l 1
164 700 m 1
 308 700 l 1
 188 0 l 1
 46 0 l 1
 164 700 l 1
230 576 m 1
 251 700 l 1
 391 700 l 1
 539 698 634 610 613 476 c 0
 592 340 476 255 323 253 c 1
 174 253 l 1
 195 368 l 1
 326 368 l 1
 396 370 454 407 466 472 c 0
 477 535 436 574 369 576 c 1
 230 576 l 1
249 774 m 1
 338 775 l 1
 349 806 374 839 418 838 c 0
 462 837 478 808 478 774 c 1
 563 774 l 1
 573 852 534 917 436 918 c 0
 335 919 272 852 249 774 c 1
EndSplineSet
EndChar

StartChar: OE
Encoding: 338 338 308
Width: 955
VWidth: 0
Flags: HMW
LayerCount: 2
Fore
SplineSet
570 311 m 1
 591 431 l 1
 941 431 l 1
 920 311 l 1
 570 311 l 1
564 670 m 1
 704 670 l 1
 593 30 l 1
 455 30 l 1
 564 670 l 1
906 122 m 1
 886 0 l 1
 356 0 l 1
 157 4 38 157 66 350 c 0
 97 551 262 697 466 700 c 1
 1006 700 l 1
 984 578 l 1
 627 578 l 1
 609 571 l 1
 475 571 l 1
 335 568 236 484 213 350 c 0
 192 222 255 132 391 129 c 1
 523 129 l 1
 545 122 l 1
 906 122 l 1
EndSplineSet
EndChar

StartChar: oe
Encoding: 339 339 309
Width: 873
VWidth: 0
Flags: HMW
LayerCount: 2
Fore
SplineSet
721 250 m 2
 729 313 717 375 649 377 c 0
 583 380 529 327 515 260 c 1
 507 230 l 1
 496 156 518 90 593 88 c 0
 649 87 690 119 723 156 c 1
 832 119 l 1
 780 48 698 -10 600 -10 c 0
 471 -9 412 107 428 230 c 0
 430 247 435 263 440 279 c 0
 474 386 569 471 687 470 c 0
 807 469 868 358 854 234 c 0
 853 225 849 211 847 202 c 1
 718 231 l 1
 721 250 l 2
474 202 m 1
 487 280 l 1
 840 280 l 1
 847 201 l 1
 474 202 l 1
45 230 m 0
 64 366 174 470 304 470 c 0
 434 470 482 357 466 230 c 0
 447 97 360 -10 231 -10 c 0
 101 -10 27 99 45 230 c 0
173 230 m 0
 163 160 195 102 264 101 c 0
 330 100 386 157 397 230 c 0
 406 297 381 357 316 359 c 0
 246 361 185 304 173 230 c 0
EndSplineSet
EndChar

StartChar: a.alt
Encoding: 65536 -1 310
Width: 510
VWidth: 0
Flags: HMW
LayerCount: 2
Fore
SplineSet
149 136 m 0
 144 100 173 83 209 82 c 0
 274 80 323 119 339 184 c 1
 346 129 l 1
 326 44 254 -10 160 -10 c 0
 71 -10 7 44 19 132 c 0
 34 227 126 281 234 281 c 0
 298 281 351 256 379 228 c 1
 370 165 l 1
 336 191 301 205 254 205 c 0
 201 205 155 180 149 136 c 0
143 328 m 1
 109 419 l 1
 164 446 232 472 309 472 c 0
 412 472 501 422 487 326 c 1
 431 0 l 1
 306 0 l 1
 360 304 l 1
 366 343 337 367 291 369 c 0
 232 371 177 345 143 328 c 1
EndSplineSet
EndChar

StartChar: Jcircumflex
Encoding: 308 308 312
Width: 294
VWidth: 0
Flags: HMW
LayerCount: 2
Fore
SplineSet
-112 -76 m 1
 -94 -95 -69 -110 -40 -109 c 0
 -2 -108 32 -75 40 -25 c 1
 165 700 l 1
 316 700 l 1
 188 -56 l 2
 168 -173 73 -234 -43 -233 c 0
 -107 -233 -164 -206 -203 -177 c 1
 -112 -76 l 1
271 862 m 1
 162 775 l 1
 82 839 l 1
 284 977 l 1
 445 835 l 1
 350 774 l 1
 271 862 l 1
EndSplineSet
EndChar

StartChar: jcircumflex
Encoding: 309 309 313
Width: 257
VWidth: 0
Flags: HMW
LayerCount: 2
Fore
SplineSet
-73 -88 m 1
 -62 -103 -49 -114 -32 -114 c 0
 2 -114 23 -80 29 -39 c 1
 115 460 l 1
 241 460 l 1
 151 -69 l 2
 135 -165 71 -234 -32 -233 c 0
 -84 -233 -118 -209 -142 -184 c 1
 -73 -88 l 1
208 618 m 1
 99 531 l 1
 18 595 l 1
 221 733 l 1
 381 591 l 1
 286 530 l 1
 208 618 l 1
EndSplineSet
EndChar

StartChar: Nacute
Encoding: 323 323 314
Width: 764
VWidth: 0
Flags: HMW
LayerCount: 2
Fore
SplineSet
647 700 m 1
 786 700 l 1
 660 -34 l 1
 258 431 l 1
 184 0 l 1
 45 0 l 1
 170 734 l 1
 572 269 l 1
 647 700 l 1
664 907 m 1
 466 760 l 1
 396 801 l 1
 567 958 l 1
 664 907 l 1
EndSplineSet
EndChar

StartChar: nacute
Encoding: 324 324 315
Width: 543
VWidth: 0
Flags: HMW
LayerCount: 2
Fore
SplineSet
242 460 m 1
 163 0 l 1
 33 0 l 1
 113 460 l 1
 242 460 l 1
372 280 m 1
 377 329 370 369 317 372 c 0
 262 375 223 330 211 281 c 1
 183 277 l 1
 201 378 263 470 373 470 c 0
 480 470 518 395 506 294 c 1
 456 0 l 1
 322 0 l 1
 372 280 l 1
514 678 m 1
 317 531 l 1
 248 572 l 1
 418 729 l 1
 514 678 l 1
EndSplineSet
EndChar

StartChar: uni0145
Encoding: 325 325 316
Width: 764
VWidth: 0
Flags: HMW
LayerCount: 2
Fore
SplineSet
325 -49 m 1
 451 -82 l 1
 291 -329 l 1
 196 -306 l 1
 325 -49 l 1
647 700 m 1
 786 700 l 1
 660 -34 l 1
 258 431 l 1
 184 0 l 1
 45 0 l 1
 170 734 l 1
 572 269 l 1
 647 700 l 1
EndSplineSet
EndChar

StartChar: uni0146
Encoding: 326 326 317
Width: 543
VWidth: 0
Flags: HMW
LayerCount: 2
Fore
SplineSet
242 460 m 1
 163 0 l 1
 33 0 l 1
 113 460 l 1
 242 460 l 1
372 280 m 1
 377 329 370 369 317 372 c 0
 262 375 223 330 211 281 c 1
 178 277 l 1
 197 378 263 470 373 470 c 0
 480 470 518 395 506 294 c 1
 456 0 l 1
 322 0 l 1
 372 280 l 1
211 -61 m 1
 338 -94 l 1
 178 -341 l 1
 82 -318 l 1
 211 -61 l 1
EndSplineSet
EndChar

StartChar: Ncaron
Encoding: 327 327 318
Width: 764
VWidth: 0
Flags: HMW
LayerCount: 2
Fore
SplineSet
493 897 m 1
 602 984 l 1
 683 919 l 1
 480 782 l 1
 320 924 l 1
 415 984 l 1
 493 897 l 1
647 700 m 1
 786 700 l 1
 660 -34 l 1
 258 431 l 1
 184 0 l 1
 45 0 l 1
 170 734 l 1
 572 269 l 1
 647 700 l 1
EndSplineSet
EndChar

StartChar: ncaron
Encoding: 328 328 319
Width: 543
VWidth: 0
Flags: HMW
LayerCount: 2
Fore
SplineSet
242 460 m 1
 163 0 l 1
 33 0 l 1
 113 460 l 1
 242 460 l 1
372 280 m 1
 377 329 370 369 317 372 c 0
 262 375 223 330 211 281 c 1
 178 277 l 1
 197 378 263 470 373 470 c 0
 480 470 518 395 506 294 c 1
 456 0 l 1
 322 0 l 1
 372 280 l 1
351 645 m 1
 460 732 l 1
 540 668 l 1
 338 530 l 1
 177 673 l 1
 272 733 l 1
 351 645 l 1
EndSplineSet
EndChar

StartChar: Omacron
Encoding: 332 332 320
Width: 787
VWidth: 0
Flags: HMW
LayerCount: 2
Fore
SplineSet
217 350 m 0
 199 233 255 122 383 121 c 0
 513 120 615 225 636 350 c 0
 655 468 600 578 470 579 c 0
 340 580 238 475 217 350 c 0
66 350 m 0
 97 554 274 714 485 714 c 0
 693 714 817 547 788 350 c 0
 757 145 582 -19 368 -19 c 0
 158 -19 37 153 66 350 c 0
321 775 m 1
 341 890 l 1
 698 890 l 1
 678 774 l 1
 321 775 l 1
EndSplineSet
EndChar

StartChar: omacron
Encoding: 333 333 321
Width: 559
VWidth: 0
Flags: HMW
LayerCount: 2
Fore
SplineSet
43 230 m 0
 63 368 185 470 329 470 c 0
 470 470 561 365 542 230 c 0
 522 92 398 -10 255 -10 c 0
 114 -10 24 95 43 230 c 0
175 230 m 0
 165 163 197 102 266 101 c 0
 336 100 398 159 410 230 c 0
 420 297 387 358 318 359 c 0
 248 360 187 301 175 230 c 0
166 531 m 1
 185 645 l 1
 542 645 l 1
 522 530 l 1
 166 531 l 1
EndSplineSet
EndChar

StartChar: Obreve
Encoding: 334 334 322
Width: 787
VWidth: 0
Flags: HMW
LayerCount: 2
Fore
SplineSet
217 350 m 0
 199 233 255 122 383 121 c 0
 513 120 615 225 636 350 c 0
 655 468 600 578 470 579 c 0
 340 580 238 475 217 350 c 0
66 350 m 0
 97 554 274 714 485 714 c 0
 693 714 817 547 788 350 c 0
 757 145 582 -19 368 -19 c 0
 158 -19 37 153 66 350 c 0
365 919 m 1
 453 919 l 1
 453 887 466 857 509 856 c 0
 553 855 580 887 591 918 c 1
 682 918 l 1
 664 840 601 775 503 775 c 0
 405 775 359 839 365 919 c 1
EndSplineSet
EndChar

StartChar: obreve
Encoding: 335 335 323
Width: 559
VWidth: 0
Flags: HMW
LayerCount: 2
Fore
SplineSet
43 230 m 0
 63 368 185 470 329 470 c 0
 470 470 561 365 542 230 c 0
 522 92 398 -10 255 -10 c 0
 114 -10 24 95 43 230 c 0
175 230 m 0
 165 163 197 102 266 101 c 0
 336 100 398 159 410 230 c 0
 420 297 387 358 318 359 c 0
 248 360 187 301 175 230 c 0
209 675 m 1
 297 675 l 1
 297 643 310 613 353 612 c 0
 397 611 424 643 435 674 c 1
 526 674 l 1
 508 596 445 531 347 531 c 0
 249 531 203 595 209 675 c 1
EndSplineSet
EndChar

StartChar: Racute
Encoding: 340 340 324
Width: 603
VWidth: 0
Flags: HMW
LayerCount: 2
Fore
SplineSet
258 325 m 1
 405 325 l 1
 570 0 l 1
 406 0 l 1
 258 325 l 1
164 700 m 1
 308 700 l 1
 188 0 l 1
 46 0 l 1
 164 700 l 1
230 576 m 1
 251 700 l 1
 391 700 l 1
 539 698 634 610 613 476 c 0
 592 340 476 255 323 253 c 1
 174 253 l 1
 195 368 l 1
 326 368 l 1
 396 370 454 407 466 472 c 0
 477 535 436 574 369 576 c 1
 230 576 l 1
569 922 m 1
 371 775 l 1
 301 816 l 1
 472 973 l 1
 569 922 l 1
EndSplineSet
EndChar

StartChar: uni0156
Encoding: 342 342 325
Width: 603
VWidth: 0
Flags: HMW
LayerCount: 2
Fore
SplineSet
258 325 m 1
 405 325 l 1
 570 0 l 1
 406 0 l 1
 258 325 l 1
164 700 m 1
 308 700 l 1
 188 0 l 1
 46 0 l 1
 164 700 l 1
230 576 m 1
 251 700 l 1
 391 700 l 1
 539 698 634 610 613 476 c 0
 592 340 476 255 323 253 c 1
 174 253 l 1
 195 368 l 1
 326 368 l 1
 396 370 454 407 466 472 c 0
 477 535 436 574 369 576 c 1
 230 576 l 1
275 -61 m 1
 402 -94 l 1
 242 -341 l 1
 146 -318 l 1
 275 -61 l 1
EndSplineSet
EndChar

StartChar: uni0157
Encoding: 343 343 326
Width: 379
VWidth: 0
Flags: HMW
LayerCount: 2
Fore
SplineSet
240 460 m 1
 161 0 l 1
 33 0 l 1
 113 460 l 1
 240 460 l 1
349 324 m 1
 333 338 319 348 296 348 c 0
 243 349 213 297 202 243 c 1
 172 281 l 1
 189 375 257 472 344 471 c 0
 377 471 403 456 423 433 c 1
 349 324 l 1
64 -61 m 1
 190 -94 l 1
 31 -341 l 1
 -65 -318 l 1
 64 -61 l 1
EndSplineSet
EndChar

StartChar: Scedilla
Encoding: 350 350 327
Width: 584
VWidth: 0
Flags: HMW
LayerCount: 2
Fore
SplineSet
149 244 m 1
 179 169 215 110 293 110 c 0
 350 110 393 140 403 191 c 0
 416 258 346 285 282 312 c 0
 204 346 118 404 133 522 c 0
 151 638 259 714 390 714 c 0
 511 714 579 648 607 561 c 1
 490 497 l 1
 468 547 434 588 376 588 c 0
 327 588 287 559 279 517 c 0
 267 459 351 433 413 408 c 0
 502 371 567 303 553 194 c 0
 534 61 417 -19 275 -19 c 0
 154 -19 67 61 36 173 c 1
 149 244 l 1
265 60 m 1
 363 57 l 1
 262 -62 l 1
 270 -60 279 -59 288 -59 c 0
 331 -62 366 -98 360 -151 c 0
 351 -216 285 -253 225 -254 c 0
 177 -255 141 -241 102 -214 c 1
 151 -156 l 1
 172 -171 195 -180 217 -180 c 0
 244 -180 276 -165 278 -142 c 0
 280 -119 254 -110 230 -110 c 0
 212 -109 179 -116 151 -126 c 1
 265 60 l 1
EndSplineSet
EndChar

StartChar: scedilla
Encoding: 351 351 328
Width: 427
VWidth: 0
Flags: HMW
LayerCount: 2
Fore
SplineSet
80 171 m 1
 123 120 166 85 208 86 c 0
 236 86 265 101 269 128 c 0
 276 168 228 184 188 200 c 0
 126 226 70 262 81 342 c 0
 93 426 175 470 261 470 c 0
 334 470 392 439 436 395 c 1
 369 315 l 1
 341 347 303 375 264 375 c 0
 235 375 205 363 201 339 c 0
 193 300 256 288 296 271 c 0
 358 245 408 204 399 130 c 0
 387 33 309 -16 213 -16 c 0
 124 -16 57 30 7 91 c 1
 80 171 l 1
199 62 m 1
 298 60 l 1
 196 -59 l 1
 204 -57 212 -56 221 -56 c 0
 264 -59 300 -95 294 -148 c 0
 286 -213 218 -250 158 -251 c 0
 111 -251 74 -238 36 -211 c 1
 84 -153 l 1
 105 -168 128 -177 150 -177 c 0
 177 -177 209 -163 211 -140 c 0
 213 -117 187 -107 163 -107 c 0
 145 -106 114 -113 86 -123 c 1
 199 62 l 1
EndSplineSet
EndChar

StartChar: Zcaron
Encoding: 381 381 329
Width: 580
VWidth: 0
Flags: HMW
LayerCount: 2
Fore
SplineSet
118 569 m 1
 141 700 l 1
 661 700 l 1
 232 127 l 1
 532 127 l 1
 509 0 l 1
 -20 0 l 1
 406 568 l 1
 118 569 l 1
428 889 m 1
 537 976 l 1
 618 912 l 1
 416 774 l 1
 255 917 l 1
 350 977 l 1
 428 889 l 1
EndSplineSet
EndChar

StartChar: zcaron
Encoding: 382 382 330
Width: 484
VWidth: 0
Flags: HMW
LayerCount: 2
Fore
SplineSet
343 645 m 1
 452 732 l 1
 532 668 l 1
 330 530 l 1
 169 672 l 1
 265 732 l 1
 343 645 l 1
289 340 m 1
 82 341 l 1
 103 460 l 1
 530 460 l 1
 232 120 l 1
 442 120 l 1
 421 0 l 1
 -16 0 l 1
 289 340 l 1
EndSplineSet
EndChar

StartChar: Ydieresis
Encoding: 376 376 331
Width: 612
VWidth: 0
Flags: HMW
LayerCount: 2
Fore
SplineSet
224 857 m 0
 229 897 269 931 310 930 c 0
 351 929 383 896 378 855 c 0
 373 815 331 782 290 783 c 0
 248 784 219 816 224 857 c 0
474 857 m 0
 479 897 519 931 560 930 c 0
 601 929 633 896 628 855 c 0
 623 815 581 782 540 783 c 0
 498 784 469 816 474 857 c 0
541 700 m 1
 708 700 l 1
 401 286 l 1
 352 0 l 1
 207 0 l 1
 258 293 l 1
 94 700 l 1
 254 700 l 1
 349 422 l 1
 541 700 l 1
EndSplineSet
EndChar

StartChar: Scaron
Encoding: 352 352 332
Width: 584
VWidth: 0
Flags: HMW
LayerCount: 2
Fore
SplineSet
149 244 m 1
 179 169 215 110 293 110 c 0
 350 110 393 140 403 191 c 0
 416 258 346 285 282 312 c 0
 205 346 119 410 134 524 c 0
 152 640 263 714 390 714 c 0
 510 714 583 645 607 561 c 1
 490 496 l 1
 468 546 440 587 382 588 c 0
 332 588 287 560 279 517 c 0
 267 460 351 433 413 408 c 0
 502 371 567 303 553 194 c 0
 534 61 420 -19 275 -19 c 0
 154 -19 67 61 36 173 c 1
 149 244 l 1
421 889 m 1
 530 976 l 1
 610 912 l 1
 408 774 l 1
 247 917 l 1
 342 977 l 1
 421 889 l 1
EndSplineSet
EndChar

StartChar: scaron
Encoding: 353 353 333
Width: 427
VWidth: 0
Flags: HMW
LayerCount: 2
Fore
SplineSet
82 170 m 1
 118 120 159 88 206 88 c 0
 236 88 264 101 269 128 c 0
 276 167 211 183 171 202 c 0
 113 230 64 270 74 341 c 0
 87 425 174 470 261 470 c 0
 334 470 397 439 436 394 c 1
 369 314 l 1
 340 346 299 369 259 369 c 0
 231 369 201 359 197 334 c 0
 192 301 257 285 296 268 c 0
 357 242 408 201 399 130 c 0
 387 32 308 -16 208 -16 c 0
 119 -16 47 28 7 90 c 1
 82 170 l 1
290 636 m 1
 399 724 l 1
 480 659 l 1
 277 522 l 1
 116 664 l 1
 212 724 l 1
 290 636 l 1
EndSplineSet
EndChar

StartChar: Lslash
Encoding: 321 321 334
Width: 494
VWidth: 0
Flags: HMW
LayerCount: 2
Fore
SplineSet
34 318 m 1
 12 389 l 1
 375 610 l 1
 398 540 l 1
 34 318 l 1
165 700 m 1
 308 700 l 1
 210 127 l 1
 481 127 l 1
 459 0 l 1
 45 0 l 1
 165 700 l 1
EndSplineSet
EndChar

StartChar: lslash
Encoding: 322 322 335
Width: 251
VWidth: 0
Flags: HMW
LayerCount: 2
Fore
SplineSet
26 318 m 1
 3 389 l 1
 335 585 l 1
 357 515 l 1
 26 318 l 1
167 780 m 1
 297 780 l 1
 163 0 l 1
 34 0 l 1
 167 780 l 1
EndSplineSet
EndChar

StartChar: uni0218
Encoding: 536 536 336
Width: 584
VWidth: 0
Flags: HMW
LayerCount: 2
Fore
SplineSet
149 244 m 1
 179 169 215 110 293 110 c 0
 350 110 393 140 403 191 c 0
 416 258 346 285 282 312 c 0
 205 346 119 410 134 524 c 0
 152 640 263 714 390 714 c 0
 510 714 583 645 607 561 c 1
 490 496 l 1
 468 546 440 587 382 588 c 0
 332 588 287 560 279 517 c 0
 267 460 351 433 413 408 c 0
 502 371 567 303 553 194 c 0
 534 61 420 -19 275 -19 c 0
 154 -19 67 61 36 173 c 1
 149 244 l 1
221 -71 m 1
 349 -104 l 1
 188 -351 l 1
 92 -328 l 1
 221 -71 l 1
EndSplineSet
EndChar

StartChar: uni0219
Encoding: 537 537 337
Width: 427
VWidth: 0
Flags: HMW
LayerCount: 2
Fore
SplineSet
82 170 m 1
 118 120 158 88 205 88 c 0
 235 88 264 101 269 128 c 0
 276 167 211 183 171 202 c 0
 113 230 64 270 74 341 c 0
 87 425 174 470 261 470 c 0
 334 470 397 439 436 394 c 1
 369 314 l 1
 340 346 299 369 259 369 c 0
 231 369 201 359 197 334 c 0
 192 301 257 285 296 268 c 0
 357 242 408 201 399 130 c 0
 387 32 308 -16 208 -16 c 0
 119 -16 47 28 7 90 c 1
 82 170 l 1
154 -69 m 1
 281 -102 l 1
 121 -349 l 1
 25 -325 l 1
 154 -69 l 1
EndSplineSet
EndChar

StartChar: pi
Encoding: 960 960 338
Width: 567
VWidth: 0
Flags: HMW
LayerCount: 2
Fore
SplineSet
132 430 m 1
 256 430 l 1
 181 0 l 1
 59 0 l 1
 132 430 l 1
80 460 m 1
 582 460 l 1
 562 349 l 1
 60 349 l 1
 80 460 l 1
376 430 m 1
 499 430 l 1
 452 167 l 1
 446 114 459 106 493 98 c 1
 476 -8 l 1
 374 -6 309 11 323 121 c 1
 376 430 l 1
EndSplineSet
EndChar

StartChar: trademark
Encoding: 8482 8482 339
Width: 701
VWidth: 0
Flags: HMW
LayerCount: 2
Fore
SplineSet
110 634 m 1
 121 700 l 1
 377 700 l 1
 366 634 l 1
 274 634 l 1
 225 350 l 1
 152 350 l 1
 201 634 l 1
 110 634 l 1
647 598 m 1
 722 723 l 1
 707 350 l 1
 633 350 l 1
 647 598 l 1
433 718 m 1
 464 591 l 1
 395 350 l 1
 319 351 l 1
 433 718 l 1
724 724 m 1
 701 607 l 1
 521 381 l 1
 416 615 l 1
 433 717 l 1
 536 494 l 1
 724 724 l 1
EndSplineSet
EndChar

StartChar: uni2219
Encoding: 8729 8729 340
Width: 306
VWidth: 0
Flags: HMW
LayerCount: 2
Fore
SplineSet
119 436 m 0
 124 478 167 517 212 516 c 0
 258 515 287 477 282 434 c 0
 277 392 234 353 189 354 c 0
 143 355 114 393 119 436 c 0
EndSplineSet
EndChar

StartChar: agrave.alt
Encoding: 65537 -1 341
Width: 510
VWidth: 0
Flags: HMW
LayerCount: 2
Fore
SplineSet
149 136 m 0
 144 100 170 83 209 82 c 0
 274 80 323 119 339 184 c 1
 346 129 l 1
 326 44 254 -10 160 -10 c 0
 70 -10 6 43 18 128 c 0
 32 226 128 281 234 281 c 0
 298 281 351 256 379 228 c 1
 370 165 l 1
 336 191 301 206 254 205 c 0
 203 204 156 180 149 136 c 0
143 328 m 1
 109 419 l 1
 164 446 232 472 309 472 c 0
 412 472 499 423 487 326 c 1
 431 0 l 1
 306 0 l 1
 360 304 l 1
 362 344 337 367 291 369 c 0
 232 371 177 345 143 328 c 1
186 684 m 1
 292 731 l 1
 413 569 l 1
 338 532 l 1
 186 684 l 1
EndSplineSet
EndChar

StartChar: aacute.alt
Encoding: 65538 -1 342
Width: 510
VWidth: 0
Flags: HMW
LayerCount: 2
Fore
SplineSet
149 136 m 0
 144 100 170 83 209 82 c 0
 274 80 323 119 339 184 c 1
 346 129 l 1
 326 44 254 -10 160 -10 c 0
 70 -10 6 43 18 128 c 0
 32 226 128 281 234 281 c 0
 298 281 351 256 379 228 c 1
 370 165 l 1
 336 191 301 206 254 205 c 0
 203 204 156 180 149 136 c 0
143 328 m 1
 109 419 l 1
 164 446 232 472 309 472 c 0
 412 472 499 423 487 326 c 1
 431 0 l 1
 306 0 l 1
 360 304 l 1
 362 344 337 367 291 369 c 0
 232 371 177 345 143 328 c 1
514 679 m 1
 316 533 l 1
 247 574 l 1
 418 730 l 1
 514 679 l 1
EndSplineSet
EndChar

StartChar: acircumflex.alt
Encoding: 65539 -1 343
Width: 510
VWidth: 0
Flags: HMW
LayerCount: 2
Fore
SplineSet
149 136 m 0
 144 100 170 83 209 82 c 0
 274 80 323 119 339 184 c 1
 346 129 l 1
 326 44 254 -10 160 -10 c 0
 70 -10 6 43 18 128 c 0
 32 226 128 281 234 281 c 0
 298 281 351 256 379 228 c 1
 370 165 l 1
 336 191 301 206 254 205 c 0
 203 204 156 180 149 136 c 0
143 328 m 1
 109 419 l 1
 164 446 232 472 309 472 c 0
 412 472 499 423 487 326 c 1
 431 0 l 1
 306 0 l 1
 360 304 l 1
 362 344 337 367 291 369 c 0
 232 371 177 345 143 328 c 1
342 620 m 1
 233 533 l 1
 153 597 l 1
 355 734 l 1
 516 592 l 1
 421 532 l 1
 342 620 l 1
EndSplineSet
EndChar

StartChar: atilde.alt
Encoding: 65540 -1 344
Width: 510
VWidth: 0
Flags: HMW
LayerCount: 2
Fore
SplineSet
149 136 m 0
 144 100 170 83 209 82 c 0
 274 80 323 119 339 184 c 1
 346 129 l 1
 326 44 254 -10 160 -10 c 0
 70 -10 6 43 18 128 c 0
 32 226 128 281 234 281 c 0
 298 281 351 256 379 228 c 1
 370 165 l 1
 336 191 301 206 254 205 c 0
 203 204 156 180 149 136 c 0
143 328 m 1
 109 419 l 1
 164 446 232 472 309 472 c 0
 412 472 499 423 487 326 c 1
 431 0 l 1
 306 0 l 1
 360 304 l 1
 362 344 337 367 291 369 c 0
 232 371 177 345 143 328 c 1
151 591 m 1
 171 636 217 682 275 680 c 0
 329 679 347 629 396 631 c 0
 423 632 445 655 466 681 c 1
 521 615 l 1
 496 578 445 533 388 535 c 0
 340 537 311 587 266 585 c 0
 232 583 218 553 210 535 c 1
 151 591 l 1
EndSplineSet
EndChar

StartChar: adieresis.alt
Encoding: 65541 -1 345
Width: 510
VWidth: 0
Flags: HMW
LayerCount: 2
Fore
SplineSet
149 136 m 0
 144 100 170 83 209 82 c 0
 274 80 323 119 339 184 c 1
 346 129 l 1
 326 44 254 -10 160 -10 c 0
 70 -10 6 43 18 128 c 0
 32 226 128 281 234 281 c 0
 298 281 351 256 379 228 c 1
 370 165 l 1
 336 191 301 206 254 205 c 0
 203 204 156 180 149 136 c 0
143 328 m 1
 109 419 l 1
 164 446 232 472 309 472 c 0
 412 472 499 423 487 326 c 1
 431 0 l 1
 306 0 l 1
 360 304 l 1
 362 344 337 367 291 369 c 0
 232 371 177 345 143 328 c 1
372 608 m 0
 377 648 418 681 459 680 c 0
 500 679 531 646 526 605 c 0
 521 565 479 532 438 533 c 0
 397 534 367 567 372 608 c 0
147 608 m 0
 152 648 193 681 234 680 c 0
 275 679 306 646 301 605 c 0
 296 565 255 532 214 533 c 0
 173 534 142 567 147 608 c 0
EndSplineSet
EndChar

StartChar: aring.alt
Encoding: 65542 -1 346
Width: 510
VWidth: 0
Flags: HMW
LayerCount: 2
Fore
SplineSet
149 136 m 0
 144 100 170 83 209 82 c 0
 274 80 323 119 339 184 c 1
 346 129 l 1
 326 44 254 -10 160 -10 c 0
 70 -10 6 43 18 128 c 0
 32 226 128 281 234 281 c 0
 298 281 351 256 379 228 c 1
 370 165 l 1
 336 191 301 206 254 205 c 0
 203 204 156 180 149 136 c 0
143 328 m 1
 109 419 l 1
 164 446 232 472 309 472 c 0
 412 472 499 423 487 326 c 1
 431 0 l 1
 306 0 l 1
 360 304 l 1
 362 344 337 367 291 369 c 0
 232 371 177 345 143 328 c 1
227 644 m 0
 235 706 295 754 358 754 c 0
 421 754 468 705 459 642 c 0
 451 579 390 533 327 533 c 0
 264 533 218 582 227 644 c 0
296 643 m 0
 293 619 309 596 332 595 c 0
 356 593 386 618 389 644 c 0
 392 668 376 691 353 692 c 0
 329 694 299 669 296 643 c 0
EndSplineSet
EndChar

StartChar: amacron.alt
Encoding: 65543 -1 347
Width: 510
VWidth: 0
Flags: HMW
LayerCount: 2
Fore
SplineSet
149 136 m 0
 144 100 170 83 209 82 c 0
 274 80 323 119 339 184 c 1
 346 129 l 1
 326 44 254 -10 160 -10 c 0
 70 -10 6 43 18 128 c 0
 32 226 128 281 234 281 c 0
 298 281 351 256 379 228 c 1
 370 165 l 1
 336 191 301 206 254 205 c 0
 203 204 156 180 149 136 c 0
143 328 m 1
 109 419 l 1
 164 446 232 472 309 472 c 0
 412 472 499 423 487 326 c 1
 431 0 l 1
 306 0 l 1
 360 304 l 1
 362 344 337 367 291 369 c 0
 232 371 177 345 143 328 c 1
147 544 m 1
 167 658 l 1
 525 658 l 1
 505 543 l 1
 147 544 l 1
EndSplineSet
EndChar

StartChar: abreve.alt
Encoding: 65544 -1 348
Width: 510
VWidth: 0
Flags: HMW
LayerCount: 2
Fore
SplineSet
149 136 m 0
 144 100 170 83 209 82 c 0
 274 80 323 119 339 184 c 1
 346 129 l 1
 326 44 254 -10 160 -10 c 0
 70 -10 6 43 18 128 c 0
 32 226 128 281 234 281 c 0
 298 281 351 256 379 228 c 1
 370 165 l 1
 336 191 301 206 254 205 c 0
 203 204 156 180 149 136 c 0
143 328 m 1
 109 419 l 1
 164 446 232 472 309 472 c 0
 412 472 499 423 487 326 c 1
 431 0 l 1
 306 0 l 1
 360 304 l 1
 362 344 337 367 291 369 c 0
 232 371 177 345 143 328 c 1
189 677 m 1
 277 676 l 1
 277 644 290 614 333 613 c 0
 377 612 404 645 415 676 c 1
 506 675 l 1
 488 597 426 533 328 533 c 0
 230 533 183 597 189 677 c 1
EndSplineSet
EndChar

StartChar: aogonek.alt
Encoding: 65545 -1 349
Width: 510
VWidth: 0
Flags: HMW
LayerCount: 2
Fore
SplineSet
149 136 m 0
 144 100 173 83 209 82 c 0
 274 80 323 119 339 184 c 1
 346 129 l 1
 326 44 254 -10 160 -10 c 0
 71 -10 7 44 19 132 c 0
 34 227 126 281 234 281 c 0
 298 281 351 256 379 228 c 1
 370 165 l 1
 336 191 301 206 254 205 c 0
 203 204 156 180 149 136 c 0
143 328 m 1
 109 419 l 1
 164 446 232 472 309 472 c 0
 412 472 499 423 487 326 c 1
 431 0 l 1
 306 0 l 1
 360 304 l 1
 362 344 337 367 291 369 c 0
 232 371 177 345 143 328 c 1
393 -116 m 1
 416 -182 l 1
 393 -202 363 -220 318 -220 c 0
 253 -220 207 -181 215 -119 c 0
 226 -50 303 -8 370 25 c 1
 410 0 l 1
 365 -25 318 -56 311 -96 c 0
 309 -119 317 -134 340 -136 c 0
 360 -138 379 -126 393 -116 c 1
EndSplineSet
EndChar

StartChar: dagger
Encoding: 8224 8224 350
Width: 596
VWidth: 0
Flags: HMW
LayerCount: 2
Fore
SplineSet
153 540 m 1
 577 540 l 1
 559 429 l 1
 135 429 l 1
 153 540 l 1
327 700 m 1
 451 700 l 1
 319 -150 l 1
 197 -150 l 1
 327 700 l 1
EndSplineSet
EndChar

StartChar: daggerdbl
Encoding: 8225 8225 351
Width: 596
VWidth: 0
Flags: HMW
LayerCount: 2
Fore
SplineSet
92 147 m 1
 516 147 l 1
 498 36 l 1
 74 36 l 1
 92 147 l 1
153 540 m 1
 577 540 l 1
 559 429 l 1
 135 429 l 1
 153 540 l 1
327 700 m 1
 451 700 l 1
 319 -150 l 1
 197 -150 l 1
 327 700 l 1
EndSplineSet
EndChar

StartChar: ellipsis
Encoding: 8230 8230 352
Width: 890
VWidth: 0
Flags: HMW
LayerCount: 2
Fore
SplineSet
55 61 m 0
 60 103 103 142 148 141 c 0
 194 140 223 102 218 59 c 0
 213 17 170 -22 125 -21 c 0
 79 -20 50 18 55 61 c 0
346 61 m 0
 351 103 394 142 439 141 c 0
 485 140 514 102 509 59 c 0
 504 17 461 -22 416 -21 c 0
 370 -20 341 18 346 61 c 0
637 61 m 0
 642 103 685 142 730 141 c 0
 776 140 805 102 800 59 c 0
 795 17 753 -22 708 -21 c 0
 662 -20 632 18 637 61 c 0
EndSplineSet
EndChar

StartChar: uniFF10
Encoding: 65296 65296 353
Width: 596
VWidth: 0
Flags: HMW
LayerCount: 2
Fore
SplineSet
194 350 m 0
 183 248 188 117 287 115 c 0
 387 113 451 235 467 350 c 0
 478 452 474 583 375 585 c 0
 275 587 210 465 194 350 c 0
56 350 m 0
 83 544 207 712 388 712 c 0
 573 712 629 532 606 350 c 0
 579 156 457 -12 274 -12 c 0
 92 -12 33 168 56 350 c 0
EndSplineSet
EndChar

StartChar: uniFF11
Encoding: 65297 65297 354
Width: 596
VWidth: 0
Flags: HMW
LayerCount: 2
Fore
SplineSet
166 515 m 1
 190 647 l 1
 503 713 l 1
 381 0 l 1
 242 0 l 1
 338 558 l 1
 166 515 l 1
EndSplineSet
EndChar

StartChar: uniFF12
Encoding: 65298 65298 355
Width: 596
VWidth: 0
Flags: HMW
LayerCount: 2
Fore
SplineSet
-13 0 m 1
 350 332 l 2
 402 381 452 427 463 488 c 0
 471 536 446 584 384 586 c 0
 308 588 255 520 240 447 c 1
 100 448 l 1
 127 593 235 714 401 713 c 0
 547 713 628 604 609 491 c 0
 597 415 547 354 485 303 c 2
 281 134 l 1
 562 133 l 1
 539 0 l 1
 -13 0 l 1
EndSplineSet
EndChar

StartChar: uniFF13
Encoding: 65299 65299 356
Width: 596
VWidth: 0
Flags: HMW
LayerCount: 2
Fore
SplineSet
295 341 m 1
 306 410 l 1
 377 415 442 451 453 512 c 0
 459 556 439 592 387 593 c 0
 330 594 288 552 274 504 c 1
 141 505 l 1
 165 623 263 712 398 712 c 0
 526 712 614 630 596 520 c 0
 575 394 436 344 295 341 c 1
277 -14 m 0
 130 -14 48 88 60 212 c 1
 200 211 l 1
 196 149 228 107 293 106 c 0
 355 105 409 143 419 204 c 0
 433 276 370 308 290 312 c 1
 301 388 l 1
 445 385 581 334 559 189 c 0
 540 64 420 -14 277 -14 c 0
EndSplineSet
EndChar

StartChar: uniFF14
Encoding: 65300 65300 357
Width: 596
VWidth: 0
Flags: HMW
LayerCount: 2
Fore
SplineSet
4 129 m 1
 138 237 l 1
 414 237 l 1
 434 253 l 1
 594 253 l 1
 572 129 l 1
 4 129 l 1
152 165 m 1
 2 127 l 1
 471 699 l 1
 571 700 l 1
 451 0 l 1
 304 0 l 1
 332 165 l 1
 347 176 l 1
 396 463 l 1
 152 165 l 1
EndSplineSet
EndChar

StartChar: uniFF15
Encoding: 65301 65301 358
Width: 596
VWidth: 0
Flags: HMW
LayerCount: 2
Fore
SplineSet
570 225 m 0
 548 73 408 -12 268 -12 c 0
 154 -12 77 34 19 96 c 1
 101 208 l 1
 141 159 196 121 257 121 c 0
 338 121 406 165 418 239 c 0
 429 310 374 352 304 354 c 0
 240 356 174 338 106 306 c 1
 211 384 l 1
 264 431 328 457 398 456 c 0
 518 455 586 350 570 225 c 0
353 574 m 1
 264 389 l 1
 100 301 l 1
 265 700 l 1
 640 700 l 1
 619 574 l 1
 353 574 l 1
EndSplineSet
EndChar

StartChar: uniFF16
Encoding: 65302 65302 359
Width: 596
VWidth: 0
Flags: HMW
LayerCount: 2
Fore
SplineSet
188 241 m 0
 177 172 213 112 286 111 c 0
 360 110 425 168 437 241 c 0
 448 309 412 372 339 373 c 0
 265 374 200 314 188 241 c 0
398 697 m 1
 583 697 l 1
 319 436 l 1
 289 428 l 1
 324 457 357 468 403 468 c 0
 518 467 593 361 577 241 c 0
 555 87 424 -14 273 -14 c 0
 125 -14 27 91 48 241 c 0
 59 311 99 371 145 422 c 2
 398 697 l 1
EndSplineSet
EndChar

StartChar: uniFF17
Encoding: 65303 65303 360
Width: 596
VWidth: 0
Flags: HMW
LayerCount: 2
Fore
SplineSet
111 564 m 1
 134 700 l 1
 670 700 l 1
 222 0 l 1
 66 0 l 1
 434 564 l 1
 111 564 l 1
EndSplineSet
EndChar

StartChar: uniFF18
Encoding: 65304 65304 361
Width: 596
VWidth: 0
Flags: HMW
LayerCount: 2
Fore
SplineSet
152 532 m 0
 169 644 280 714 398 714 c 0
 512 714 606 641 590 530 c 0
 573 413 458 346 344 346 c 0
 233 346 135 416 152 532 c 0
283 516 m 0
 276 470 302 429 350 428 c 0
 399 426 445 469 453 517 c 0
 460 563 436 605 387 606 c 0
 337 607 291 564 283 516 c 0
70 190 m 0
 89 323 223 394 343 394 c 0
 459 394 574 322 556 190 c 0
 537 68 411 -14 282 -14 c 0
 158 -14 52 69 70 190 c 0
214 211 m 0
 205 153 238 107 295 106 c 0
 353 105 409 151 419 212 c 0
 427 264 393 313 337 314 c 0
 280 315 224 266 214 211 c 0
EndSplineSet
EndChar

StartChar: uniFF19
Encoding: 65305 65305 362
Width: 596
VWidth: 0
Flags: HMW
LayerCount: 2
Fore
SplineSet
474 459 m 0
 485 528 449 588 376 589 c 0
 302 590 237 532 225 459 c 0
 214 391 250 328 323 327 c 0
 397 326 462 386 474 459 c 0
264 2 m 1
 79 2 l 1
 343 264 l 1
 373 272 l 1
 338 243 305 232 259 232 c 0
 144 233 69 339 85 459 c 0
 107 613 238 714 389 714 c 0
 537 714 635 609 614 459 c 0
 603 389 563 329 517 278 c 2
 264 2 l 1
EndSplineSet
EndChar

StartChar: caron
Encoding: 711 711 363
Width: 465
VWidth: 0
Flags: HMW
LayerCount: 2
Fore
SplineSet
317 671 m 1
 426 758 l 1
 506 694 l 1
 304 556 l 1
 143 698 l 1
 238 759 l 1
 317 671 l 1
EndSplineSet
EndChar

StartChar: napostrophe
Encoding: 329 329 364
Width: 693
VWidth: 0
Flags: HMW
LayerCount: 2
Fore
SplineSet
392 460 m 1
 313 0 l 1
 183 0 l 1
 263 460 l 1
 392 460 l 1
521 280 m 1
 526 329 520 369 467 372 c 0
 412 375 373 330 361 281 c 1
 328 277 l 1
 347 378 413 470 523 470 c 0
 630 470 668 395 656 294 c 1
 605 0 l 1
 472 0 l 1
 521 280 l 1
204 700 m 1
 344 700 l 1
 202 453 l 1
 108 453 l 1
 204 700 l 1
EndSplineSet
EndChar

StartChar: IJ
Encoding: 306 306 365
Width: 568
VWidth: 0
Flags: HMW
LayerCount: 2
Fore
SplineSet
161 -76 m 1
 179 -95 204 -110 233 -109 c 0
 271 -108 305 -75 313 -25 c 1
 438 700 l 1
 589 700 l 1
 460 -56 l 2
 440 -173 346 -234 230 -233 c 0
 166 -233 109 -206 70 -177 c 1
 161 -76 l 1
164 700 m 1
 310 700 l 1
 190 0 l 1
 46 0 l 1
 164 700 l 1
EndSplineSet
EndChar

StartChar: ij
Encoding: 307 307 366
Width: 518
VWidth: 0
Flags: HMW
LayerCount: 2
Fore
SplineSet
392 639 m 0
 397 679 438 712 479 711 c 0
 520 710 551 677 546 636 c 0
 541 596 500 563 459 564 c 0
 418 565 387 598 392 639 c 0
188 -88 m 1
 199 -97 215 -114 229 -114 c 0
 262 -116 284 -79 290 -39 c 1
 376 460 l 1
 502 460 l 1
 412 -69 l 2
 396 -165 331 -234 228 -233 c 0
 176 -233 144 -209 119 -184 c 1
 188 -88 l 1
136 639 m 0
 141 679 182 712 223 711 c 0
 264 710 296 677 291 636 c 0
 286 596 245 563 204 564 c 0
 163 565 131 598 136 639 c 0
119 460 m 1
 247 460 l 1
 167 0 l 1
 42 0 l 1
 119 460 l 1
EndSplineSet
EndChar

StartChar: uni0237
Encoding: 567 567 367
Width: 257
VWidth: 0
Flags: HMW
LayerCount: 2
Fore
SplineSet
-73 -88 m 1
 -62 -103 -49 -114 -32 -114 c 0
 2 -114 23 -80 29 -39 c 1
 115 460 l 1
 241 460 l 1
 151 -69 l 2
 135 -165 71 -234 -32 -233 c 0
 -84 -233 -118 -209 -142 -184 c 1
 -73 -88 l 1
EndSplineSet
EndChar

StartChar: Sacute
Encoding: 346 346 368
Width: 584
VWidth: 0
Flags: HMW
LayerCount: 2
Fore
SplineSet
149 244 m 1
 179 169 215 110 293 110 c 0
 350 110 393 140 403 191 c 0
 416 258 346 285 282 312 c 0
 205 346 119 410 134 524 c 0
 152 640 263 714 390 714 c 0
 510 714 583 645 607 561 c 1
 490 496 l 1
 468 546 440 587 382 588 c 0
 332 588 287 560 279 517 c 0
 267 460 351 433 413 408 c 0
 502 371 567 303 553 194 c 0
 534 61 420 -19 275 -19 c 0
 154 -19 67 61 36 173 c 1
 149 244 l 1
606 922 m 1
 408 775 l 1
 338 816 l 1
 509 973 l 1
 606 922 l 1
EndSplineSet
EndChar

StartChar: sacute
Encoding: 347 347 369
Width: 427
VWidth: 0
Flags: HMW
LayerCount: 2
Fore
SplineSet
82 170 m 1
 118 120 158 88 205 88 c 0
 235 88 264 101 269 128 c 0
 276 167 211 183 171 202 c 0
 113 230 64 270 74 341 c 0
 87 425 174 470 261 470 c 0
 334 470 397 439 436 394 c 1
 369 314 l 1
 340 346 299 369 259 369 c 0
 231 369 201 359 197 334 c 0
 192 301 257 285 296 268 c 0
 357 242 408 201 399 130 c 0
 387 32 308 -16 208 -16 c 0
 119 -16 47 28 7 90 c 1
 82 170 l 1
477 678 m 1
 279 531 l 1
 209 572 l 1
 380 729 l 1
 477 678 l 1
EndSplineSet
EndChar

StartChar: Scircumflex
Encoding: 348 348 370
Width: 584
VWidth: 0
Flags: HMW
LayerCount: 2
Fore
SplineSet
149 244 m 1
 179 169 215 110 293 110 c 0
 350 110 393 140 403 191 c 0
 416 258 346 285 282 312 c 0
 205 346 119 410 134 524 c 0
 152 640 263 714 390 714 c 0
 510 714 583 645 607 561 c 1
 490 496 l 1
 468 546 440 587 382 588 c 0
 332 588 287 560 279 517 c 0
 267 460 351 433 413 408 c 0
 502 371 567 303 553 194 c 0
 534 61 420 -19 275 -19 c 0
 154 -19 67 61 36 173 c 1
 149 244 l 1
423 862 m 1
 314 775 l 1
 234 839 l 1
 436 977 l 1
 597 835 l 1
 502 774 l 1
 423 862 l 1
EndSplineSet
EndChar

StartChar: scircumflex
Encoding: 349 349 371
Width: 427
VWidth: 0
Flags: HMW
LayerCount: 2
Fore
SplineSet
82 170 m 1
 118 120 159 88 206 88 c 0
 236 88 264 101 269 128 c 0
 276 167 211 183 171 202 c 0
 113 230 64 270 74 341 c 0
 87 425 174 470 261 470 c 0
 334 470 397 439 436 394 c 1
 369 314 l 1
 340 346 299 369 259 369 c 0
 231 369 201 359 197 334 c 0
 192 301 257 285 296 268 c 0
 357 242 408 201 399 130 c 0
 387 32 308 -16 208 -16 c 0
 119 -16 47 28 7 90 c 1
 82 170 l 1
302 618 m 1
 194 531 l 1
 113 595 l 1
 315 733 l 1
 476 591 l 1
 381 530 l 1
 302 618 l 1
EndSplineSet
EndChar

StartChar: uni1E9E
Encoding: 7838 7838 372
Width: 815
VWidth: 0
Flags: HMW
LayerCount: 2
Fore
SplineSet
488 -14 m 0
 335 -14 268 95 280 212 c 1
 407 211 l 1
 403 153 433 107 500 106 c 0
 566 105 616 144 626 204 c 0
 640 280 573 308 497 312 c 1
 507 380 l 1
 648 377 787 326 765 184 c 0
 746 62 624 -14 488 -14 c 0
503 346 m 1
 513 411 l 1
 584 415 643 447 654 508 c 0
 665 568 601 595 525 595 c 0
 389 595 278 504 253 350 c 1
 192 0 l 1
 49 0 l 1
 112 368 l 2
 147 577 315 710 531 710 c 0
 680 710 824 653 803 525 c 0
 783 402 648 349 503 346 c 1
EndSplineSet
EndChar

StartChar: Zacute
Encoding: 377 377 373
Width: 580
VWidth: 0
Flags: HW
LayerCount: 2
Fore
SplineSet
118 569 m 1
 141 700 l 1
 661 700 l 1
 232 127 l 1
 532 127 l 1
 509 0 l 1
 -20 0 l 1
 406 568 l 1
 118 569 l 1
603 922 m 1
 405 775 l 1
 335 816 l 1
 506 973 l 1
 603 922 l 1
EndSplineSet
EndChar

StartChar: zacute
Encoding: 378 378 374
Width: 489
VWidth: 0
Flags: HW
LayerCount: 2
Fore
SplineSet
289 340 m 1
 82 341 l 1
 103 460 l 1
 530 460 l 1
 233 120 l 1
 442 119 l 1
 421 0 l 1
 -16 0 l 1
 289 340 l 1
519 689 m 1
 321 542 l 1
 252 583 l 1
 423 740 l 1
 519 689 l 1
EndSplineSet
EndChar

StartChar: Zdotaccent
Encoding: 379 379 375
Width: 580
VWidth: 0
Flags: HW
LayerCount: 2
Fore
SplineSet
118 569 m 1
 141 700 l 1
 661 700 l 1
 232 127 l 1
 532 127 l 1
 509 0 l 1
 -20 0 l 1
 406 568 l 1
 118 569 l 1
348 850 m 0
 353 890 394 923 435 922 c 0
 476 921 507 888 502 847 c 0
 497 807 456 774 415 775 c 0
 374 776 343 809 348 850 c 0
EndSplineSet
EndChar

StartChar: zdotaccent
Encoding: 380 380 376
Width: 489
VWidth: 0
Flags: HW
LayerCount: 2
Fore
SplineSet
289 340 m 1
 82 341 l 1
 103 460 l 1
 530 460 l 1
 233 120 l 1
 442 119 l 1
 421 0 l 1
 -16 0 l 1
 289 340 l 1
265 622 m 0
 270 662 312 696 353 695 c 0
 394 694 425 661 420 620 c 0
 415 580 374 547 333 548 c 0
 292 549 260 581 265 622 c 0
EndSplineSet
EndChar

StartChar: Tcaron
Encoding: 356 356 377
Width: 517
VWidth: 0
Flags: HW
LayerCount: 2
Fore
SplineSet
74 569 m 1
 97 700 l 1
 607 700 l 1
 584 569 l 1
 401 569 l 1
 303 0 l 1
 160 0 l 1
 258 569 l 1
 74 569 l 1
380 889 m 1
 489 976 l 1
 569 912 l 1
 367 774 l 1
 207 917 l 1
 302 977 l 1
 380 889 l 1
EndSplineSet
EndChar

StartChar: tcaron
Encoding: 357 357 378
Width: 432
VWidth: 0
Flags: HW
LayerCount: 2
Fore
SplineSet
56 460 m 1
 335 460 l 1
 315 349 l 1
 36 349 l 1
 56 460 l 1
159 620 m 1
 285 620 l 1
 178 0 l 1
 54 0 l 1
 159 620 l 1
451 792 m 1
 578 759 l 1
 418 512 l 1
 322 536 l 1
 451 792 l 1
EndSplineSet
EndChar

StartChar: Uring
Encoding: 366 366 379
Width: 658
VWidth: 0
Flags: HW
LayerCount: 2
Fore
SplineSet
160 700 m 1
 303 700 l 1
 223 239 l 2
 214 170 238 109 317 108 c 0
 397 107 448 166 462 239 c 1
 542 700 l 1
 685 700 l 1
 605 230 l 2
 579 76 458 -23 303 -23 c 0
 152 -23 60 78 80 230 c 1
 160 700 l 1
338 887 m 0
 346 949 406 996 469 996 c 0
 532 996 579 948 570 885 c 0
 562 822 501 775 438 775 c 0
 375 775 329 825 338 887 c 0
407 885 m 0
 404 861 420 838 443 837 c 0
 467 835 497 860 500 886 c 0
 503 910 487 934 464 935 c 0
 440 937 410 911 407 885 c 0
EndSplineSet
EndChar

StartChar: uring
Encoding: 367 367 380
Width: 543
VWidth: 0
Flags: HW
LayerCount: 2
Fore
SplineSet
326 0 m 1
 405 460 l 1
 535 460 l 1
 456 0 l 1
 326 0 l 1
197 180 m 1
 192 131 198 91 251 88 c 0
 306 85 345 130 357 179 c 1
 385 183 l 1
 367 82 305 -10 195 -10 c 0
 88 -10 50 65 62 166 c 1
 113 460 l 1
 246 460 l 1
 197 180 l 1
238 643 m 0
 246 705 307 752 370 752 c 0
 433 752 479 704 470 641 c 0
 462 578 401 531 338 531 c 0
 275 531 229 581 238 643 c 0
308 641 m 0
 305 617 320 594 343 593 c 0
 367 591 398 616 401 642 c 0
 404 666 388 690 365 691 c 0
 341 693 311 667 308 641 c 0
EndSplineSet
EndChar

StartChar: Wcircumflex
Encoding: 372 372 381
Width: 1012
VWidth: 0
Flags: HW
LayerCount: 2
Fore
SplineSet
716 257 m 1
 931 700 l 1
 1102 700 l 1
 692 -42 l 1
 554 414 l 1
 263 -43 l 1
 98 700 l 1
 263 700 l 1
 330 258 l 1
 603 738 l 1
 716 257 l 1
633 884 m 1
 524 797 l 1
 443 862 l 1
 644 999 l 1
 806 857 l 1
 711 796 l 1
 633 884 l 1
EndSplineSet
EndChar

StartChar: wcircumflex
Encoding: 373 373 382
Width: 715
VWidth: 0
Flags: HW
LayerCount: 2
Fore
SplineSet
49 460 m 1
 182 460 l 1
 236 210 l 1
 412 498 l 1
 492 208 l 1
 634 460 l 1
 775 460 l 1
 468 -33 l 1
 375 257 l 1
 184 -33 l 1
 49 460 l 1
442 644 m 1
 333 557 l 1
 252 621 l 1
 453 759 l 1
 615 616 l 1
 520 556 l 1
 442 644 l 1
EndSplineSet
EndChar

StartChar: Ycircumflex
Encoding: 374 374 383
Width: 612
VWidth: 0
Flags: HW
LayerCount: 2
Fore
SplineSet
541 700 m 1
 709 700 l 1
 401 286 l 1
 352 0 l 1
 206 0 l 1
 258 294 l 1
 94 700 l 1
 253 700 l 1
 349 423 l 1
 541 700 l 1
427 862 m 1
 318 775 l 1
 237 840 l 1
 438 977 l 1
 600 835 l 1
 505 774 l 1
 427 862 l 1
EndSplineSet
EndChar

StartChar: ycircumflex
Encoding: 375 375 384
Width: 482
VWidth: 0
Flags: HW
LayerCount: 2
Fore
SplineSet
545 460 m 1
 137 -220 l 1
 -1 -220 l 1
 162 50 l 1
 46 460 l 1
 186 460 l 1
 267 93 l 1
 202 96 l 1
 405 460 l 1
 545 460 l 1
325 618 m 1
 216 531 l 1
 135 596 l 1
 337 733 l 1
 498 591 l 1
 403 530 l 1
 325 618 l 1
EndSplineSet
EndChar

StartChar: Utilde
Encoding: 360 360 385
Width: 658
VWidth: 0
Flags: HW
LayerCount: 2
Fore
SplineSet
126 700 m 1
 271 700 l 1
 190 239 l 2
 181 171 203 109 282 108 c 0
 362 106 414 166 428 239 c 1
 507 700 l 1
 652 700 l 1
 572 230 l 2
 547 76 427 -23 272 -23 c 0
 121 -23 26 78 46 230 c 1
 126 700 l 1
228 834 m 1
 228 881 306 923 351 922 c 0
 405 921 422 871 471 873 c 0
 498 874 521 898 542 924 c 1
 599 856 l 1
 575 819 523 775 467 777 c 0
 419 779 391 829 346 827 c 0
 312 825 298 795 289 777 c 1
 228 834 l 1
EndSplineSet
EndChar

StartChar: utilde
Encoding: 361 361 386
Width: 543
VWidth: 0
Flags: HW
LayerCount: 2
Fore
SplineSet
292 0 m 1
 371 460 l 1
 503 460 l 1
 423 0 l 1
 292 0 l 1
164 180 m 1
 158 132 165 91 217 88 c 0
 272 85 311 130 323 179 c 1
 351 183 l 1
 334 82 272 -9 163 -10 c 0
 56 -11 17 64 29 166 c 1
 79 460 l 1
 213 460 l 1
 164 180 l 1
129 590 m 1
 149 635 194 679 251 678 c 0
 305 677 323 627 372 629 c 0
 399 630 422 654 443 680 c 1
 499 612 l 1
 475 575 424 531 368 533 c 0
 320 535 291 585 246 583 c 0
 212 581 199 551 190 533 c 1
 129 590 l 1
EndSplineSet
EndChar

StartChar: Umacron
Encoding: 362 362 387
Width: 658
VWidth: 0
Flags: HW
LayerCount: 2
Fore
SplineSet
126 700 m 1
 271 700 l 1
 190 239 l 2
 181 171 203 109 282 108 c 0
 362 106 414 166 428 239 c 1
 507 700 l 1
 652 700 l 1
 572 230 l 2
 547 76 427 -23 272 -23 c 0
 121 -23 26 78 46 230 c 1
 126 700 l 1
223 775 m 1
 242 889 l 1
 601 889 l 1
 581 775 l 1
 223 775 l 1
EndSplineSet
EndChar

StartChar: umacron
Encoding: 363 363 388
Width: 543
VWidth: 0
Flags: HW
LayerCount: 2
Fore
SplineSet
292 0 m 1
 371 460 l 1
 503 460 l 1
 423 0 l 1
 292 0 l 1
164 180 m 1
 158 132 165 91 217 88 c 0
 272 85 311 130 323 179 c 1
 351 183 l 1
 334 82 272 -9 163 -10 c 0
 56 -11 17 64 29 166 c 1
 79 460 l 1
 213 460 l 1
 164 180 l 1
124 531 m 1
 143 645 l 1
 502 645 l 1
 482 531 l 1
 124 531 l 1
EndSplineSet
EndChar

StartChar: Ubreve
Encoding: 364 364 389
Width: 658
VWidth: 0
Flags: HW
LayerCount: 2
Fore
SplineSet
126 700 m 1
 271 700 l 1
 190 239 l 2
 181 171 203 109 282 108 c 0
 362 106 414 166 428 239 c 1
 507 700 l 1
 652 700 l 1
 572 230 l 2
 547 76 427 -23 272 -23 c 0
 121 -23 26 78 46 230 c 1
 126 700 l 1
266 919 m 1
 354 918 l 1
 353 887 366 857 409 856 c 0
 453 855 480 887 491 918 c 1
 584 917 l 1
 567 838 505 775 407 775 c 0
 309 775 261 838 266 919 c 1
EndSplineSet
EndChar

StartChar: ubreve
Encoding: 365 365 390
Width: 543
VWidth: 0
Flags: HW
LayerCount: 2
Fore
SplineSet
292 0 m 1
 371 460 l 1
 503 460 l 1
 423 0 l 1
 292 0 l 1
164 180 m 1
 158 132 165 91 217 88 c 0
 272 85 311 130 323 179 c 1
 351 183 l 1
 334 82 272 -9 163 -10 c 0
 56 -11 17 64 29 166 c 1
 79 460 l 1
 213 460 l 1
 164 180 l 1
167 675 m 1
 255 674 l 1
 254 643 266 613 309 612 c 0
 353 611 381 643 392 674 c 1
 484 673 l 1
 467 594 406 531 308 531 c 0
 210 531 162 594 167 675 c 1
EndSplineSet
EndChar

StartChar: uni0123
Encoding: 291 291 391
Width: 553
VWidth: 0
Flags: HW
LayerCount: 2
Fore
SplineSet
349 850 m 1
 472 803 l 1
 299 568 l 1
 206 602 l 1
 349 850 l 1
-27 -32 m 1
 97 -33 l 1
 97 -89 127 -127 191 -128 c 0
 264 -129 324 -71 338 10 c 1
 416 460 l 1
 542 460 l 1
 465 10 l 2
 441 -143 329 -235 188 -236 c 0
 42 -236 -30 -155 -27 -32 c 1
10 235 m 0
 28 372 137 470 261 470 c 0
 384 470 435 360 419 234 c 0
 402 103 314 -1 192 -1 c 0
 68 -1 -7 103 10 235 c 0
144 234 m 0
 134 165 170 109 238 108 c 0
 301 107 366 162 377 235 c 0
 387 303 352 359 290 361 c 0
 220 363 156 306 144 234 c 0
EndSplineSet
EndChar

StartChar: Hbar
Encoding: 294 294 392
Width: 742
VWidth: 0
Flags: HW
LayerCount: 2
Fore
SplineSet
110 307 m 1
 132 438 l 1
 636 438 l 1
 614 307 l 1
 110 307 l 1
586 700 m 1
 732 700 l 1
 611 0 l 1
 468 0 l 1
 586 700 l 1
130 700 m 1
 276 700 l 1
 155 0 l 1
 12 0 l 1
 130 700 l 1
35 538 m 1
 52 635 l 1
 789 635 l 1
 773 538 l 1
 35 538 l 1
EndSplineSet
EndChar

StartChar: hbar
Encoding: 295 295 393
Width: 539
VWidth: 0
Flags: HW
LayerCount: 2
Fore
SplineSet
264 780 m 1
 130 0 l 1
 -1 0 l 1
 133 780 l 1
 264 780 l 1
338 280 m 1
 344 328 337 369 285 372 c 0
 230 375 191 330 179 281 c 1
 151 281 l 1
 169 382 230 474 339 475 c 0
 447 476 481 400 469 299 c 1
 418 0 l 1
 289 0 l 1
 338 280 l 1
46 605 m 1
 66 720 l 1
 386 720 l 1
 366 605 l 1
 46 605 l 1
EndSplineSet
EndChar

StartChar: uni0400
Encoding: 1024 1024 394
Width: 533
VWidth: 0
Flags: HW
LayerCount: 2
Fore
SplineSet
136 0 m 1
 157 122 l 1
 503 122 l 1
 482 0 l 1
 136 0 l 1
235 578 m 1
 255 700 l 1
 602 700 l 1
 581 578 l 1
 235 578 l 1
189 311 m 1
 210 431 l 1
 537 431 l 1
 516 311 l 1
 189 311 l 1
163 700 m 1
 305 700 l 1
 184 0 l 1
 45 0 l 1
 163 700 l 1
250 927 m 1
 356 974 l 1
 478 810 l 1
 405 774 l 1
 250 927 l 1
EndSplineSet
EndChar

StartChar: uni0401
Encoding: 1025 1025 395
Width: 533
VWidth: 0
Flags: HW
LayerCount: 2
Fore
SplineSet
136 0 m 1
 157 122 l 1
 503 122 l 1
 482 0 l 1
 136 0 l 1
235 578 m 1
 255 700 l 1
 602 700 l 1
 581 578 l 1
 235 578 l 1
189 311 m 1
 210 431 l 1
 537 431 l 1
 516 311 l 1
 189 311 l 1
163 700 m 1
 305 700 l 1
 184 0 l 1
 45 0 l 1
 163 700 l 1
449 850 m 0
 453 890 494 923 535 922 c 0
 577 921 609 888 604 847 c 0
 600 807 559 774 518 775 c 0
 476 776 444 809 449 850 c 0
225 850 m 0
 229 890 270 923 311 922 c 0
 353 921 385 888 380 847 c 0
 376 807 335 774 294 775 c 0
 252 776 220 809 225 850 c 0
EndSplineSet
EndChar

StartChar: uni0403
Encoding: 1027 1027 396
Width: 471
VWidth: 0
Flags: HW
LayerCount: 2
Fore
SplineSet
167 700 m 1
 557 700 l 1
 534 569 l 1
 291 569 l 1
 192 0 l 1
 49 0 l 1
 167 700 l 1
567 921 m 1
 372 775 l 1
 300 816 l 1
 469 972 l 1
 567 921 l 1
EndSplineSet
EndChar

StartChar: uni040C
Encoding: 1036 1036 397
Width: 548
VWidth: 0
Flags: HW
LayerCount: 2
Fore
SplineSet
163 700 m 1
 314 700 l 1
 192 0 l 1
 45 0 l 1
 163 700 l 1
546 700 m 1
 725 700 l 1
 381 367 l 1
 611 0 l 1
 445 0 l 1
 213 373 l 1
 546 700 l 1
613 911 m 1
 417 766 l 1
 345 808 l 1
 514 964 l 1
 613 911 l 1
EndSplineSet
EndChar

StartChar: uni040D
Encoding: 1037 1037 398
Width: 764
VWidth: 0
Flags: HW
LayerCount: 2
Fore
SplineSet
754 543 m 1
 34 -43 l 1
 77 157 l 1
 796 744 l 1
 754 543 l 1
305 700 m 1
 203 111 l 1
 34 -43 l 1
 164 700 l 1
 305 700 l 1
796 744 m 1
 666 0 l 1
 526 0 l 1
 626 585 l 1
 796 744 l 1
354 907 m 1
 459 954 l 1
 581 790 l 1
 508 754 l 1
 354 907 l 1
EndSplineSet
EndChar

StartChar: uni040E
Encoding: 1038 1038 399
Width: 576
VWidth: 0
Flags: HW
LayerCount: 2
Fore
SplineSet
680 700 m 1
 241 0 l 1
 90 0 l 1
 222 217 l 1
 87 700 l 1
 240 700 l 1
 334 268 l 1
 267 271 l 1
 527 700 l 1
 680 700 l 1
256 919 m 1
 344 918 l 1
 344 886 358 856 400 855 c 0
 444 854 471 887 481 918 c 1
 574 917 l 1
 557 838 495 774 397 774 c 0
 299 774 252 838 256 919 c 1
EndSplineSet
EndChar

StartChar: uni0410
Encoding: 1040 1040 400
Width: 691
VWidth: 0
Flags: HW
LayerCount: 2
Fore
SplineSet
167 157 m 1
 202 271 l 1
 532 271 l 1
 529 156 l 1
 167 157 l 1
404 471 m 1
 261 230 l 1
 259 198 l 1
 137 0 l 1
 -32 0 l 1
 445 745 l 1
 664 0 l 1
 506 0 l 1
 451 192 l 1
 460 228 l 1
 404 471 l 1
EndSplineSet
EndChar

StartChar: uni0411
Encoding: 1041 1041 401
Width: 617
VWidth: 0
Flags: HW
LayerCount: 2
Fore
SplineSet
149 311 m 1
 168 431 l 1
 388 431 l 1
 516 430 609 341 591 216 c 0
 573 89 459 1 328 0 c 1
 94 0 l 1
 115 122 l 1
 313 122 l 2
 380 123 433 154 445 217 c 0
 456 277 417 310 353 311 c 1
 149 311 l 1
167 700 m 1
 622 700 l 1
 601 578 l 1
 294 578 l 1
 195 0 l 1
 49 0 l 1
 167 700 l 1
EndSplineSet
EndChar

StartChar: uni0412
Encoding: 1042 1042 402
Width: 614
VWidth: 0
Flags: HW
LayerCount: 2
Fore
SplineSet
212.170898438 355 m 1
 223.170898438 420 l 1
 329.170898438 421 l 1
 386.170898438 422 436.170898438 451 446.170898438 504 c 0
 455.170898438 554 421.170898438 583 367.170898438 585 c 1
 291.170898438 585 l 1
 208.170898438 115 l 1
 290.170898438 115 l 1
 360.170898438 117 424.170898438 148 436.170898438 218 c 0
 447.170898438 283 400.170898438 312 335.170898438 314 c 1
 205.170898438 315 l 1
 219.170898438 394 l 1
 351.170898438 394 l 1
 476.170898438 392 598.170898438 334 580.170898438 199 c 0
 562.170898438 61 440.170898438 2 296.170898438 0 c 1
 45.1708984375 0 l 1
 165.170898438 700 l 1
 388.170898438 700 l 1
 509.170898438 698 613.170898438 642 596.170898438 522 c 0
 580.170898438 410 466.170898438 357 342.170898438 355 c 2
 212.170898438 355 l 1
EndSplineSet
EndChar

StartChar: uni0413
Encoding: 1043 1043 403
Width: 471
VWidth: 0
Flags: HW
LayerCount: 2
Fore
SplineSet
167 700 m 1
 557 700 l 1
 534 569 l 1
 291 569 l 1
 192 0 l 1
 49 0 l 1
 167 700 l 1
EndSplineSet
EndChar

StartChar: uni0414
Encoding: 1044 1044 404
Width: 831
VWidth: 0
Flags: HW
LayerCount: 2
Fore
SplineSet
467 459 m 1
 241 30 l 1
 71 30 l 1
 511 739 l 1
 706 30 l 1
 547 30 l 1
 467 459 l 1
624 0 m 1
 152 0 l 1
 132 -110 l 1
 -9 -110 l 1
 32 127 l 1
 785 127 l 1
 744 -110 l 1
 603 -110 l 1
 624 0 l 1
EndSplineSet
EndChar

StartChar: uni0415
Encoding: 1045 1045 405
Width: 571
VWidth: 0
Flags: HW
LayerCount: 2
Fore
SplineSet
137 0 m 1
 157 122 l 1
 504 122 l 1
 483 0 l 1
 137 0 l 1
235 578 m 1
 256 700 l 1
 603 700 l 1
 581 578 l 1
 235 578 l 1
190 311 m 1
 210 431 l 1
 537 431 l 1
 517 311 l 1
 190 311 l 1
164 700 m 1
 306 700 l 1
 184 0 l 1
 46 0 l 1
 164 700 l 1
EndSplineSet
EndChar

StartChar: uni0416
Encoding: 1046 1046 406
Width: 999
VWidth: 0
Flags: HW
LayerCount: 2
Fore
SplineSet
271 700 m 1
 501 365 l 1
 145 0 l 1
 -32 0 l 1
 338 377 l 1
 110 700 l 1
 271 700 l 1
520 700 m 1
 670 700 l 1
 550 0 l 1
 402 0 l 1
 520 700 l 1
901 700 m 1
 1084 700 l 1
 735 367 l 1
 970 0 l 1
 804 0 l 1
 577 376 l 1
 901 700 l 1
EndSplineSet
EndChar

StartChar: uni0417
Encoding: 1047 1047 407
Width: 631
VWidth: 0
Flags: HW
LayerCount: 2
Fore
SplineSet
320 341 m 1
 329 410 l 1
 413 414 485 444 498 508 c 0
 507 559 472 592 410 593 c 0
 339 594 289 556 272 504 c 1
 138 505 l 1
 162 629 267 712 417 712 c 0
 556 712 660 636 642 520 c 0
 621 390 468 343 320 341 c 1
309 -14 m 0
 139 -14 44 79 56 212 c 1
 196 211 l 1
 195 144 235 107 312 106 c 0
 389 105 452 138 465 204 c 0
 482 280 405 309 316 312 c 1
 326 389 l 1
 476 387 626 337 605 189 c 0
 586 60 465 -14 309 -14 c 0
EndSplineSet
EndChar

StartChar: uni0418
Encoding: 1048 1048 408
Width: 764
VWidth: 0
Flags: HW
LayerCount: 2
Fore
SplineSet
754 543 m 1
 34 -43 l 1
 77 157 l 1
 796 744 l 1
 754 543 l 1
305 700 m 1
 203 111 l 1
 34 -43 l 1
 164 700 l 1
 305 700 l 1
796 744 m 1
 666 0 l 1
 526 0 l 1
 626 585 l 1
 796 744 l 1
EndSplineSet
EndChar

StartChar: uni0419
Encoding: 1049 1049 409
Width: 764
VWidth: 0
Flags: HW
LayerCount: 2
Fore
SplineSet
754 543 m 1
 34 -43 l 1
 77 157 l 1
 796 744 l 1
 754 543 l 1
305 700 m 1
 203 111 l 1
 34 -43 l 1
 164 700 l 1
 305 700 l 1
796 744 m 1
 666 0 l 1
 526 0 l 1
 626 585 l 1
 796 744 l 1
361 917 m 1
 449 917 l 1
 449 885 464 855 507 854 c 0
 551 853 577 885 587 916 c 1
 678 916 l 1
 661 837 600 773 502 773 c 0
 405 773 357 837 361 917 c 1
EndSplineSet
EndChar

StartChar: uni041A
Encoding: 1050 1050 410
Width: 643
VWidth: 0
Flags: HW
LayerCount: 2
Fore
SplineSet
163 700 m 1
 314 700 l 1
 192 0 l 1
 45 0 l 1
 163 700 l 1
546 700 m 1
 725 700 l 1
 381 367 l 1
 611 0 l 1
 445 0 l 1
 213 373 l 1
 546 700 l 1
EndSplineSet
EndChar

StartChar: uni041B
Encoding: 1051 1051 411
Width: 715
VWidth: 0
Flags: HW
LayerCount: 2
Fore
SplineSet
733 700 m 1
 613 0 l 1
 466 0 l 1
 564 569 l 1
 321 569 l 1
 272 280 l 2
 244 111 155 9 -17 1 c 1
 0 122 l 1
 72 133 112 196 126 279 c 1
 199 700 l 1
 733 700 l 1
EndSplineSet
EndChar

StartChar: uni041C
Encoding: 1052 1052 412
Width: 844
VWidth: 0
Flags: HW
LayerCount: 2
Fore
SplineSet
268 388 m 1
 157 0 l 1
 4 0 l 1
 233 736 l 1
 439 288 l 1
 808 742 l 1
 781 0 l 1
 632 0 l 1
 654 381 l 1
 407 63 l 1
 268 388 l 1
EndSplineSet
EndChar

StartChar: uni041D
Encoding: 1053 1053 413
Width: 742
VWidth: 0
Flags: HW
LayerCount: 2
Fore
SplineSet
143 307 m 1
 165 438 l 1
 670 438 l 1
 647 307 l 1
 143 307 l 1
619 700 m 1
 765 700 l 1
 644 0 l 1
 501 0 l 1
 619 700 l 1
163 700 m 1
 309 700 l 1
 188 0 l 1
 45 0 l 1
 163 700 l 1
EndSplineSet
EndChar

StartChar: uni041E
Encoding: 1054 1054 414
Width: 787
VWidth: 0
Flags: HW
LayerCount: 2
Fore
SplineSet
218.125976562 350 m 0
 199.125976562 234 253.125976562 122 381.125976562 121 c 0
 511.125976562 120 614.125976562 225 636.125976562 350 c 0
 655.125976562 467 602.125976562 578 472.125976562 579 c 0
 342.125976562 580 240.125976562 475 218.125976562 350 c 0
65.1259765625 350 m 0
 95.1259765625 554 271.125976562 714 482.125976562 714 c 0
 690.125976562 714 816.125976562 548 788.125976562 350 c 0
 758.125976562 145 584.125976562 -19 370.125976562 -19 c 0
 160.125976562 -19 37.1259765625 152 65.1259765625 350 c 0
EndSplineSet
EndChar

StartChar: uni041F
Encoding: 1055 1055 415
Width: 732
VWidth: 0
Flags: HW
LayerCount: 2
Fore
SplineSet
582 569 m 1
 293 569 l 1
 195 0 l 1
 48 0 l 1
 168 700 l 1
 750 700 l 1
 629 0 l 1
 484 0 l 1
 582 569 l 1
EndSplineSet
EndChar

StartChar: uni0420
Encoding: 1056 1056 416
Width: 585
VWidth: 0
Flags: HW
LayerCount: 2
Fore
SplineSet
164.372070312 700 m 1
 310.372070312 700 l 1
 189.372070312 0 l 1
 46.3720703125 0 l 1
 164.372070312 700 l 1
231.372070312 578 m 1
 251.372070312 700 l 1
 381.372070312 700 l 1
 530.372070312 698 626.372070312 614 606.372070312 476 c 0
 586.372070312 337 471.372070312 255 318.372070312 253 c 1
 174.372070312 253 l 1
 196.372070312 375 l 1
 326.372070312 376 l 2
 396.372070312 377 454.372070312 412 467.372070312 477 c 0
 478.372070312 540 439.372070312 575 372.372070312 577 c 1
 231.372070312 578 l 1
EndSplineSet
EndChar

StartChar: uni0421
Encoding: 1057 1057 417
Width: 675
VWidth: 0
Flags: HW
LayerCount: 2
Fore
SplineSet
222 350 m 0
 202 229 270 128 393 126 c 0
 487 125 562 170 621 220 c 1
 598 58 l 1
 535 13 467 -14 375 -14 c 0
 165 -14 37 150 65 350 c 0
 95 558 271 714 486 714 c 0
 575 714 637 688 694 641 c 1
 671 479 l 1
 629 536 568 575 482 575 c 0
 357 575 245 478 222 350 c 0
EndSplineSet
EndChar

StartChar: uni0422
Encoding: 1058 1058 418
Width: 518
VWidth: 0
Flags: HW
LayerCount: 2
Fore
SplineSet
73 569 m 1
 97 700 l 1
 608 700 l 1
 585 569 l 1
 402 569 l 1
 304 0 l 1
 160 0 l 1
 257 569 l 1
 73 569 l 1
EndSplineSet
EndChar

StartChar: uni0423
Encoding: 1059 1059 419
Width: 584
VWidth: 0
Flags: HW
LayerCount: 2
Fore
SplineSet
689 700 m 1
 249 0 l 1
 94 0 l 1
 226 217 l 1
 87 700 l 1
 244 700 l 1
 338 268 l 1
 271 271 l 1
 532 700 l 1
 689 700 l 1
EndSplineSet
EndChar

StartChar: uni0424
Encoding: 1060 1060 420
Width: 862
VWidth: 0
Flags: HW
LayerCount: 2
Fore
SplineSet
450 700 m 1
 598 700 l 1
 477 0 l 1
 332 0 l 1
 450 700 l 1
713 350 m 0
 733 449 654 489 551 490 c 1
 438 490 l 2
 328 489 235 450 215 350 c 0
 195 251 275 211 378 210 c 1
 490 210 l 2
 600 211 693 250 713 350 c 0
859 350 m 0
 834 182 679 81 503 80 c 1
 347 80 l 1
 178 81 46 184 70 350 c 0
 95 518 250 619 426 620 c 1
 582 620 l 1
 751 619 883 516 859 350 c 0
EndSplineSet
EndChar

StartChar: uni0425
Encoding: 1061 1061 421
Width: 638
VWidth: 0
Flags: HW
LayerCount: 2
Fore
SplineSet
531 700 m 1
 713 700 l 1
 440 356 l 1
 601 0 l 1
 431 0 l 1
 340 246 l 1
 161 0 l 1
 -22 0 l 1
 276 367 l 1
 130 700 l 1
 299 700 l 1
 376 485 l 1
 531 700 l 1
EndSplineSet
EndChar

StartChar: uni0426
Encoding: 1062 1062 422
Width: 805
VWidth: 0
Flags: HW
LayerCount: 2
Fore
SplineSet
212 131 m 1
 522 131 l 1
 620 700 l 1
 767 700 l 1
 670 131 l 1
 770 131 l 1
 725 -128 l 1
 588 -128 l 1
 610 0 l 1
 44 0 l 1
 164 700 l 1
 310 700 l 1
 212 131 l 1
EndSplineSet
EndChar

StartChar: uni0427
Encoding: 1063 1063 423
Width: 667
VWidth: 0
Flags: HW
LayerCount: 2
Fore
SplineSet
311 238 m 1
 365 365 l 1
 543 366 l 1
 521 238 l 1
 311 238 l 1
535 700 m 1
 686 700 l 1
 565 0 l 1
 417 0 l 1
 535 700 l 1
308 700 m 1
 272 498 l 1
 260 421 294 365 365 365 c 1
 311 238 l 1
 174 238 109 353 127 482 c 1
 164 700 l 1
 308 700 l 1
EndSplineSet
EndChar

StartChar: uni0428
Encoding: 1064 1064 424
Width: 1022
VWidth: 0
Flags: HW
LayerCount: 2
Fore
SplineSet
797 131 m 1
 895 700 l 1
 1040 700 l 1
 920 0 l 1
 48 0 l 1
 168 700 l 1
 313 700 l 1
 216 131 l 1
 436 131 l 1
 534 700 l 1
 674 700 l 1
 577 131 l 1
 797 131 l 1
EndSplineSet
EndChar

StartChar: uni0429
Encoding: 1065 1065 425
Width: 1083
VWidth: 0
Flags: HW
LayerCount: 2
Fore
SplineSet
797 131 m 1
 895 700 l 1
 1040 700 l 1
 942 131 l 1
 1042 131 l 1
 998 -128 l 1
 861 -128 l 1
 883 0 l 1
 48 0 l 1
 168 700 l 1
 313 700 l 1
 216 131 l 1
 436 131 l 1
 534 700 l 1
 674 700 l 1
 577 131 l 1
 797 131 l 1
EndSplineSet
EndChar

StartChar: uni042A
Encoding: 1066 1066 426
Width: 691
VWidth: 0
Flags: HW
LayerCount: 2
Fore
SplineSet
296 325 m 1
 316 447 l 1
 446 447 l 2
 595 446 691 361 671 223 c 0
 651 84 536 1 383 0 c 2
 239 0 l 1
 261 122 l 1
 391 122 l 2
 461 123 519 159 532 224 c 0
 543 287 504 324 437 324 c 2
 296 325 l 1
254 570 m 1
 77 569 l 1
 100 700 l 1
 420 700 l 1
 299 0 l 1
 156 0 l 1
 254 570 l 1
EndSplineSet
EndChar

StartChar: uni042B
Encoding: 1067 1067 427
Width: 841
VWidth: 0
Flags: HW
LayerCount: 2
Fore
SplineSet
715 700 m 1
 863 700 l 1
 743 0 l 1
 597 0 l 1
 715 700 l 1
163 700 m 1
 309 700 l 1
 188 0 l 1
 45 0 l 1
 163 700 l 1
187 325 m 1
 207 447 l 1
 337 447 l 2
 486 446 582 361 562 223 c 0
 542 84 427 1 274 0 c 2
 130 0 l 1
 152 122 l 1
 282 122 l 2
 352 123 410 159 423 224 c 0
 434 287 395 324 328 324 c 2
 187 325 l 1
EndSplineSet
EndChar

StartChar: uni042C
Encoding: 1068 1068 428
Width: 583
VWidth: 0
Flags: HW
LayerCount: 2
Fore
SplineSet
163 700 m 1
 309 700 l 1
 188 0 l 1
 45 0 l 1
 163 700 l 1
187 325 m 1
 207 447 l 1
 337 447 l 2
 486 446 582 361 562 223 c 0
 542 84 427 1 274 0 c 2
 130 0 l 1
 152 122 l 1
 282 122 l 2
 352 123 410 159 423 224 c 0
 434 287 395 324 328 324 c 2
 187 325 l 1
EndSplineSet
EndChar

StartChar: uni042D
Encoding: 1069 1069 429
Width: 675
VWidth: 0
Flags: HW
LayerCount: 2
Fore
SplineSet
153 290 m 1
 173 410 l 1
 553 410 l 1
 532 290 l 1
 153 290 l 1
532 350 m 0
 553 473 472 577 349 579 c 0
 256 580 179 536 122 493 c 1
 143 642 l 1
 206 687 274 714 366 714 c 0
 576 714 704 550 676 350 c 0
 646 142 470 -14 255 -14 c 0
 166 -14 104 12 47 59 c 1
 68 207 l 1
 109 157 173 121 258 121 c 0
 385 121 509 220 532 350 c 0
EndSplineSet
EndChar

StartChar: uni042E
Encoding: 1070 1070 430
Width: 1076
VWidth: 0
Flags: HW
LayerCount: 2
Fore
SplineSet
143 307 m 1
 165 438 l 1
 465 438 l 1
 442 307 l 1
 143 307 l 1
163 700 m 1
 309 700 l 1
 188 0 l 1
 45 0 l 1
 163 700 l 1
507 350 m 0
 488 234 542 122 670 121 c 0
 800 120 903 225 925 350 c 0
 944 467 891 578 761 579 c 0
 631 580 529 475 507 350 c 0
354 350 m 0
 384 554 560 714 771 714 c 0
 979 714 1105 548 1077 350 c 0
 1047 145 873 -19 659 -19 c 0
 449 -19 326 152 354 350 c 0
EndSplineSet
EndChar

StartChar: uni042F
Encoding: 1071 1071 431
Width: 603
VWidth: 0
Flags: HW
LayerCount: 2
Fore
SplineSet
409 324 m 1
 149 0 l 1
 -27 0 l 1
 250 324 l 1
 409 324 l 1
625 700 m 1
 505 0 l 1
 360 0 l 1
 481 700 l 1
 625 700 l 1
517 576 m 1
 387 576 l 2
 317 576 258 537 245 472 c 0
 233 410 273 371 340 369 c 1
 482 368 l 1
 462 254 l 1
 323 253 l 1
 175 255 79 342 99 477 c 0
 119 613 235 699 387 700 c 1
 539 700 l 1
 517 576 l 1
EndSplineSet
EndChar

StartChar: uni0430
Encoding: 1072 1072 432
Width: 585
VWidth: 0
Flags: HW
LayerCount: 2
Fore
SplineSet
452 460 m 1
 580 460 l 1
 500 0 l 1
 374 0 l 1
 452 460 l 1
43 230 m 0
 62 367 170 471 295 470 c 0
 419 469 467 355 451 230 c 0
 433 99 345 -10 222 -10 c 0
 97 -10 26 99 43 230 c 0
177 230 m 0
 167 161 201 100 270 99 c 0
 334 98 398 157 410 230 c 0
 420 298 384 359 322 361 c 0
 252 363 189 303 177 230 c 0
EndSplineSet
EndChar

StartChar: uni0431
Encoding: 1073 1073 433
Width: 572
VWidth: 0
Flags: HW
LayerCount: 2
Fore
SplineSet
328 360 m 1
 354 469 l 1
 491 469 576 364 559 230 c 0
 541 93 424 -10 278 -10 c 0
 120 -10 55 112 55 241 c 1
 188 208 l 1
 188 154 219 101 284 101 c 0
 354 101 415 159 426 230 c 0
 438 304 396 360 328 360 c 1
133 231 m 1
 154 369 228 469 354 469 c 1
 328 360 l 1
 261 360 188 307 188 208 c 1
 133 231 l 1
55 241 m 1
 55 436 146 595 306 660 c 0
 386 692 440 725 468 780 c 1
 595 779 l 1
 566 683 480 619 375 578 c 0
 261 534 178 428 174 315 c 1
 183 209 l 1
 55 241 l 1
EndSplineSet
EndChar

StartChar: uni0432
Encoding: 1074 1074 434
Width: 488
VWidth: 0
Flags: HW
LayerCount: 2
Fore
SplineSet
158 240 m 1
 305 240 l 2
 389 239 467 213 456 124 c 0
 446 50 385 0 295 0 c 2
 118 0 l 1
 133 87 l 1
 258 88 l 2
 297 88 329 110 335 140 c 0
 340 169 319 189 283 189 c 2
 151 190 l 1
 158 240 l 1
157 220 m 1
 165 275 l 1
 281 276 l 2
 313 276 343 296 348 325 c 0
 352 351 334 372 305 372 c 2
 181 373 l 1
 196 460 l 1
 333 460 l 2
 412 459 485 420 473 334 c 0
 462 256 384 222 304 220 c 2
 157 220 l 1
122 460 m 1
 250 460 l 1
 170 0 l 1
 44 0 l 1
 122 460 l 1
EndSplineSet
EndChar

StartChar: uni0433
Encoding: 1075 1075 435
Width: 339
VWidth: 0
Flags: HW
LayerCount: 2
Fore
SplineSet
113 460 m 1
 391 460 l 1
 371 349 l 1
 225 349 l 1
 164 0 l 1
 36 0 l 1
 113 460 l 1
EndSplineSet
EndChar

StartChar: uni0434
Encoding: 1076 1076 436
Width: 669
VWidth: 0
Flags: HW
LayerCount: 2
Fore
SplineSet
358 288 m 1
 201 31 l 1
 71 54 l 1
 388 498 l 1
 553 51 l 1
 426 29 l 1
 358 288 l 1
479 0 m 1
 140 0 l 1
 123 -90 l 1
 -6 -90 l 1
 28 106 l 1
 620 106 l 1
 585 -90 l 1
 462 -90 l 1
 479 0 l 1
EndSplineSet
EndChar

StartChar: uni0435
Encoding: 1077 1077 437
Width: 540
VWidth: 0
Flags: HW
LayerCount: 2
Fore
SplineSet
117 201 m 1
 128 280 l 1
 392 281 l 1
 394 334 374 376 315 377 c 0
 246 379 197 322 183 255 c 1
 176 230 l 1
 166 153 191 92 263 90 c 0
 318 88 361 119 392 156 c 1
 504 118 l 1
 448 41 371 -11 256 -10 c 0
 110 -9 29 97 46 230 c 0
 48 247 52 263 57 279 c 0
 92 391 191 470 323 470 c 0
 468 470 540 372 525 236 c 0
 524 226 522 214 520 201 c 1
 117 201 l 1
EndSplineSet
EndChar

StartChar: uni0436
Encoding: 1078 1078 438
Width: 797
VWidth: 0
Flags: HW
LayerCount: 2
Fore
SplineSet
675 460 m 1
 836 460 l 1
 600 260 l 1
 768 0 l 1
 624 0 l 1
 455 275 l 1
 675 460 l 1
512 460 m 1
 434 0 l 1
 310 0 l 1
 388 460 l 1
 512 460 l 1
216 460 m 1
 381 265 l 1
 127 0 l 1
 -33 0 l 1
 233 270 l 1
 74 460 l 1
 216 460 l 1
EndSplineSet
EndChar

StartChar: uni0437
Encoding: 1079 1079 439
Width: 504
VWidth: 0
Flags: HW
LayerCount: 2
Fore
SplineSet
268 230 m 1
 276 284 l 1
 311 287 345 300 350 330 c 0
 353 354 333 371 306 371 c 0
 269 372 243 343 235 313 c 1
 113 314 l 1
 131 404 207 470 308 470 c 0
 405 470 485 412 473 333 c 0
 460 253 371 232 268 230 c 1
240 -10 m 0
 126 -10 58 54 55 154 c 1
 176 154 l 1
 183 116 201 88 247 87 c 0
 292 86 332 110 338 147 c 0
 345 188 308 202 264 205 c 1
 273 260 l 1
 373 258 472 224 459 134 c 0
 447 41 341 -10 240 -10 c 0
EndSplineSet
EndChar

StartChar: uni0438
Encoding: 1080 1080 440
Width: 560
VWidth: 0
Flags: HW
LayerCount: 2
Fore
SplineSet
524 341 m 1
 25 -43 l 1
 61 119 l 1
 560 503 l 1
 524 341 l 1
241 460 m 1
 178 93 l 1
 25 -43 l 1
 114 460 l 1
 241 460 l 1
560 503 m 1
 471 0 l 1
 344 0 l 1
 408 367 l 1
 560 503 l 1
EndSplineSet
EndChar

StartChar: uni0439
Encoding: 1081 1081 441
Width: 560
VWidth: 0
Flags: HW
LayerCount: 2
Fore
SplineSet
524 341 m 1
 25 -43 l 1
 61 119 l 1
 560 503 l 1
 524 341 l 1
241 460 m 1
 178 93 l 1
 25 -43 l 1
 114 460 l 1
 241 460 l 1
560 503 m 1
 471 0 l 1
 344 0 l 1
 408 367 l 1
 560 503 l 1
208 692 m 1
 295 692 l 1
 295 660 310 629 353 628 c 0
 397 627 423 660 433 691 c 1
 524 691 l 1
 507 612 446 548 348 548 c 0
 251 548 204 612 208 692 c 1
EndSplineSet
EndChar

StartChar: uni043A
Encoding: 1082 1082 442
Width: 523
VWidth: 0
Flags: HW
LayerCount: 2
Fore
SplineSet
108 460 m 1
 236 460 l 1
 156 0 l 1
 31 0 l 1
 108 460 l 1
391 460 m 1
 556 460 l 1
 324 265 l 1
 488 0 l 1
 342 0 l 1
 173 275 l 1
 391 460 l 1
EndSplineSet
EndChar

StartChar: uni043B
Encoding: 1083 1083 443
Width: 586
VWidth: 0
Flags: HW
LayerCount: 2
Fore
SplineSet
563 460 m 1
 484 0 l 1
 357 0 l 1
 416 340 l 1
 237 340 l 1
 207 160 l 1
 186 48 114 4 -17 0 c 1
 -0 117 l 1
 42 122 73 137 83 187 c 1
 130 460 l 1
 563 460 l 1
EndSplineSet
EndChar

StartChar: uni043C
Encoding: 1084 1084 444
Width: 623
VWidth: 0
Flags: HW
LayerCount: 2
Fore
SplineSet
460 0 m 1
 453 336 l 1
 548 502 l 1
 591 0 l 1
 460 0 l 1
273 119 m 1
 548 502 l 1
 524 299 l 1
 279 -33 l 1
 273 119 l 1
279 -33 m 1
 149 310 l 1
 191 497 l 1
 332 107 l 1
 279 -33 l 1
-27 0 m 1
 191 497 l 1
 228 322 l 1
 111 0 l 1
 -27 0 l 1
EndSplineSet
EndChar

StartChar: uni043D
Encoding: 1085 1085 445
Width: 582
VWidth: 0
Flags: HW
LayerCount: 2
Fore
SplineSet
112 192 m 1
 129 293 l 1
 485 293 l 1
 467 192 l 1
 112 192 l 1
447 460 m 1
 575 460 l 1
 495 0 l 1
 370 0 l 1
 447 460 l 1
111 460 m 1
 239 460 l 1
 159 0 l 1
 34 0 l 1
 111 460 l 1
EndSplineSet
EndChar

StartChar: uni043E
Encoding: 1086 1086 446
Width: 559
VWidth: 0
Flags: HW
LayerCount: 2
Fore
SplineSet
42 230 m 0
 62 369 184 470 327 470 c 0
 468 470 561 366 542 230 c 0
 522 91 401 -10 258 -10 c 0
 117 -10 23 94 42 230 c 0
175 230 m 0
 165 164 196 102 265 101 c 0
 335 100 396 159 409 230 c 0
 419 296 389 358 320 359 c 0
 250 360 188 301 175 230 c 0
EndSplineSet
EndChar

StartChar: uni043F
Encoding: 1087 1087 447
Width: 543
VWidth: 0
Flags: HW
LayerCount: 2
Fore
SplineSet
536 460 m 1
 457 0 l 1
 329 0 l 1
 389 345 l 1
 219 345 l 1
 159 0 l 1
 32 0 l 1
 112 460 l 1
 536 460 l 1
EndSplineSet
EndChar

StartChar: uni0440
Encoding: 1088 1088 448
Width: 585
VWidth: 0
Flags: HW
LayerCount: 2
Fore
SplineSet
124 -220 m 1
 -8 -220 l 1
 109 460 l 1
 239 460 l 1
 124 -220 l 1
568 230 m 0
 550 90 442 -15 316 -14 c 0
 188 -13 148 105 163 230 c 0
 180 362 260 473 386 474 c 0
 512 475 585 364 568 230 c 0
433 231 m 0
 443 300 408 356 340 357 c 0
 277 358 212 302 200 229 c 0
 190 161 225 105 287 103 c 0
 357 101 421 159 433 231 c 0
EndSplineSet
EndChar

StartChar: uni0441
Encoding: 1089 1089 449
Width: 471
VWidth: 0
Flags: HW
LayerCount: 2
Fore
SplineSet
173 230 m 0
 161 160 199 100 272 98 c 0
 333 97 391 130 427 170 c 1
 409 36 l 1
 370 8 319 -10 257 -10 c 0
 115 -10 21 94 40 230 c 0
 60 370 181 470 326 470 c 0
 386 470 434 452 471 424 c 1
 452 290 l 1
 430 335 383 362 329 362 c 0
 253 362 187 303 173 230 c 0
EndSplineSet
EndChar

StartChar: uni0442
Encoding: 1090 1090 450
Width: 307
VWidth: 0
Flags: HW
LayerCount: 2
Fore
SplineSet
55 460 m 1
 357 460 l 1
 338 349 l 1
 35 349 l 1
 55 460 l 1
138 440 m 1
 266 440 l 1
 190 0 l 1
 64 0 l 1
 138 440 l 1
EndSplineSet
EndChar

StartChar: uni0443
Encoding: 1091 1091 451
Width: 483
VWidth: 0
Flags: HW
LayerCount: 2
Fore
SplineSet
545 460 m 1
 137 -220 l 1
 -1 -220 l 1
 162 50 l 1
 46 460 l 1
 186 460 l 1
 267 93 l 1
 202 96 l 1
 405 460 l 1
 545 460 l 1
EndSplineSet
EndChar

StartChar: uni0444
Encoding: 1092 1092 452
Width: 624
VWidth: 0
Flags: HW
LayerCount: 2
Fore
SplineSet
318 560 m 1
 444 560 l 1
 330 -100 l 1
 207 -100 l 1
 318 560 l 1
42 230 m 0
 63 376 195 470 359 470 c 0
 518 470 628 374 607 230 c 0
 586 84 454 -10 290 -10 c 0
 131 -10 21 86 42 230 c 0
162 230 m 0
 146 151 200 102 296 101 c 0
 396 100 470 149 487 230 c 0
 503 309 449 358 353 359 c 0
 253 360 179 311 162 230 c 0
EndSplineSet
EndChar

StartChar: uni0445
Encoding: 1093 1093 453
Width: 483
VWidth: 0
Flags: HW
LayerCount: 2
Fore
SplineSet
383 460 m 1
 532 460 l 1
 325 233 l 1
 461 0 l 1
 323 0 l 1
 246 145 l 1
 126 0 l 1
 -27 0 l 1
 192 243 l 1
 64 460 l 1
 206 460 l 1
 272 330 l 1
 383 460 l 1
EndSplineSet
EndChar

StartChar: uni0446
Encoding: 1094 1094 454
Width: 586
VWidth: 0
Flags: HW
LayerCount: 2
Fore
SplineSet
479 110 m 1
 559 110 l 1
 522 -99 l 1
 401 -99 l 1
 418 0 l 1
 33 0 l 1
 112 460 l 1
 243 460 l 1
 183 111 l 1
 348 111 l 1
 409 460 l 1
 539 460 l 1
 479 110 l 1
EndSplineSet
EndChar

StartChar: uni0447
Encoding: 1095 1095 455
Width: 513
VWidth: 0
Flags: HW
LayerCount: 2
Fore
SplineSet
220 123 m 1
 263 232 l 1
 391 233 l 1
 372 123 l 1
 220 123 l 1
369 460 m 1
 502 460 l 1
 422 0 l 1
 292 0 l 1
 369 460 l 1
230 460 m 1
 204 319 l 2
 194 262 210 232 263 232 c 1
 220 123 l 1
 88 123 58 205 76 328 c 2
 98 460 l 1
 230 460 l 1
EndSplineSet
EndChar

StartChar: uni0448
Encoding: 1096 1096 456
Width: 795
VWidth: 0
Flags: HW
LayerCount: 2
Fore
SplineSet
452 110 m 1
 601 111 l 1
 661 460 l 1
 788 460 l 1
 709 0 l 1
 33 0 l 1
 112 460 l 1
 239 460 l 1
 178 111 l 1
 326 111 l 1
 387 460 l 1
 512 460 l 1
 452 110 l 1
EndSplineSet
EndChar

StartChar: uni0449
Encoding: 1097 1097 457
Width: 834
VWidth: 0
Flags: HW
LayerCount: 2
Fore
SplineSet
452 110 m 1
 600 111 l 1
 661 460 l 1
 788 460 l 1
 728 111 l 1
 805 111 l 1
 770 -99 l 1
 648 -99 l 1
 666 0 l 1
 33 0 l 1
 112 460 l 1
 239 460 l 1
 178 111 l 1
 326 111 l 1
 387 460 l 1
 512 460 l 1
 452 110 l 1
EndSplineSet
EndChar

StartChar: uni044A
Encoding: 1098 1098 458
Width: 584
VWidth: 0
Flags: HW
LayerCount: 2
Fore
SplineSet
245 210 m 1
 259 299 l 1
 393 299 l 2
 483 299 551 251 539 156 c 0
 527 61 447 0 354 0 c 2
 208 0 l 1
 226 103 l 1
 342 103 l 2
 379 103 409 123 416 157 c 0
 422 188 402 209 368 209 c 2
 245 210 l 1
180 350 m 1
 35 349 l 1
 55 460 l 1
 320 460 l 1
 240 0 l 1
 120 0 l 1
 180 350 l 1
EndSplineSet
EndChar

StartChar: uni044B
Encoding: 1099 1099 459
Width: 707
VWidth: 0
Flags: HW
LayerCount: 2
Fore
SplineSet
568 460 m 1
 700 460 l 1
 620 0 l 1
 490 0 l 1
 568 460 l 1
111 460 m 1
 244 460 l 1
 163 0 l 1
 34 0 l 1
 111 460 l 1
166 210 m 1
 180 299 l 1
 314 299 l 2
 404 299 472 251 460 156 c 0
 448 61 368 0 275 0 c 2
 128 0 l 1
 146 103 l 1
 263 103 l 2
 300 103 330 123 337 157 c 0
 343 188 323 209 289 209 c 2
 166 210 l 1
EndSplineSet
EndChar

StartChar: uni044C
Encoding: 1100 1100 460
Width: 511
VWidth: 0
Flags: HW
LayerCount: 2
Fore
SplineSet
115 460 m 1
 248 460 l 1
 168 0 l 1
 38 0 l 1
 115 460 l 1
170 210 m 1
 184 299 l 1
 318 299 l 2
 408 299 476 251 464 156 c 0
 452 61 372 0 279 0 c 2
 133 0 l 1
 151 103 l 1
 267 103 l 2
 304 103 335 123 342 157 c 0
 348 188 328 209 293 209 c 2
 170 210 l 1
EndSplineSet
EndChar

StartChar: uni044D
Encoding: 1101 1101 461
Width: 474
VWidth: 0
Flags: HW
LayerCount: 2
Fore
SplineSet
133 276 m 1
 427 276 l 1
 372 184 l 1
 118 184 l 1
 133 276 l 1
326 230 m 0
 338 305 305 373 229 375 c 0
 170 377 111 344 75 304 c 1
 91 425 l 1
 130 452 181 470 242 470 c 0
 384 470 478 366 459 230 c 0
 439 90 318 -10 173 -10 c 0
 113 -10 65 6 28 37 c 1
 45 157 l 1
 67 112 112 84 168 84 c 0
 247 84 312 146 326 230 c 0
EndSplineSet
EndChar

